Kodato-Regular.ufo
<glyph name="numbersign" format="1">
  <advance width="1718"/>
  <unicode hex="0023"/>
  <outline>
    <contour>
      <point x="1583.38000488" y="545.86000061" type="line"/>
      <point x="1577.62001038" y="505.13999939" type="line" smooth="yes"/>
      <point x="1570.80001831" y="456.899978638"/>
      <point x="1539.83001709" y="429.999984741"/>
      <point x="1491.11001587" y="429.999984741" type="curve" smooth="yes"/>
      <point x="1461.60002136" y="429.999984741" type="line" smooth="yes"/>
      <point x="1423.35002136" y="429.999984741"/>
      <point x="1399.05001831" y="408.858978271"/>
      <point x="1393.76000977" y="370.975982666" type="curve" smooth="yes"/>
      <point x="1352.49000549" y="75.1315765381" type="line" smooth="yes"/>
      <point x="1345.76000977" y="26.892578125"/>
      <point x="1314.82002258" y="-1.52587890625e-05"/>
      <point x="1266.11001587" y="-1.52587890625e-05" type="curve" smooth="yes"/>
      <point x="916.887008667" y="-1.52587890625e-05" type="line" smooth="yes"/>
      <point x="870.898010254" y="-1.52587890625e-05"/>
      <point x="845.209014893" y="29.5997772217"/>
      <point x="851.683013916" y="75.1315917969" type="curve" smooth="yes"/>
      <point x="893.610015869" y="369.99798584" type="line" smooth="yes"/>
      <point x="898.695037842" y="405.755004883"/>
      <point x="878.521026611" y="429.0"/>
      <point x="842.404037476" y="429.0" type="curve" smooth="yes"/>
      <point x="764.596038818" y="429.0" type="line" smooth="yes"/>
      <point x="726.344024658" y="429.0"/>
      <point x="702.044036865" y="407.880996704"/>
      <point x="696.745025635" y="369.998001099" type="curve" smooth="yes"/>
      <point x="655.511032104" y="75.1316070557" type="line" smooth="yes"/>
      <point x="648.765045166" y="26.8923187256"/>
      <point x="617.821044922" y="1.52587890625e-05"/>
      <point x="569.113052368" y="1.52587890625e-05" type="curve" smooth="yes"/>
      <point x="218.887054443" y="1.52587890625e-05" type="line" smooth="yes"/>
      <point x="172.89805603" y="1.52587890625e-05"/>
      <point x="147.209060669" y="29.5998077393"/>
      <point x="153.683059692" y="75.1316223145" type="curve" smooth="yes"/>
      <point x="195.610061646" y="369.998016357" type="line" smooth="yes"/>
      <point x="200.695083618" y="405.7550354"/>
      <point x="180.521072388" y="429.000030518"/>
      <point x="144.404083252" y="429.000030518" type="curve" smooth="yes"/>
      <point x="136.000076294" y="429.000030518" type="line" smooth="yes"/>
      <point x="95.9356689453" y="429.000030518"/>
      <point x="73.4803771973" y="454.701034546"/>
      <point x="78.8567810059" y="494.403030396" type="curve" smooth="yes"/>
      <point x="86.8750762939" y="553.615036011" type="line" smooth="yes"/>
      <point x="92.7278747559" y="596.836044312"/>
      <point x="120.384078979" y="621.000045776"/>
      <point x="164.000076294" y="621.000045776" type="curve" smooth="yes"/>
      <point x="174.404083252" y="621.000045776" type="line" smooth="yes"/>
      <point x="212.640090942" y="621.000045776"/>
      <point x="236.901092529" y="642.142044067"/>
      <point x="242.095092773" y="680.02204895" type="curve" smooth="yes"/>
      <point x="276.905090332" y="933.978042603" type="line" smooth="yes"/>
      <point x="281.817092896" y="969.804046631"/>
      <point x="261.566085815" y="993.000045776"/>
      <point x="225.404098511" y="993.000045776" type="curve" smooth="yes"/>
      <point x="210.000091553" y="993.000045776" type="line" smooth="yes"/>
      <point x="165.737091064" y="993.000045776"/>
      <point x="140.987091064" y="1021.46005249"/>
      <point x="147.128097534" y="1065.29003906" type="curve" smooth="yes"/>
      <point x="155.525100708" y="1125.2300415" type="line" smooth="yes"/>
      <point x="162.249099731" y="1173.22003174"/>
      <point x="193.038101196" y="1200.00003052"/>
      <point x="241.500106812" y="1200.00003052" type="curve" smooth="yes"/>
      <point x="259.40411377" y="1200.00003052" type="line" smooth="yes"/>
      <point x="297.637115479" y="1200.00003052"/>
      <point x="321.894119263" y="1221.17002869"/>
      <point x="327.072128296" y="1259.05003357" type="curve" smooth="yes"/>
      <point x="362.721130371" y="1519.79003906" type="line" smooth="yes"/>
      <point x="369.315124512" y="1568.0300293"/>
      <point x="400.203125" y="1595.00003052"/>
      <point x="448.887115479" y="1595.00003052" type="curve" smooth="yes"/>
      <point x="796.113113403" y="1595.00003052" type="line" smooth="yes"/>
      <point x="842.193099976" y="1595.00003052"/>
      <point x="868.036102295" y="1565.46003723"/>
      <point x="861.908111572" y="1519.7900238" type="curve" smooth="yes"/>
      <point x="826.925109863" y="1259.05001831" type="line" smooth="yes"/>
      <point x="822.113128662" y="1223.18002319"/>
      <point x="842.408126831" y="1200.00003052"/>
      <point x="878.596115112" y="1200.00003052" type="curve" smooth="yes"/>
      <point x="956.40411377" y="1200.00003052" type="line" smooth="yes"/>
      <point x="994.652114868" y="1200.00003052"/>
      <point x="1018.94012451" y="1221.16003418"/>
      <point x="1024.22012329" y="1259.05003357" type="curve" smooth="yes"/>
      <point x="1060.53012085" y="1519.79003906" type="line" smooth="yes"/>
      <point x="1067.25012207" y="1568.0300293"/>
      <point x="1098.18011475" y="1595.00003052"/>
      <point x="1146.89012146" y="1595.00003052" type="curve" smooth="yes"/>
      <point x="1493.11012268" y="1595.00003052" type="line" smooth="yes"/>
      <point x="1539.19013977" y="1595.00003052"/>
      <point x="1565.04013062" y="1565.46003723"/>
      <point x="1558.91014099" y="1519.7900238" type="curve" smooth="yes"/>
      <point x="1523.93014526" y="1259.05001831" type="line" smooth="yes"/>
      <point x="1519.1101532" y="1223.18002319"/>
      <point x="1539.41015625" y="1200.00003052"/>
      <point x="1575.60015869" y="1200.00003052" type="curve" smooth="yes"/>
      <point x="1591.00015259" y="1200.00003052" type="line" smooth="yes"/>
      <point x="1635.20014954" y="1200.00003052"/>
      <point x="1659.85015869" y="1171.50003052"/>
      <point x="1653.48014832" y="1127.76002502" type="curve" smooth="yes"/>
      <point x="1644.74014282" y="1067.72003174" type="line" smooth="yes"/>
      <point x="1637.84014893" y="1020.36003113"/>
      <point x="1607.3601532" y="994.000030518"/>
      <point x="1559.50015259" y="994.000030518" type="curve" smooth="yes"/>
      <point x="1542.60015869" y="994.000030518" type="line" smooth="yes"/>
      <point x="1504.35015869" y="994.000030518"/>
      <point x="1480.05015564" y="972.858032227"/>
      <point x="1474.77015686" y="934.975036621" type="curve" smooth="yes"/>
      <point x="1439.23016357" y="680.022033691" type="line" smooth="yes"/>
      <point x="1434.24015808" y="644.227035522"/>
      <point x="1454.45014954" y="621.000030518"/>
      <point x="1490.60015869" y="621.000030518" type="curve" smooth="yes"/>
      <point x="1518.1101532" y="621.000030518" type="line" smooth="yes"/>
      <point x="1564.11016846" y="621.000030518"/>
      <point x="1589.82017517" y="591.406036377"/>
      <point x="1583.38017273" y="545.860031128" type="curve"/>
    </contour>
    <contour>
      <point x="777.750167847" y="933.978027344" type="curve" smooth="yes"/>
      <point x="742.250167847" y="680.022033691" type="line" smooth="yes"/>
      <point x="737.247161865" y="644.232025146"/>
      <point x="757.4581604" y="621.000030518"/>
      <point x="793.596160889" y="621.000030518" type="curve" smooth="yes"/>
      <point x="871.404159546" y="621.000030518" type="line" smooth="yes"/>
      <point x="909.656173706" y="621.000030518"/>
      <point x="933.955169678" y="642.139038086"/>
      <point x="939.250167847" y="680.022033691" type="curve" smooth="yes"/>
      <point x="974.750167847" y="933.978027344" type="line" smooth="yes"/>
      <point x="979.753173828" y="969.768035889"/>
      <point x="959.542175293" y="993.000030518"/>
      <point x="923.404174805" y="993.000030518" type="curve" smooth="yes"/>
      <point x="845.596176147" y="993.000030518" type="line" smooth="yes"/>
      <point x="807.344161987" y="993.000030518"/>
      <point x="783.045166016" y="971.861022949"/>
    </contour>
  </outline>
</glyph>
<glyph name="dollar" format="1">
  <advance width="1434"/>
  <unicode hex="0024"/>
  <outline>
    <contour>
      <point x="725.5" y="-168" type="line"/>
      <point x="723.5" y="-168" type="line" smooth="yes"/>
      <point x="699.406997681" y="-168"/>
      <point x="685.0" y="-153.593002319"/>
      <point x="685.0" y="-129.5" type="curve" smooth="yes"/>
      <point x="685.0" y="-38.2353973389" type="line" smooth="yes"/>
      <point x="685.0" y="-0.323837280273"/>
      <point x="663.330993652" y="21.9424133301"/>
      <point x="625.434005737" y="22.973815918" type="curve" smooth="yes"/>
      <point x="499.472000122" y="26.4017181396"/>
      <point x="391.977996826" y="38.9412078857"/>
      <point x="301.0" y="71.0000152588" type="curve" smooth="yes"/>
      <point x="165.772994995" y="119.041015625"/>
      <point x="103.363006592" y="214.570022583"/>
      <point x="99.6846008301" y="406.17401123" type="curve" smooth="yes"/>
      <point x="98.8197937012" y="451.223022461"/>
      <point x="129.123001099" y="480.197021484"/>
      <point x="174.087997437" y="477.313018799" type="curve" smooth="yes"/>
      <point x="524.267990112" y="454.857025146" type="line" smooth="yes"/>
      <point x="572.252990723" y="451.779037476"/>
      <point x="599.999984741" y="422.196029663"/>
      <point x="599.999984741" y="374.113037109" type="curve" smooth="yes"/>
      <point x="599.999984741" y="324.500030518" type="line" smooth="yes"/>
      <point x="599.999984741" y="298.529037476"/>
      <point x="615.528991699" y="283.000030518"/>
      <point x="641.499984741" y="283.000030518" type="curve" smooth="yes"/>
      <point x="643.499984741" y="283.000030518" type="line" smooth="yes"/>
      <point x="669.470977783" y="283.000030518"/>
      <point x="684.999984741" y="298.529037476"/>
      <point x="684.999984741" y="324.500030518" type="curve" smooth="yes"/>
      <point x="684.999984741" y="525.951034546" type="line" smooth="yes"/>
      <point x="684.999984741" y="564.799041748"/>
      <point x="664.551986694" y="589.550048828"/>
      <point x="626.401977539" y="596.88104248" type="curve" smooth="yes"/>
      <point x="350.690979004" y="649.861038208"/>
      <point x="69.9999847412" y="735.481048584"/>
      <point x="69.9999847412" y="1080.00004578" type="curve" smooth="yes"/>
      <point x="69.9999847412" y="1439.85005188"/>
      <point x="307.821990967" y="1528.16004944"/>
      <point x="625.472991943" y="1542.20004272" type="curve" smooth="yes"/>
      <point x="663.601989746" y="1543.89004517"/>
      <point x="684.999984741" y="1566.26004028"/>
      <point x="684.999984741" y="1604.42004395" type="curve" smooth="yes"/>
      <point x="684.999984741" y="1691.50004578" type="line" smooth="yes"/>
      <point x="684.999984741" y="1715.59004211"/>
      <point x="699.406982422" y="1730.00004578"/>
      <point x="723.499984741" y="1730.00004578" type="curve" smooth="yes"/>
      <point x="725.499984741" y="1730.00004578" type="line" smooth="yes"/>
      <point x="749.592987061" y="1730.00004578"/>
      <point x="763.999984741" y="1715.59004211"/>
      <point x="763.999984741" y="1691.50004578" type="curve" smooth="yes"/>
      <point x="763.999984741" y="1605.220047" type="line" smooth="yes"/>
      <point x="763.999984741" y="1567.31004333"/>
      <point x="785.662979126" y="1545.05004883"/>
      <point x="823.554977417" y="1544.02005005" type="curve" smooth="yes"/>
      <point x="947.699981689" y="1540.62004089"/>
      <point x="1054.19998169" y="1528.54003906"/>
      <point x="1144.99998474" y="1500.00004578" type="curve" smooth="yes"/>
      <point x="1316.73999023" y="1443.90003967"/>
      <point x="1349.94998169" y="1322.26004028"/>
      <point x="1348.74998474" y="1167.86004639" type="curve" smooth="yes"/>
      <point x="1348.39997864" y="1122.0700531"/>
      <point x="1318.01998901" y="1093.68003845"/>
      <point x="1272.3099823" y="1096.43003845" type="curve" smooth="yes"/>
      <point x="922.750976562" y="1117.45004272" type="line" smooth="yes"/>
      <point x="874.788970947" y="1120.33003235"/>
      <point x="846.999969482" y="1149.84002686"/>
      <point x="846.999969482" y="1197.89002991" type="curve" smooth="yes"/>
      <point x="846.999969482" y="1242.50003052" type="line" smooth="yes"/>
      <point x="846.999969482" y="1267.84002686"/>
      <point x="831.844970703" y="1283.00003052"/>
      <point x="806.499969482" y="1283.00003052" type="curve" smooth="yes"/>
      <point x="804.499969482" y="1283.00003052" type="line" smooth="yes"/>
      <point x="779.154968262" y="1283.00003052"/>
      <point x="763.999969482" y="1267.84002686"/>
      <point x="763.999969482" y="1242.50003052" type="curve" smooth="yes"/>
      <point x="763.999969482" y="1056.92002869" type="line" smooth="yes"/>
      <point x="763.999969482" y="1018.12001038"/>
      <point x="784.414962769" y="993.171020508"/>
      <point x="822.449966431" y="985.499008179" type="curve" smooth="yes"/>
      <point x="1091.34997559" y="931.258010864"/>
      <point x="1377.99996948" y="848.318008423"/>
      <point x="1377.99996948" y="510.000015259" type="curve" smooth="yes"/>
      <point x="1377.99996948" y="142.556015015"/>
      <point x="1170.79997253" y="40.5788116455"/>
      <point x="823.554962158" y="24.8596191406" type="curve" smooth="yes"/>
      <point x="785.382965088" y="23.1317138672"/>
      <point x="763.999969482" y="0.731979370117"/>
      <point x="763.999969482" y="-37.4791870117" type="curve" smooth="yes"/>
      <point x="763.999969482" y="-129.499984741" type="line" smooth="yes"/>
      <point x="763.999969482" y="-153.592987061"/>
      <point x="749.592971802" y="-167.999984741"/>
      <point x="725.499969482" y="-167.999984741" type="curve"/>
    </contour>
    <contour>
      <point x="846.999969482" y="323.500015259" type="line"/>
      <point x="846.999969482" y="514.73600769" type="line" smooth="yes"/>
      <point x="846.999969482" y="541.431015015"/>
      <point x="832.712966919" y="558.758010864"/>
      <point x="806.499969482" y="563.811019897" type="curve" smooth="yes"/>
      <point x="804.499969482" y="564.189025879" type="line" smooth="yes"/>
      <point x="780.256973267" y="568.863037109"/>
      <point x="763.999969482" y="555.425033569"/>
      <point x="763.999969482" y="530.736022949" type="curve" smooth="yes"/>
      <point x="763.999969482" y="323.500030518" type="line" smooth="yes"/>
      <point x="763.999969482" y="298.155029297"/>
      <point x="779.154968262" y="283.000030518"/>
      <point x="804.499969482" y="283.000030518" type="curve" smooth="yes"/>
      <point x="806.499969482" y="283.000030518" type="line" smooth="yes"/>
      <point x="831.844970703" y="283.000030518"/>
      <point x="846.999969482" y="298.155029297"/>
      <point x="846.999969482" y="323.500030518" type="curve"/>
    </contour>
    <contour>
      <point x="599.999969482" y="1241.50003052" type="line"/>
      <point x="599.999969482" y="1073.55003357" type="line" smooth="yes"/>
      <point x="599.999969482" y="1045.77005005"/>
      <point x="614.377975464" y="1027.71005249"/>
      <point x="641.447967529" y="1021.4800415" type="curve" smooth="yes"/>
      <point x="642.112976074" y="1021.33004761"/>
      <point x="642.779968262" y="1021.18003845"/>
      <point x="643.446975708" y="1021.02005005" type="curve" smooth="yes"/>
      <point x="667.687973022" y="1015.46005249"/>
      <point x="684.999969482" y="1029.25004578"/>
      <point x="684.999969482" y="1054.12004089" type="curve" smooth="yes"/>
      <point x="684.999969482" y="1241.50004578" type="line" smooth="yes"/>
      <point x="684.999969482" y="1267.470047"/>
      <point x="669.470962524" y="1283.00004578"/>
      <point x="643.499969482" y="1283.00004578" type="curve" smooth="yes"/>
      <point x="641.499969482" y="1283.00004578" type="line" smooth="yes"/>
      <point x="615.52897644" y="1283.00004578"/>
      <point x="599.999969482" y="1267.470047"/>
      <point x="599.999969482" y="1241.50004578" type="curve" smooth="yes"/>
    </contour>
  </outline>
</glyph>
<glyph name="percent" format="1">
  <advance width="2792"/>
  <unicode hex="0025"/>
  <outline>
    <contour>
      <point x="623.0" y="877.5" type="curve" smooth="yes"/>
      <point x="623" y="1333.5" type="line" smooth="yes"/>
      <point x="623" y="1361.3500061"/>
      <point x="606.348007202" y="1378.0"/>
      <point x="578.5" y="1378.0" type="curve" smooth="yes"/>
      <point x="576.5" y="1378.0" type="line" smooth="yes"/>
      <point x="548.651992798" y="1378.0"/>
      <point x="532.0" y="1361.3500061"/>
      <point x="532.0" y="1333.5" type="curve" smooth="yes"/>
      <point x="532.0" y="877.5" type="line" smooth="yes"/>
      <point x="532.0" y="849.651992798"/>
      <point x="548.651992798" y="833.0"/>
      <point x="576.5" y="833.0" type="curve" smooth="yes"/>
      <point x="578.5" y="833.0" type="line" smooth="yes"/>
      <point x="606.348007202" y="833.0"/>
      <point x="623.0" y="849.651992798"/>
    </contour>
    <contour>
      <point x="1025.0" y="929.0" type="line" smooth="yes"/>
      <point x="1025.0" y="630.0"/>
      <point x="798.0" y="618.0"/>
      <point x="575.0" y="618.0" type="curve" smooth="yes"/>
      <point x="349.0" y="618.0"/>
      <point x="125.0" y="623.0"/>
      <point x="125.0" y="927.0" type="curve" smooth="yes"/>
      <point x="125.0" y="1286.0" type="line" smooth="yes"/>
      <point x="125.0" y="1577.0"/>
      <point x="352.0" y="1595.0"/>
      <point x="574.0" y="1595.0" type="curve" smooth="yes"/>
      <point x="795.0" y="1595.0"/>
      <point x="1025.0" y="1578.0"/>
      <point x="1025.0" y="1288.0" type="curve" smooth="yes"/>
    </contour>
    <contour>
      <point x="2262.0" y="391.0" type="curve" smooth="yes"/>
      <point x="2262.0" y="848.0" type="line" smooth="yes"/>
      <point x="2262.0" y="875.535003662"/>
      <point x="2245.53999329" y="892.0"/>
      <point x="2218.0" y="892.0" type="curve" smooth="yes"/>
      <point x="2216.0" y="892.0" type="line" smooth="yes"/>
      <point x="2188.46000671" y="892.0"/>
      <point x="2172.0" y="875.535003662"/>
      <point x="2172.0" y="848.0" type="curve" smooth="yes"/>
      <point x="2172.0" y="391.0" type="line" smooth="yes"/>
      <point x="2172.0" y="363.464996338"/>
      <point x="2188.46000671" y="347.0"/>
      <point x="2216.0" y="347.0" type="curve" smooth="yes"/>
      <point x="2218.0" y="347.0" type="line" smooth="yes"/>
      <point x="2245.53999329" y="347.0"/>
      <point x="2262.0" y="363.464996338"/>
    </contour>
    <contour>
      <point x="2665.0" y="442.0" type="line" smooth="yes"/>
      <point x="2665.0" y="153.0"/>
      <point x="2436.0" y="129.0"/>
      <point x="2215.0" y="129.0" type="curve" smooth="yes"/>
      <point x="1990.0" y="129.0"/>
      <point x="1765.0" y="146.0"/>
      <point x="1765.0" y="441.0" type="curve" smooth="yes"/>
      <point x="1765.0" y="798.0" type="line" smooth="yes"/>
      <point x="1765.0" y="1091.0"/>
      <point x="1990.0" y="1109.0"/>
      <point x="2214.0" y="1109.0" type="curve" smooth="yes"/>
      <point x="2437.0" y="1109.0"/>
      <point x="2665.0" y="1092.0"/>
      <point x="2665.0" y="799.0" type="curve" smooth="yes"/>
    </contour>
    <contour>
      <point x="1470.88999939" y="1632.0" type="line"/>
      <point x="1703.11000061" y="1632.0" type="line" smooth="yes"/>
      <point x="1748.13002014" y="1632.0"/>
      <point x="1772.22001648" y="1601.88999939"/>
      <point x="1762.3400116" y="1557.96000671" type="curve" smooth="yes"/>
      <point x="1419.66001892" y="35.0362091064" type="line" smooth="yes"/>
      <point x="1408.83001709" y="-13.0693817139"/>
      <point x="1376.42001343" y="-38.9999847412"/>
      <point x="1327.11001587" y="-38.9999847412" type="curve" smooth="yes"/>
      <point x="1090.89001465" y="-38.9999847412" type="line" smooth="yes"/>
      <point x="1045.8999939" y="-38.9999847412"/>
      <point x="1021.8500061" y="-8.87377929688"/>
      <point x="1031.83000183" y="34.9980163574" type="curve" smooth="yes"/>
      <point x="1378.16999817" y="1558.00001526" type="line" smooth="yes"/>
      <point x="1389.10998535" y="1606.10002136"/>
      <point x="1421.5599823" y="1632.00001526"/>
      <point x="1470.88998413" y="1632.00001526" type="curve"/>
    </contour>
  </outline>
</glyph>
<glyph name="ampersand" format="1">
  <advance width="1653"/>
  <unicode hex="0026"/>
  <outline>
    <contour>
      <point x="746.595993042" y="224.0" type="curve" smooth="yes"/>
      <point x="836.403991699" y="224" type="line" smooth="yes"/>
      <point x="873.699005127" y="224"/>
      <point x="896.0" y="246.300994873"/>
      <point x="896.0" y="283.595993042" type="curve" smooth="yes"/>
      <point x="896.0" y="676.403991699" type="line" smooth="yes"/>
      <point x="896.0" y="713.699005127"/>
      <point x="873.699005127" y="736.0"/>
      <point x="836.404006958" y="736.0" type="curve" smooth="yes"/>
      <point x="746.596008301" y="736.0" type="line" smooth="yes"/>
      <point x="709.300994873" y="736.0"/>
      <point x="687.0" y="713.699005127"/>
      <point x="687.0" y="676.404006958" type="curve" smooth="yes"/>
      <point x="687.0" y="283.596008301" type="line" smooth="yes"/>
      <point x="687.0" y="246.300994873"/>
      <point x="709.300994873" y="224.0"/>
    </contour>
    <contour>
      <point x="359.0" y="840.5" type="line"/>
      <point x="359.0" y="842.5" type="line" smooth="yes"/>
      <point x="359.0" y="854.311004639"/>
      <point x="352.348999023" y="861.712997437"/>
      <point x="340.604995728" y="862.970993042" type="curve" smooth="yes"/>
      <point x="247.0" y="873.0" type="line" smooth="yes"/>
      <point x="180.0" y="880.0"/>
      <point x="84.0" y="958.0"/>
      <point x="84.0" y="1198.0" type="curve" smooth="yes"/>
      <point x="84.0" y="1594.0"/>
      <point x="453.0" y="1632.0"/>
      <point x="806.0" y="1632.0" type="curve" smooth="yes"/>
      <point x="1220.0" y="1632.0"/>
      <point x="1442.0" y="1522.0"/>
      <point x="1442.0" y="1238.0" type="curve" smooth="yes"/>
      <point x="1442.0" y="1228.91999817"/>
      <point x="1441.71000671" y="1219.55000305"/>
      <point x="1440.99000549" y="1209.8999939" type="curve" smooth="yes"/>
      <point x="1439.82000732" y="1194.21000671"/>
      <point x="1428.80999756" y="1184.0"/>
      <point x="1413.08000183" y="1184.0" type="curve" smooth="yes"/>
      <point x="968.887008667" y="1184.0" type="line" smooth="yes"/>
      <point x="921.397018433" y="1184.0"/>
      <point x="893.000015259" y="1212.3999939"/>
      <point x="893.000015259" y="1259.88999939" type="curve" smooth="yes"/>
      <point x="893.000015259" y="1332.3999939" type="line" smooth="yes"/>
      <point x="893.000015259" y="1369.69999695"/>
      <point x="870.699020386" y="1392.0"/>
      <point x="833.404022217" y="1392.0" type="curve" smooth="yes"/>
      <point x="746.59602356" y="1392.0" type="line" smooth="yes"/>
      <point x="709.301010132" y="1392.0"/>
      <point x="687.000015259" y="1369.69999695"/>
      <point x="687.000015259" y="1332.3999939" type="curve" smooth="yes"/>
      <point x="687.000015259" y="988.595993042" type="line" smooth="yes"/>
      <point x="687.000015259" y="951.300979614"/>
      <point x="709.301010132" y="928.999984741"/>
      <point x="746.596008301" y="928.999984741" type="curve" smooth="yes"/>
      <point x="836.404006958" y="928.999984741" type="line" smooth="yes"/>
      <point x="873.699020386" y="928.999984741"/>
      <point x="896.000015259" y="951.300979614"/>
      <point x="896.000015259" y="988.595977783" type="curve" smooth="yes"/>
      <point x="896.000015259" y="999.499984741" type="line" smooth="yes"/>
      <point x="896.000015259" y="1042.36997986"/>
      <point x="921.633010864" y="1067.99998474"/>
      <point x="964.500015259" y="1067.99998474" type="curve" smooth="yes"/>
      <point x="1373.50001526" y="1067.99998474" type="line" smooth="yes"/>
      <point x="1416.37001038" y="1067.99998474"/>
      <point x="1442.00001526" y="1042.36997986"/>
      <point x="1442.00001526" y="999.499984741" type="curve" smooth="yes"/>
      <point x="1442.00001526" y="988.595977783" type="line" smooth="yes"/>
      <point x="1442.00001526" y="951.300964355"/>
      <point x="1464.30001831" y="928.999969482"/>
      <point x="1501.60002136" y="928.999969482" type="curve" smooth="yes"/>
      <point x="1518.50001526" y="928.999969482" type="line" smooth="yes"/>
      <point x="1565.12001038" y="928.999969482"/>
      <point x="1593.00001526" y="901.121963501"/>
      <point x="1593.00001526" y="854.499969482" type="curve" smooth="yes"/>
      <point x="1593.00001526" y="810.499969482" type="line" smooth="yes"/>
      <point x="1593.00001526" y="763.877975464"/>
      <point x="1565.12001038" y="735.999969482"/>
      <point x="1518.50001526" y="735.999969482" type="curve" smooth="yes"/>
      <point x="1501.60002136" y="735.999969482" type="line" smooth="yes"/>
      <point x="1464.30001831" y="735.999969482"/>
      <point x="1442.00001526" y="713.698974609"/>
      <point x="1442.00001526" y="676.40397644" type="curve" smooth="yes"/>
      <point x="1442.00001526" y="512.999969482" type="line" smooth="yes"/>
      <point x="1442.00001526" y="74.9999694824"/>
      <point x="1312.00001526" y="-40.0000305176"/>
      <point x="766.000015259" y="-40.0000305176" type="curve" smooth="yes"/>
      <point x="361.000015259" y="-40.0000305176"/>
      <point x="85.0000152588" y="15.9999694824"/>
      <point x="85.0000152588" y="455.999969482" type="curve" smooth="yes"/>
      <point x="85.0000152588" y="568.999969482"/>
      <point x="126.000015259" y="794.999969482"/>
      <point x="247.000015259" y="808.999969482" type="curve" smooth="yes"/>
      <point x="340.605010986" y="819.866973877" type="line" smooth="yes"/>
      <point x="352.354995728" y="821.23097229"/>
      <point x="359.0" y="828.670974731"/>
      <point x="359.0" y="840.499969482" type="curve" smooth="yes"/>
    </contour>
  </outline>
</glyph>
<glyph name="quotesingle" format="1">
  <advance width="629"/>
  <unicode hex="0027"/>
  <outline>
    <contour>
      <point x="335" y="837" type="curve" smooth="yes"/>
      <point x="313" y="837"/>
      <point x="291" y="856"/>
      <point x="280" y="896" type="curve" smooth="yes"/>
      <point x="235" y="1090"/>
      <point x="147" y="1349"/>
      <point x="147" y="1454" type="curve" smooth="yes"/>
      <point x="147" y="1572"/>
      <point x="239" y="1629"/>
      <point x="333" y="1629" type="curve" smooth="yes"/>
      <point x="430" y="1629"/>
      <point x="528" y="1568"/>
      <point x="528" y="1452" type="curve" smooth="yes"/>
      <point x="528" y="1344"/>
      <point x="435" y="1086"/>
      <point x="390" y="896" type="curve" smooth="yes"/>
      <point x="381" y="857"/>
      <point x="357" y="837"/>
    </contour>
  </outline>
</glyph>
<glyph name="parenleft" format="1">
  <advance width="860"/>
  <unicode hex="0028"/>
  <outline>
    <contour>
      <point x="678" y="-169" type="line" smooth="yes"/>
      <point x="253" y="-169"/>
      <point x="51" y="326"/>
      <point x="51" y="827" type="curve" smooth="yes"/>
      <point x="51" y="1328"/>
      <point x="253" y="1841"/>
      <point x="678" y="1841" type="curve" smooth="yes"/>
      <point x="725.5" y="1841" type="line" smooth="yes"/>
      <point x="753.973999023" y="1841"/>
      <point x="771.0" y="1823.97000122"/>
      <point x="771.0" y="1795.5" type="curve" smooth="yes"/>
      <point x="771.0" y="1593.5" type="line" smooth="yes"/>
      <point x="771.0" y="1573.78999329"/>
      <point x="759.212997437" y="1562.0"/>
      <point x="739.5" y="1562.0" type="curve" smooth="yes"/>
      <point x="706.0" y="1562.0" type="line" smooth="yes"/>
      <point x="545.0" y="1562.0"/>
      <point x="453.0" y="1188.0"/>
      <point x="453.0" y="827.0" type="curve" smooth="yes"/>
      <point x="453.0" y="466.0"/>
      <point x="545.0" y="110.0"/>
      <point x="706.0" y="110.0" type="curve" smooth="yes"/>
      <point x="739.5" y="110.0" type="line" smooth="yes"/>
      <point x="759.212997437" y="110.0"/>
      <point x="771.0" y="98.2127075195"/>
      <point x="771.0" y="78.5" type="curve" smooth="yes"/>
      <point x="771.0" y="-123.5" type="line" smooth="yes"/>
      <point x="771.0" y="-151.973999023"/>
      <point x="753.973999023" y="-169.0"/>
      <point x="725.5" y="-169.0" type="curve" smooth="yes"/>
    </contour>
  </outline>
</glyph>
<glyph name="parenright" format="1">
  <advance width="861"/>
  <unicode hex="0029"/>
  <outline>
    <contour>
      <point x="183" y="1841" type="line" smooth="yes"/>
      <point x="608" y="1841"/>
      <point x="810" y="1328"/>
      <point x="810" y="827" type="curve" smooth="yes"/>
      <point x="810" y="326"/>
      <point x="608" y="-169"/>
      <point x="183" y="-169" type="curve" smooth="yes"/>
      <point x="135.5" y="-169" type="line" smooth="yes"/>
      <point x="107.026000977" y="-169"/>
      <point x="90.0" y="-151.973999023"/>
      <point x="90.0" y="-123.5" type="curve" smooth="yes"/>
      <point x="90.0" y="78.5" type="line" smooth="yes"/>
      <point x="90.0" y="98.2127075195"/>
      <point x="101.787002563" y="110.0"/>
      <point x="121.5" y="110.0" type="curve" smooth="yes"/>
      <point x="155.0" y="110.0" type="line" smooth="yes"/>
      <point x="316.0" y="110.0"/>
      <point x="408.0" y="466.0"/>
      <point x="408.0" y="827.0" type="curve" smooth="yes"/>
      <point x="408.0" y="1188.0"/>
      <point x="316.0" y="1562.0"/>
      <point x="155.0" y="1562.0" type="curve" smooth="yes"/>
      <point x="121.5" y="1562.0" type="line" smooth="yes"/>
      <point x="101.787002563" y="1562.0"/>
      <point x="90.0" y="1573.78999329"/>
      <point x="90.0" y="1593.5" type="curve" smooth="yes"/>
      <point x="90.0" y="1795.5" type="line" smooth="yes"/>
      <point x="90.0" y="1823.97000122"/>
      <point x="107.026000977" y="1841.0"/>
      <point x="135.5" y="1841.0" type="curve" smooth="yes"/>
    </contour>
  </outline>
</glyph>
<glyph name="asterisk" format="1">
  <advance width="1321"/>
  <unicode hex="002A"/>
  <outline>
    <contour>
      <point x="877.0" y="430.0" type="curve" smooth="yes"/>
      <point x="838" y="430"/>
      <point x="800" y="447"/>
      <point x="775" y="489" type="curve" smooth="yes"/>
      <point x="743.966003418" y="540.723999023"/>
      <point x="711.445007324" y="662.302993774"/>
      <point x="678.720001221" y="782.628005981" type="curve" smooth="yes"/>
      <point x="672.667999268" y="804.880004883"/>
      <point x="653.332992554" y="804.830001831"/>
      <point x="647.39100647" y="782.533004761" type="curve" smooth="yes"/>
      <point x="591.434005737" y="572.56199646"/>
      <point x="562.052001953" y="430.0"/>
      <point x="450.0" y="430.0" type="curve" smooth="yes"/>
      <point x="368.0" y="430.0"/>
      <point x="282.0" y="502.0"/>
      <point x="282.0" y="581.0" type="curve" smooth="yes"/>
      <point x="282.0" y="650.057006836"/>
      <point x="383.347000122" y="743.244995117"/>
      <point x="507.410995483" y="858.399002075" type="curve" smooth="yes"/>
      <point x="523.378005981" y="873.218994141"/>
      <point x="514.619003296" y="888.792999268"/>
      <point x="493.645996094" y="882.893997192" type="curve" smooth="yes"/>
      <point x="375.248001099" y="849.587997437"/>
      <point x="257.380996704" y="817.0"/>
      <point x="198.0" y="817.0" type="curve" smooth="yes"/>
      <point x="113.0" y="817.0"/>
      <point x="73.0" y="889.0"/>
      <point x="73.0" y="962.0" type="curve" smooth="yes"/>
      <point x="73.0" y="1037.0"/>
      <point x="116.0" y="1112.0"/>
      <point x="199.0" y="1112.0" type="curve" smooth="yes"/>
      <point x="259.964004517" y="1112.0"/>
      <point x="376.960006714" y="1077.32000732"/>
      <point x="493.645996094" y="1043.47000122" type="curve" smooth="yes"/>
      <point x="514.845993042" y="1037.32000732"/>
      <point x="523.910003662" y="1053.08000183"/>
      <point x="507.981002808" y="1068.30999756" type="curve" smooth="yes"/>
      <point x="380.255004883" y="1190.47999573"/>
      <point x="282.0" y="1282.50999451"/>
      <point x="282.0" y="1351.0" type="curve" smooth="yes"/>
      <point x="282.0" y="1431.0"/>
      <point x="369.0" y="1497.0"/>
      <point x="450.0" y="1497.0" type="curve" smooth="yes"/>
      <point x="490.0" y="1497.0"/>
      <point x="529.0" y="1480.0"/>
      <point x="553.0" y="1440.0" type="curve" smooth="yes"/>
      <point x="585.804992676" y="1384.75"/>
      <point x="617.119003296" y="1260.19000244"/>
      <point x="648.229003906" y="1137.74000549" type="curve" smooth="yes"/>
      <point x="653.785003662" y="1115.86999512"/>
      <point x="672.445007324" y="1115.82000732"/>
      <point x="678.100006104" y="1137.63000488" type="curve" smooth="yes"/>
      <point x="709.863006592" y="1260.11999512"/>
      <point x="741.186004639" y="1384.72999573"/>
      <point x="774.0" y="1440.0" type="curve" smooth="yes"/>
      <point x="798.0" y="1480.0"/>
      <point x="836.0" y="1497.0"/>
      <point x="877.0" y="1497.0" type="curve" smooth="yes"/>
      <point x="957.0" y="1497.0"/>
      <point x="1045.0" y="1430.0"/>
      <point x="1045.0" y="1351.0" type="curve" smooth="yes"/>
      <point x="1045.0" y="1282.58000183"/>
      <point x="944.5" y="1189.83999634"/>
      <point x="817.925003052" y="1068.41999817" type="curve" smooth="yes"/>
      <point x="801.972000122" y="1053.11000061"/>
      <point x="811.083999634" y="1037.32000732"/>
      <point x="832.307998657" y="1043.47000122" type="curve" smooth="yes"/>
      <point x="949.235992432" y="1077.33000183"/>
      <point x="1067.02000427" y="1112.0"/>
      <point x="1128.0" y="1112.0" type="curve" smooth="yes"/>
      <point x="1211.0" y="1112.0"/>
      <point x="1254.0" y="1037.0"/>
      <point x="1254.0" y="962.0" type="curve" smooth="yes"/>
      <point x="1254.0" y="889.0"/>
      <point x="1214.0" y="817.0"/>
      <point x="1128.0" y="817.0" type="curve" smooth="yes"/>
      <point x="1068.63999939" y="817.0"/>
      <point x="950.794998169" y="850.309005737"/>
      <point x="832.430999756" y="883.175003052" type="curve" smooth="yes"/>
      <point x="811.276000977" y="889.048995972"/>
      <point x="802.412994385" y="873.240005493"/>
      <point x="818.490997314" y="858.229003906" type="curve" smooth="yes"/>
      <point x="941.932006836" y="742.98399353"/>
      <point x="1044.0" y="649.132995605"/>
      <point x="1044.0" y="581.0" type="curve" smooth="yes"/>
      <point x="1044.0" y="500.0"/>
      <point x="957.0" y="430.0"/>
    </contour>
  </outline>
</glyph>
<glyph name="comma" format="1">
  <advance width="711"/>
  <unicode hex="002C"/>
  <outline>
    <contour>
      <point x="262.190994263" y="14.5872039795" type="line"/>
      <point x="194.213989258" y="42.5593109131"/>
      <point x="140.999984741" y="107.526016235"/>
      <point x="140.999984741" y="209.000015259" type="curve" smooth="yes"/>
      <point x="140.999984741" y="342.000015259"/>
      <point x="242.999984741" y="409.000015259"/>
      <point x="344.999984741" y="409.000015259" type="curve" smooth="yes"/>
      <point x="488.999984741" y="409.000015259"/>
      <point x="554.999984741" y="298.000015259"/>
      <point x="554.999984741" y="169.000015259" type="curve" smooth="yes"/>
      <point x="554.999984741" y="-14.9999847412"/>
      <point x="428.999984741" y="-233.999984741"/>
      <point x="207.999984741" y="-233.999984741" type="curve" smooth="yes"/>
      <point x="200.561981201" y="-233.999984741"/>
      <point x="192.842987061" y="-233.717987061"/>
      <point x="184.990982056" y="-233.152984619" type="curve" smooth="yes"/>
      <point x="172.168991089" y="-232.23197937"/>
      <point x="163.999984741" y="-223.453979492"/>
      <point x="163.999984741" y="-210.598983765" type="curve" smooth="yes"/>
      <point x="163.999984741" y="-182.904983521" type="line" smooth="yes"/>
      <point x="163.999984741" y="-142.474990845"/>
      <point x="176.586990356" y="-125.887985229"/>
      <point x="217.002990723" y="-114.593978882" type="curve" smooth="yes"/>
      <point x="240.537979126" y="-108.017990112"/>
      <point x="261.711990356" y="-97.1564788818"/>
      <point x="278.678985596" y="-82.3520812988" type="curve" smooth="yes"/>
      <point x="307.959991455" y="-56.8033905029"/>
      <point x="298.655990601" y="-0.418212890625"/>
      <point x="262.190979004" y="14.5872192383" type="curve"/>
    </contour>
  </outline>
</glyph>
<glyph name="zero" format="1">
  <advance width="1469"/>
  <unicode hex="0030"/>
  <outline>
    <contour>
      <point x="653" y="1299.3999939" type="line"/>
      <point x="653" y="292.595993042" type="line" smooth="yes"/>
      <point x="653" y="255.300979614"/>
      <point x="675.300994873" y="232.999984741"/>
      <point x="712.595993042" y="232.999984741" type="curve" smooth="yes"/>
      <point x="759.403991699" y="232.999984741" type="line" smooth="yes"/>
      <point x="796.699005127" y="232.999984741"/>
      <point x="819.0" y="255.300979614"/>
      <point x="819.0" y="292.595977783" type="curve" smooth="yes"/>
      <point x="819.0" y="1299.39997864" type="line" smooth="yes"/>
      <point x="819.0" y="1336.69998169"/>
      <point x="796.699005127" y="1358.99998474"/>
      <point x="759.404006958" y="1358.99998474" type="curve" smooth="yes"/>
      <point x="712.596008301" y="1358.99998474" type="line" smooth="yes"/>
      <point x="675.300994873" y="1358.99998474"/>
      <point x="653.0" y="1336.69998169"/>
      <point x="653.0" y="1299.39997864" type="curve"/>
    </contour>
    <contour>
      <point x="1383.0" y="351.999984741" type="line" smooth="yes"/>
      <point x="1383.0" y="-25.0000152588"/>
      <point x="1051.0" y="-39.0000152588"/>
      <point x="739.0" y="-39.0000152588" type="curve" smooth="yes"/>
      <point x="422.0" y="-39.0000152588"/>
      <point x="89.0" y="-14.0000152588"/>
      <point x="89.0" y="351.999984741" type="curve" smooth="yes"/>
      <point x="89.0" y="1241.99998474" type="line" smooth="yes"/>
      <point x="89.0" y="1609.99998474"/>
      <point x="429.0" y="1632.99998474"/>
      <point x="738.0" y="1632.99998474" type="curve" smooth="yes"/>
      <point x="1056.0" y="1632.99998474"/>
      <point x="1383.0" y="1602.99998474"/>
      <point x="1383.0" y="1241.99998474" type="curve" smooth="yes"/>
    </contour>
  </outline>
</glyph>
<glyph name="five" format="1">
  <advance width="1429"/>
  <unicode hex="0035"/>
  <outline>
    <contour>
      <point x="648.535995483" y="1037.57000732" type="line"/>
      <point x="720.240982056" y="1086.6000061"/>
      <point x="826.12298584" y="1105.0"/>
      <point x="954.999984741" y="1105.0" type="curve" smooth="yes"/>
      <point x="1280.99998474" y="1105.0"/>
      <point x="1363.99998474" y="881.0"/>
      <point x="1363.99998474" y="553.0" type="curve" smooth="yes"/>
      <point x="1363.99998474" y="87.0"/>
      <point x="1186.99998474" y="-39.0"/>
      <point x="713.999984741" y="-39.0" type="curve" smooth="yes"/>
      <point x="368.999984741" y="-39.0"/>
      <point x="112.999984741" y="30.0"/>
      <point x="74.9999847412" y="331.0" type="curve" smooth="yes"/>
      <point x="71.8827819824" y="354.378997803"/>
      <point x="69.575378418" y="378.567993164"/>
      <point x="68.0776824951" y="403.425994873" type="curve" smooth="yes"/>
      <point x="65.5334777832" y="445.652999878"/>
      <point x="92.2243804932" y="474.0"/>
      <point x="134.527984619" y="474.0" type="curve" smooth="yes"/>
      <point x="540.112991333" y="474.0" type="line" smooth="yes"/>
      <point x="587.602981567" y="474.0"/>
      <point x="615.999984741" y="445.602996826"/>
      <point x="615.999984741" y="398.113006592" type="curve" smooth="yes"/>
      <point x="615.999984741" y="295.596008301" type="line" smooth="yes"/>
      <point x="615.999984741" y="258.300994873"/>
      <point x="638.300979614" y="236.0"/>
      <point x="675.595977783" y="236.0" type="curve" smooth="yes"/>
      <point x="737.40397644" y="236.0" type="line" smooth="yes"/>
      <point x="774.698989868" y="236.0"/>
      <point x="796.999984741" y="258.300994873"/>
      <point x="796.999984741" y="295.595993042" type="curve" smooth="yes"/>
      <point x="796.999984741" y="778.403991699" type="line" smooth="yes"/>
      <point x="796.999984741" y="815.699005127"/>
      <point x="774.698989868" y="838.0"/>
      <point x="737.403991699" y="838.0" type="curve" smooth="yes"/>
      <point x="675.595993042" y="838.0" type="line" smooth="yes"/>
      <point x="638.300979614" y="838.0"/>
      <point x="615.999984741" y="815.699005127"/>
      <point x="615.999984741" y="778.404006958" type="curve" smooth="yes"/>
      <point x="615.999984741" y="730.887008667" type="line" smooth="yes"/>
      <point x="615.999984741" y="683.397018433"/>
      <point x="587.602981567" y="655.000015259"/>
      <point x="540.112991333" y="655.000015259" type="curve" smooth="yes"/>
      <point x="158.886993408" y="655.000015259" type="line" smooth="yes"/>
      <point x="111.962997437" y="655.000015259"/>
      <point x="84.628692627" y="683.917022705"/>
      <point x="87.2673950195" y="730.76701355" type="curve" smooth="yes"/>
      <point x="131.733001709" y="1520.23001099" type="line" smooth="yes"/>
      <point x="134.432998657" y="1568.16999817"/>
      <point x="163.873001099" y="1596.0"/>
      <point x="211.886993408" y="1596.0" type="curve" smooth="yes"/>
      <point x="1153.11000061" y="1596.0" type="line" smooth="yes"/>
      <point x="1200.60002136" y="1596.0"/>
      <point x="1229.00001526" y="1567.6000061"/>
      <point x="1229.00001526" y="1520.11000061" type="curve" smooth="yes"/>
      <point x="1229.00001526" y="1374.88999939" type="line" smooth="yes"/>
      <point x="1229.00001526" y="1327.39997864"/>
      <point x="1200.60002136" y="1298.99998474"/>
      <point x="1153.11001587" y="1298.99998474" type="curve" smooth="yes"/>
      <point x="697.596008301" y="1298.99998474" type="line" smooth="yes"/>
      <point x="659.509994507" y="1298.99998474"/>
      <point x="635.585998535" y="1277.62998962"/>
      <point x="631.311004639" y="1239.77998352" type="curve" smooth="yes"/>
      <point x="611.018997192" y="1060.13998413" type="line" smooth="yes"/>
      <point x="607.891983032" y="1032.4599762"/>
      <point x="625.538986206" y="1021.83996582"/>
      <point x="648.535980225" y="1037.56997681" type="curve"/>
    </contour>
  </outline>
</glyph>
<glyph name="six" format="1">
  <advance width="1448"/>
  <unicode hex="0036"/>
  <outline>
    <contour>
      <point x="636.0" y="738.404006958" type="curve" smooth="yes"/>
      <point x="636" y="295.596008301" type="line" smooth="yes"/>
      <point x="636" y="258.300994873"/>
      <point x="658.300994873" y="236.0"/>
      <point x="695.595993042" y="236.0" type="curve" smooth="yes"/>
      <point x="756.403991699" y="236.0" type="line" smooth="yes"/>
      <point x="793.699005127" y="236.0"/>
      <point x="816.0" y="258.300994873"/>
      <point x="816.0" y="295.595993042" type="curve" smooth="yes"/>
      <point x="816.0" y="738.403991699" type="line" smooth="yes"/>
      <point x="816.0" y="775.699005127"/>
      <point x="793.699005127" y="798.0"/>
      <point x="756.404006958" y="798.0" type="curve" smooth="yes"/>
      <point x="695.596008301" y="798.0" type="line" smooth="yes"/>
      <point x="658.300994873" y="798.0"/>
      <point x="636.0" y="775.699005127"/>
    </contour>
    <contour>
      <point x="1382.0" y="523.0" type="line"/>
      <point x="1382.0" y="62.0"/>
      <point x="1130.0" y="-36.0"/>
      <point x="718.0" y="-39.0" type="curve" smooth="yes"/>
      <point x="312.0" y="-39.0"/>
      <point x="85.0" y="93.0"/>
      <point x="85.0" y="476.0" type="curve" smooth="yes"/>
      <point x="85.0" y="1056.0" type="line" smooth="yes"/>
      <point x="85.0" y="1496.0"/>
      <point x="312.0" y="1632.0"/>
      <point x="717.0" y="1632.0" type="curve" smooth="yes"/>
      <point x="966.0" y="1632.0"/>
      <point x="1329.0" y="1608.0"/>
      <point x="1329.0" y="1237.0" type="curve" smooth="yes"/>
      <point x="1329.0" y="1222.66999817"/>
      <point x="1329.49000549" y="1209.32000732"/>
      <point x="1329.97999573" y="1196.46000671" type="curve" smooth="yes"/>
      <point x="1330.88000488" y="1173.07000732"/>
      <point x="1316.38000488" y="1158.0"/>
      <point x="1292.97000122" y="1158.0" type="curve" smooth="yes"/>
      <point x="875.887008667" y="1158.0" type="line" smooth="yes"/>
      <point x="828.397018433" y="1158.0"/>
      <point x="800.000015259" y="1186.3999939"/>
      <point x="800.000015259" y="1233.88999939" type="curve" smooth="yes"/>
      <point x="800.000015259" y="1309.3999939" type="line" smooth="yes"/>
      <point x="800.000015259" y="1346.69999695"/>
      <point x="777.699020386" y="1369.0"/>
      <point x="740.404022217" y="1369.0" type="curve" smooth="yes"/>
      <point x="696.59602356" y="1369.0" type="line" smooth="yes"/>
      <point x="659.301010132" y="1369.0"/>
      <point x="637.000015259" y="1346.69999695"/>
      <point x="637.000015259" y="1309.3999939" type="curve" smooth="yes"/>
      <point x="637.000015259" y="1127.59999084" type="line" smooth="yes"/>
      <point x="637.000015259" y="1090.29998779"/>
      <point x="659.301010132" y="1067.99998474"/>
      <point x="696.596008301" y="1067.99998474" type="curve" smooth="yes"/>
      <point x="761.000015259" y="1067.99998474" type="line" smooth="yes"/>
      <point x="1223.00001526" y="1067.99998474"/>
      <point x="1382.00001526" y="940.999984741"/>
      <point x="1382.00001526" y="522.999984741" type="curve"/>
    </contour>
  </outline>
</glyph>
<glyph name="seven" format="1">
  <advance width="991"/>
  <unicode hex="0037"/>
  <outline>
    <contour>
      <point x="115.886993408" y="1595" type="line"/>
      <point x="866.112991333" y="1595" type="line" smooth="yes"/>
      <point x="913.602981567" y="1595"/>
      <point x="941.999984741" y="1566.6000061"/>
      <point x="941.999984741" y="1519.11000061" type="curve" smooth="yes"/>
      <point x="941.999984741" y="1426.88999939" type="line" smooth="yes"/>
      <point x="941.999984741" y="1384.14997864"/>
      <point x="936.530990601" y="1318.29998779"/>
      <point x="929.478988647" y="1276.14997864" type="curve" smooth="yes"/>
      <point x="728.520996094" y="74.8472747803" type="line" smooth="yes"/>
      <point x="720.449996948" y="26.6036834717"/>
      <point x="689.026992798" y="-1.52587890625e-05"/>
      <point x="640.113006592" y="-1.52587890625e-05" type="curve" smooth="yes"/>
      <point x="187.887008667" y="-1.52587890625e-05" type="line" smooth="yes"/>
      <point x="142.146011353" y="-1.52587890625e-05"/>
      <point x="116.87802124" y="29.7491912842"/>
      <point x="124.278015137" y="74.8873901367" type="curve" smooth="yes"/>
      <point x="324.358016968" y="1295.18998718" type="line" smooth="yes"/>
      <point x="330.169021606" y="1330.63998413"/>
      <point x="310.325012207" y="1353.99998474"/>
      <point x="274.404022217" y="1353.99998474" type="curve" smooth="yes"/>
      <point x="115.887023926" y="1353.99998474" type="line" smooth="yes"/>
      <point x="68.3970336914" y="1353.99998474"/>
      <point x="40.0000305176" y="1382.39997864"/>
      <point x="40.0000305176" y="1429.88998413" type="curve" smooth="yes"/>
      <point x="40.0000305176" y="1519.10998535" type="line" smooth="yes"/>
      <point x="40.0000305176" y="1566.6000061"/>
      <point x="68.3970336914" y="1595.0"/>
      <point x="115.887023926" y="1595.0" type="curve"/>
    </contour>
  </outline>
</glyph>
<glyph name="nine" format="1">
  <advance width="1445"/>
  <unicode hex="0039"/>
  <outline>
    <contour>
      <point x="799" y="838.595993042" type="line"/>
      <point x="799" y="1298.3999939" type="line" smooth="yes"/>
      <point x="799" y="1335.69999695"/>
      <point x="776.699005127" y="1358.0"/>
      <point x="739.404006958" y="1358.0" type="curve" smooth="yes"/>
      <point x="687.596008301" y="1358.0" type="line" smooth="yes"/>
      <point x="650.300994873" y="1358.0"/>
      <point x="628.0" y="1335.69999695"/>
      <point x="628.0" y="1298.3999939" type="curve" smooth="yes"/>
      <point x="628.0" y="838.595993042" type="line" smooth="yes"/>
      <point x="628.0" y="801.300979614"/>
      <point x="650.300994873" y="778.999984741"/>
      <point x="687.595993042" y="778.999984741" type="curve" smooth="yes"/>
      <point x="739.403991699" y="778.999984741" type="line" smooth="yes"/>
      <point x="776.699005127" y="778.999984741"/>
      <point x="799.0" y="801.300979614"/>
      <point x="799.0" y="838.595977783" type="curve" smooth="yes"/>
    </contour>
    <contour>
      <point x="576.0" y="507.999984741" type="line" smooth="yes"/>
      <point x="178.0" y="507.999984741"/>
      <point x="68.0" y="687.999984741"/>
      <point x="68.0" y="1070.99998474" type="curve" smooth="yes"/>
      <point x="68.0" y="1550.99998474"/>
      <point x="325.0" y="1628.99998474"/>
      <point x="722.0" y="1628.99998474" type="curve" smooth="yes"/>
      <point x="1130.0" y="1628.99998474"/>
      <point x="1365.0" y="1507.99998474"/>
      <point x="1365.0" y="1115.99998474" type="curve" smooth="yes"/>
      <point x="1365.0" y="519.999984741" type="line" smooth="yes"/>
      <point x="1365.0" y="83.9999847412"/>
      <point x="1131.0" y="-40.0000152588"/>
      <point x="733.0" y="-40.0000152588" type="curve" smooth="yes"/>
      <point x="490.0" y="-40.0000152588"/>
      <point x="124.0" y="-1.52587890625e-05"/>
      <point x="115.0" y="327.999984741" type="curve" smooth="yes"/>
      <point x="114.505004883" y="344.833984375"/>
      <point x="114.255004883" y="361.177978516"/>
      <point x="114.128997803" y="377.030990601" type="curve" smooth="yes"/>
      <point x="113.895996094" y="406.251983643"/>
      <point x="131.503997803" y="423.999984741"/>
      <point x="160.725006104" y="423.999984741" type="curve" smooth="yes"/>
      <point x="569.113006592" y="423.999984741" type="line" smooth="yes"/>
      <point x="616.602996826" y="423.999984741"/>
      <point x="645.0" y="395.602981567"/>
      <point x="645.0" y="348.112991333" type="curve" smooth="yes"/>
      <point x="645.0" y="284.595993042" type="line" smooth="yes"/>
      <point x="645.0" y="247.300979614"/>
      <point x="667.300994873" y="224.999984741"/>
      <point x="704.595993042" y="224.999984741" type="curve" smooth="yes"/>
      <point x="743.403991699" y="224.999984741" type="line" smooth="yes"/>
      <point x="780.699005127" y="224.999984741"/>
      <point x="803.0" y="247.300979614"/>
      <point x="803.0" y="284.595977783" type="curve" smooth="yes"/>
      <point x="803.0" y="448.40397644" type="line" smooth="yes"/>
      <point x="803.0" y="485.698989868"/>
      <point x="780.699005127" y="507.999984741"/>
      <point x="743.404006958" y="507.999984741" type="curve" smooth="yes"/>
    </contour>
  </outline>
</glyph>
<glyph name="question" format="1">
  <advance width="955"/>
  <unicode hex="003F"/>
  <outline>
    <contour>
      <point x="922.977005005" y="1313" type="line"/>
      <point x="922.977020264" y="1009"/>
      <point x="506.977020264" y="912"/>
      <point x="466.977020264" y="567" type="curve" smooth="yes"/>
      <point x="461.977020264" y="524"/>
      <point x="431.977020264" y="510"/>
      <point x="404.977020264" y="510" type="curve" smooth="yes"/>
      <point x="363.977020264" y="510"/>
      <point x="343.977020264" y="536"/>
      <point x="343.977020264" y="582" type="curve" smooth="yes"/>
      <point x="343.977020264" y="814"/>
      <point x="461.977020264" y="979"/>
      <point x="488.977020264" y="1123" type="curve"/>
      <point x="489.977020264" y="1132"/>
      <point x="490.977020264" y="1141"/>
      <point x="490.977020264" y="1150" type="curve" smooth="yes"/>
      <point x="490.977020264" y="1212"/>
      <point x="451.977020264" y="1264"/>
      <point x="348.977020264" y="1264" type="curve" smooth="yes"/>
      <point x="315.743011475" y="1264"/>
      <point x="275.317016602" y="1257.28999329"/>
      <point x="226.042022705" y="1241.53999329" type="curve" smooth="yes"/>
      <point x="181.653015137" y="1227.36000061"/>
      <point x="151.661010742" y="1246.97000122"/>
      <point x="146.851013184" y="1293.32000732" type="curve" smooth="yes"/>
      <point x="126.633010864" y="1488.20001221" type="line" smooth="yes"/>
      <point x="121.707015991" y="1535.67999268"/>
      <point x="145.722015381" y="1570.99000549"/>
      <point x="191.696014404" y="1583.86000061" type="curve" smooth="yes"/>
      <point x="311.251022339" y="1617.32000732"/>
      <point x="409.70401001" y="1632.0"/>
      <point x="489.977020264" y="1632.0" type="curve" smooth="yes"/>
      <point x="824.977020264" y="1632.0"/>
      <point x="922.977020264" y="1473.0"/>
      <point x="922.977020264" y="1313.0" type="curve"/>
    </contour>
    <contour>
      <point x="406.977020264" y="-39.0" type="line" smooth="yes"/>
      <point x="304.977035522" y="-39.0"/>
      <point x="202.977035522" y="31.0"/>
      <point x="202.977035522" y="171.0" type="curve" smooth="yes"/>
      <point x="202.977035522" y="311.0"/>
      <point x="304.977035522" y="381.0"/>
      <point x="406.977035522" y="381.0" type="curve" smooth="yes"/>
      <point x="508.977035522" y="381.0"/>
      <point x="610.977035522" y="311.0"/>
      <point x="610.977035522" y="171.0" type="curve" smooth="yes"/>
      <point x="610.977035522" y="31.0"/>
      <point x="508.977035522" y="-39.0"/>
      <point x="406.977035522" y="-39.0" type="curve" smooth="yes"/>
    </contour>
  </outline>
</glyph>
<glyph name="A" format="1">
  <advance width="1573.66666666"/>
  <unicode hex="0041"/>
  <outline>
    <contour>
      <point x="868.833333333" y="615" type="curve" smooth="yes"/>
      <point x="818.833333333" y="1085" type="line"/>
      <point x="794.833333333" y="1265" type="line"/>
      <point x="794.833333333" y="1271"/>
      <point x="789.833333333" y="1273"/>
      <point x="784.833333333" y="1273" type="curve" smooth="yes"/>
      <point x="779.833333333" y="1273"/>
      <point x="774.833333333" y="1271"/>
      <point x="773.833333333" y="1265" type="curve" smooth="yes"/>
      <point x="751.833333333" y="1085" type="line"/>
      <point x="703.833333333" y="615" type="line" smooth="yes"/>
      <point x="702.833333333" y="607"/>
      <point x="701.833333333" y="600"/>
      <point x="701.833333333" y="595" type="curve" smooth="yes"/>
      <point x="701.833333333" y="578"/>
      <point x="709.833333333" y="576"/>
      <point x="737.833333333" y="576" type="curve" smooth="yes"/>
      <point x="835.833333333" y="576" type="line" smooth="yes"/>
      <point x="863.833333333" y="576"/>
      <point x="870.833333333" y="578"/>
      <point x="870.833333333" y="594" type="curve" smooth="yes"/>
      <point x="870.833333333" y="599"/>
      <point x="869.833333333" y="606"/>
    </contour>
    <contour>
      <point x="635.833333333" y="75" type="line" smooth="yes"/>
      <point x="628.833333333" y="27"/>
      <point x="597.833333333" y="0"/>
      <point x="548.833333333" y="0" type="curve" smooth="yes"/>
      <point x="114.833333333" y="0" type="line" smooth="yes"/>
      <point x="74.8333333333" y="0"/>
      <point x="50.8333333333" y="23"/>
      <point x="50.8333333333" y="58" type="curve" smooth="yes"/>
      <point x="50.8333333333" y="64"/>
      <point x="72.8333333333" y="487"/>
      <point x="276.833333333" y="1520" type="curve" smooth="yes"/>
      <point x="286.833333333" y="1570"/>
      <point x="317.833333333" y="1595"/>
      <point x="366.833333333" y="1595" type="curve" smooth="yes"/>
      <point x="1201.83333333" y="1595" type="line" smooth="yes"/>
      <point x="1250.83333333" y="1595"/>
      <point x="1281.83333333" y="1569"/>
      <point x="1291.83333333" y="1520" type="curve" smooth="yes"/>
      <point x="1498.83333333" y="496"/>
      <point x="1522.83333333" y="63"/>
      <point x="1522.83333333" y="58" type="curve" smooth="yes"/>
      <point x="1522.83333333" y="23"/>
      <point x="1498.83333333" y="0"/>
      <point x="1458.83333333" y="0" type="curve" smooth="yes"/>
      <point x="1023.83333333" y="0" type="line" smooth="yes"/>
      <point x="974.833333333" y="0"/>
      <point x="943.833333333" y="27"/>
      <point x="936.833333333" y="75" type="curve" smooth="yes"/>
      <point x="902.833333333" y="327" type="line" smooth="yes"/>
      <point x="896.833333333" y="365"/>
      <point x="902.833333333" y="366"/>
      <point x="863.833333333" y="366" type="curve" smooth="yes"/>
      <point x="709.833333333" y="366" type="line" smooth="yes"/>
      <point x="670.833333333" y="366"/>
      <point x="676.833333333" y="365"/>
      <point x="670.833333333" y="327" type="curve" smooth="yes"/>
    </contour>
  </outline>
</glyph>
<glyph name="B" format="1">
  <advance width="1586.42857143"/>
  <unicode hex="0042"/>
  <outline>
    <contour>
      <point x="795.0" y="0" type="line" smooth="yes"/>
      <point x="1267.0" y="0"/>
      <point x="1447.0" y="87"/>
      <point x="1447.0" y="461" type="curve"/>
      <point x="1447.0" y="669"/>
      <point x="1326.0" y="794"/>
      <point x="1131.0" y="828" type="curve"/>
      <point x="1315.0" y="866"/>
      <point x="1411.0" y="991"/>
      <point x="1411.0" y="1189" type="curve"/>
      <point x="1411.0" y="1521"/>
      <point x="1189.0" y="1595"/>
      <point x="777.0" y="1595" type="curve" smooth="yes"/>
      <point x="350.0" y="1595" type="line"/>
      <point x="350.0" y="1441" type="line"/>
      <point x="777.0" y="1441" type="line" smooth="yes"/>
      <point x="1104.0" y="1441"/>
      <point x="1225.0" y="1419"/>
      <point x="1225.0" y="1189" type="curve"/>
      <point x="1225.0" y="910"/>
      <point x="1095.0" y="900"/>
      <point x="781.0" y="900" type="curve" smooth="yes"/>
      <point x="350.0" y="900" type="line"/>
      <point x="350.0" y="752" type="line"/>
      <point x="795.0" y="752" type="line" smooth="yes"/>
      <point x="1131.0" y="752"/>
      <point x="1256.0" y="713"/>
      <point x="1256.0" y="469" type="curve"/>
      <point x="1256.0" y="174"/>
      <point x="1118.0" y="150"/>
      <point x="795.0" y="150" type="curve" smooth="yes"/>
      <point x="351.0" y="150" type="line"/>
      <point x="351.0" y="0" type="line"/>
    </contour>
    <component base="uc_main_stem" xOffset="17.0"/>
  </outline>
</glyph>
<glyph name="C" format="1">
  <advance width="1855.28571429"/>
  <unicode hex="0043"/>
  <outline>
    <contour>
      <point x="1496" y="147" type="curve"/>
      <point x="1508" y="154"/>
      <point x="1513" y="168"/>
      <point x="1513" y="184" type="curve" smooth="yes"/>
      <point x="1513" y="229"/>
      <point x="1480" y="278"/>
      <point x="1442" y="278" type="curve" smooth="yes"/>
      <point x="1437" y="278"/>
      <point x="1431" y="277"/>
      <point x="1426" y="273" type="curve"/>
      <point x="1308" y="204"/>
      <point x="1176" y="113"/>
      <point x="931" y="113" type="curve"/>
      <point x="523" y="113"/>
      <point x="422" y="212"/>
      <point x="422" y="648" type="curve" smooth="yes"/>
      <point x="422" y="986" type="line" smooth="yes"/>
      <point x="422" y="1348"/>
      <point x="587" y="1475"/>
      <point x="980" y="1475" type="curve"/>
      <point x="1185" y="1475"/>
      <point x="1298" y="1411"/>
      <point x="1416" y="1342" type="curve"/>
      <point x="1421" y="1339"/>
      <point x="1427" y="1337"/>
      <point x="1432" y="1337" type="curve" smooth="yes"/>
      <point x="1470" y="1337"/>
      <point x="1513" y="1404"/>
      <point x="1513" y="1450" type="curve" smooth="yes"/>
      <point x="1513" y="1466"/>
      <point x="1508" y="1479"/>
      <point x="1496" y="1487" type="curve"/>
      <point x="1405" y="1553"/>
      <point x="1273" y="1653"/>
      <point x="933" y="1653" type="curve" smooth="yes"/>
      <point x="402.639731449" y="1653.0"/>
      <point x="231" y="1436"/>
      <point x="231" y="917" type="curve" smooth="yes"/>
      <point x="231" y="660" type="line" smooth="yes"/>
      <point x="231" y="141"/>
      <point x="402.639731449" y="-38.0"/>
      <point x="933" y="-38" type="curve" smooth="yes"/>
      <point x="1273" y="-38"/>
      <point x="1404" y="80"/>
    </contour>
  </outline>
</glyph>
<glyph name="D" format="1">
  <advance width="1727.0"/>
  <unicode hex="0044"/>
  <outline>
    <contour>
      <point x="333.0" y="1439" type="line"/>
      <point x="868.0" y="1439" type="line" smooth="yes"/>
      <point x="1212.0" y="1439"/>
      <point x="1333.0" y="1330.0"/>
      <point x="1333.0" y="1035.0" type="curve" smooth="yes"/>
      <point x="1333.0" y="605.0" type="line" smooth="yes"/>
      <point x="1333.0" y="248.0"/>
      <point x="1201.0" y="152"/>
      <point x="868.0" y="152" type="curve" smooth="yes"/>
      <point x="334.0" y="152.0" type="line"/>
      <point x="334.0" y="0.0" type="line"/>
      <point x="868.0" y="0" type="line" smooth="yes"/>
      <point x="1273.0" y="0"/>
      <point x="1524.0" y="143.0"/>
      <point x="1524.0" y="595.0" type="curve" smooth="yes"/>
      <point x="1524.0" y="1032.0" type="line" smooth="yes"/>
      <point x="1524.0" y="1458.0"/>
      <point x="1246.0" y="1595"/>
      <point x="868.0" y="1595" type="curve" smooth="yes"/>
      <point x="333.0" y="1595" type="line"/>
    </contour>
    <component base="uc_main_stem" xOffset="17.0"/>
  </outline>
</glyph>
<glyph name="E" format="1">
  <advance width="1324.0"/>
  <unicode hex="0045"/>
  <outline>
    <contour>
      <point x="1112.0" y="737"/>
      <point x="1140.0" y="745"/>
      <point x="1140.0" y="793" type="curve" smooth="yes"/>
      <point x="1140.0" y="838" type="line" smooth="yes"/>
      <point x="1140.0" y="886"/>
      <point x="1112.0" y="894"/>
      <point x="1064.0" y="894" type="curve" smooth="yes"/>
      <point x="333.0" y="894" type="line"/>
      <point x="333.0" y="737" type="line" smooth="yes"/>
      <point x="1064.0" y="737" type="line" smooth="yes"/>
    </contour>
    <contour>
      <point x="1115.0" y="1431" type="line" smooth="yes"/>
      <point x="1163.0" y="1431"/>
      <point x="1191.0" y="1445"/>
      <point x="1191.0" y="1493" type="curve" smooth="yes"/>
      <point x="1191.0" y="1533" type="line" smooth="yes"/>
      <point x="1191.0" y="1581"/>
      <point x="1163.0" y="1595"/>
      <point x="1115.0" y="1595" type="curve" smooth="yes"/>
      <point x="342.0" y="1595" type="line"/>
      <point x="342.0" y="1431" type="line" smooth="yes"/>
    </contour>
    <contour>
      <point x="1126.0" y="0" type="line" smooth="yes"/>
      <point x="1174.0" y="0"/>
      <point x="1202.0" y="14"/>
      <point x="1202.0" y="62" type="curve" smooth="yes"/>
      <point x="1202.0" y="102" type="line" smooth="yes"/>
      <point x="1202.0" y="150"/>
      <point x="1174.0" y="164"/>
      <point x="1126.0" y="164" type="curve" smooth="yes"/>
      <point x="342.0" y="164" type="line"/>
      <point x="342.0" y="0" type="line" smooth="yes"/>
    </contour>
    <component base="uc_main_stem" xOffset="17.0"/>
  </outline>
</glyph>
<glyph name="F" format="1">
  <advance width="1292.66666667"/>
  <unicode hex="0046"/>
  <outline>
    <contour>
      <point x="1115.0" y="1431" type="line" smooth="yes"/>
      <point x="1163.0" y="1431"/>
      <point x="1191.0" y="1445"/>
      <point x="1191.0" y="1493" type="curve" smooth="yes"/>
      <point x="1191.0" y="1533" type="line" smooth="yes"/>
      <point x="1191.0" y="1581"/>
      <point x="1163.0" y="1595"/>
      <point x="1115.0" y="1595" type="curve" smooth="yes"/>
      <point x="342.0" y="1595" type="line"/>
      <point x="342.0" y="1431" type="line" smooth="yes"/>
    </contour>
    <contour>
      <point x="1112.0" y="758"/>
      <point x="1140.0" y="766"/>
      <point x="1140.0" y="814" type="curve" smooth="yes"/>
      <point x="1140.0" y="859" type="line" smooth="yes"/>
      <point x="1140.0" y="907"/>
      <point x="1112.0" y="915"/>
      <point x="1064.0" y="915" type="curve" smooth="yes"/>
      <point x="333.0" y="915" type="line"/>
      <point x="333.0" y="758" type="line" smooth="yes"/>
      <point x="1064.0" y="758" type="line" smooth="yes"/>
    </contour>
    <component base="uc_main_stem" xOffset="17.0"/>
  </outline>
</glyph>
<glyph name="G" format="1">
  <advance width="1902.81818182"/>
  <unicode hex="0047"/>
  <outline>
    <contour>
      <point x="1533" y="0" type="curve" smooth="yes"/>
      <point x="1415" y="110" type="line"/>
      <point x="1368" y="35"/>
      <point x="1232" y="-39"/>
      <point x="941" y="-39" type="curve" smooth="yes"/>
      <point x="321" y="-39"/>
      <point x="203" y="69"/>
      <point x="203" y="805" type="curve" smooth="yes"/>
      <point x="203" y="1568"/>
      <point x="340" y="1631"/>
      <point x="941" y="1631" type="curve" smooth="yes"/>
      <point x="1464" y="1631"/>
      <point x="1652" y="1603"/>
      <point x="1681" y="1010" type="curve" smooth="yes"/>
      <point x="1681" y="958"/>
      <point x="1659" y="922"/>
      <point x="1617" y="922" type="curve" smooth="yes"/>
      <point x="1149" y="922" type="line" smooth="yes"/>
      <point x="1103" y="922"/>
      <point x="1079" y="950"/>
      <point x="1079" y="998" type="curve" smooth="yes"/>
      <point x="1077" y="1277"/>
      <point x="1069" y="1282"/>
      <point x="994" y="1282" type="curve" smooth="yes"/>
      <point x="928" y="1282" type="line" smooth="yes"/>
      <point x="826" y="1282"/>
      <point x="825" y="1280"/>
      <point x="825" y="796" type="curve" smooth="yes"/>
      <point x="825" y="314"/>
      <point x="826" y="315"/>
      <point x="928" y="315" type="curve" smooth="yes"/>
      <point x="1084" y="315" type="line" smooth="yes"/>
      <point x="1141" y="315"/>
      <point x="1159" y="339"/>
      <point x="1164" y="393" type="curve"/>
      <point x="1164" y="534" type="line" smooth="yes"/>
      <point x="1164" y="557"/>
      <point x="1163" y="575"/>
      <point x="1114" y="575" type="curve" smooth="yes"/>
      <point x="1033" y="575" type="line"/>
      <point x="1031" y="575" type="line" smooth="yes"/>
      <point x="1005" y="575"/>
      <point x="989" y="591"/>
      <point x="989" y="617" type="curve" smooth="yes"/>
      <point x="989" y="730" type="line" smooth="yes"/>
      <point x="989" y="778"/>
      <point x="1017" y="806"/>
      <point x="1065" y="806" type="curve" smooth="yes"/>
      <point x="1603" y="806" type="line" smooth="yes"/>
      <point x="1651" y="806"/>
      <point x="1679" y="778"/>
      <point x="1679" y="730" type="curve" smooth="yes"/>
      <point x="1679" y="76" type="line" smooth="yes"/>
      <point x="1679" y="28"/>
      <point x="1567" y="-31"/>
    </contour>
  </outline>
</glyph>
<glyph name="H" format="1">
  <advance width="1794.02366864"/>
  <unicode hex="0048"/>
  <outline>
    <contour>
      <point x="1448.0" y="728" type="line"/>
      <point x="1448.0" y="882" type="line"/>
      <point x="326.0" y="882" type="line"/>
      <point x="326.0" y="728" type="line" smooth="yes"/>
    </contour>
    <component base="uc_main_stem" xOffset="1144.0"/>
    <component base="uc_main_stem" xOffset="17.0"/>
  </outline>
</glyph>
<glyph name="J" format="1">
  <advance width="1183.66666667"/>
  <unicode hex="004A"/>
  <outline>
    <contour>
      <point x="401.387008667" y="1594" type="line"/>
      <point x="853.613006592" y="1594" type="line" smooth="yes"/>
      <point x="901.102996826" y="1594"/>
      <point x="929.5" y="1565.6000061"/>
      <point x="929.5" y="1518.11000061" type="curve" smooth="yes"/>
      <point x="929.5" y="274.0" type="line" smooth="yes"/>
      <point x="929.5" y="-44.0"/>
      <point x="702.5" y="-159.0"/>
      <point x="408.5" y="-159.0" type="curve" smooth="yes"/>
      <point x="350.598007202" y="-159.0"/>
      <point x="289.628997803" y="-154.401000977"/>
      <point x="227.421005249" y="-145.934005737" type="curve" smooth="yes"/>
      <point x="180.596801758" y="-139.559997559"/>
      <point x="152.5" y="-107.380004883"/>
      <point x="152.5" y="-60.1233062744" type="curve" smooth="yes"/>
      <point x="152.5" y="62.1126861572" type="line" smooth="yes"/>
      <point x="152.5" y="109.602981567"/>
      <point x="180.897003174" y="137.999984741"/>
      <point x="228.386993408" y="137.999984741" type="curve" smooth="yes"/>
      <point x="265.903991699" y="137.999984741" type="line" smooth="yes"/>
      <point x="303.199005127" y="137.999984741"/>
      <point x="325.5" y="160.300979614"/>
      <point x="325.5" y="197.595977783" type="curve" smooth="yes"/>
      <point x="325.5" y="1518.10998535" type="line" smooth="yes"/>
      <point x="325.5" y="1565.6000061"/>
      <point x="353.897003174" y="1594.0"/>
      <point x="401.386993408" y="1594.0" type="curve" smooth="yes"/>
    </contour>
  </outline>
</glyph>
<glyph name="K" format="1">
  <advance width="1287.7125"/>
  <unicode hex="004B"/>
  <outline>
    <contour>
      <point x="1211.0" y="0" type="line" smooth="yes"/>
      <point x="1253.0" y="0"/>
      <point x="1276.0" y="33"/>
      <point x="1256.0" y="69" type="curve" smooth="yes"/>
      <point x="849.0" y="781" type="line" smooth="yes"/>
      <point x="830.0" y="815"/>
      <point x="831.0" y="818"/>
      <point x="849.0" y="851" type="curve" smooth="yes"/>
      <point x="1209.0" y="1526" type="line" smooth="yes"/>
      <point x="1229.0" y="1563"/>
      <point x="1206.0" y="1595"/>
      <point x="1164.0" y="1595" type="curve" smooth="yes"/>
      <point x="1137.0" y="1595" type="line" smooth="yes"/>
      <point x="1087.0" y="1595"/>
      <point x="1059.0" y="1584"/>
      <point x="1035.0" y="1540" type="curve" smooth="yes"/>
      <point x="692.0" y="898" type="line" smooth="yes"/>
      <point x="675.0" y="867"/>
      <point x="670.0" y="862"/>
      <point x="642.0" y="862" type="curve" smooth="yes"/>
      <point x="338.0" y="862" type="line"/>
      <point x="338.0" y="742" type="line"/>
      <point x="642.0" y="742" type="line" smooth="yes"/>
      <point x="677.0" y="742"/>
      <point x="684.0" y="736"/>
      <point x="697.0" y="713" type="curve" smooth="yes"/>
      <point x="1073.0" y="64" type="line" smooth="yes"/>
      <point x="1102.0" y="14"/>
      <point x="1116.0" y="0"/>
      <point x="1166.0" y="0" type="curve" smooth="yes"/>
    </contour>
    <component base="uc_main_stem" xOffset="17.0"/>
  </outline>
</glyph>
<glyph name="L" format="1">
  <advance width="1192.4"/>
  <unicode hex="004C"/>
  <outline>
    <contour>
      <point x="1092.0" y="0" type="line" smooth="yes"/>
      <point x="1140.0" y="0"/>
      <point x="1168.0" y="14"/>
      <point x="1168.0" y="62" type="curve" smooth="yes"/>
      <point x="1168.0" y="102" type="line" smooth="yes"/>
      <point x="1168.0" y="150"/>
      <point x="1140.0" y="164"/>
      <point x="1092.0" y="164" type="curve" smooth="yes"/>
      <point x="336.0" y="164" type="line"/>
      <point x="336.0" y="0" type="line" smooth="yes"/>
    </contour>
    <component base="uc_main_stem" xOffset="17.0"/>
  </outline>
</glyph>
<glyph name="M" format="1">
  <advance width="2156.0"/>
  <unicode hex="004D"/>
  <outline>
    <contour>
      <point x="1577.0" y="76" type="curve" smooth="yes"/>
      <point x="1549.0" y="939" type="line"/>
      <point x="1386.0" y="75" type="line" smooth="yes"/>
      <point x="1377.0" y="27"/>
      <point x="1348.0" y="0"/>
      <point x="1299.0" y="0" type="curve" smooth="yes"/>
      <point x="964.0" y="0" type="line" smooth="yes"/>
      <point x="915.0" y="0"/>
      <point x="886.0" y="27"/>
      <point x="878.0" y="75" type="curve" smooth="yes"/>
      <point x="725.0" y="939" type="line"/>
      <point x="698.0" y="76" type="line" smooth="yes"/>
      <point x="695.0" y="28"/>
      <point x="665.0" y="0"/>
      <point x="617.0" y="0" type="curve" smooth="yes"/>
      <point x="318.0" y="0" type="line" smooth="yes"/>
      <point x="273.0" y="0"/>
      <point x="245.0" y="27"/>
      <point x="245.0" y="71" type="curve"/>
      <point x="245.0" y="71"/>
      <point x="244.0" y="105"/>
      <point x="244.0" y="176" type="curve" smooth="yes"/>
      <point x="244.0" y="358"/>
      <point x="252.0" y="788"/>
      <point x="312.0" y="1519" type="curve" smooth="yes"/>
      <point x="316.0" y="1567"/>
      <point x="344.0" y="1595"/>
      <point x="392.0" y="1595" type="curve" smooth="yes"/>
      <point x="920.0" y="1595" type="line" smooth="yes"/>
      <point x="969.0" y="1595"/>
      <point x="1000.0" y="1568"/>
      <point x="1007.0" y="1520" type="curve" smooth="yes"/>
      <point x="1124.0" y="719" type="line"/>
      <point x="1125.0" y="714"/>
      <point x="1130.0" y="711"/>
      <point x="1136.0" y="711" type="curve" smooth="yes"/>
      <point x="1141.0" y="711"/>
      <point x="1147.0" y="714"/>
      <point x="1147.0" y="719" type="curve"/>
      <point x="1252.0" y="1520" type="line" smooth="yes"/>
      <point x="1259.0" y="1568"/>
      <point x="1290.0" y="1595"/>
      <point x="1339.0" y="1595" type="curve" smooth="yes"/>
      <point x="1868.0" y="1595" type="line" smooth="yes"/>
      <point x="1916.0" y="1595"/>
      <point x="1944.0" y="1567"/>
      <point x="1948.0" y="1519" type="curve" smooth="yes"/>
      <point x="2008.0" y="760"/>
      <point x="2016.0" y="338"/>
      <point x="2016.0" y="165" type="curve" smooth="yes"/>
      <point x="2016.0" y="105"/>
      <point x="2015.0" y="75"/>
      <point x="2015.0" y="71" type="curve" smooth="yes"/>
      <point x="2015.0" y="27"/>
      <point x="1987.0" y="0"/>
      <point x="1942.0" y="0" type="curve" smooth="yes"/>
      <point x="1658.0" y="0" type="line" smooth="yes"/>
      <point x="1610.0" y="0"/>
      <point x="1580.0" y="28"/>
    </contour>
  </outline>
</glyph>
<glyph name="N" format="1">
  <advance width="1896.02366864"/>
  <unicode hex="004E"/>
  <outline>
    <contour>
      <point x="282.0" y="1471" type="line"/>
      <point x="1503.0" y="13" type="line"/>
      <point x="1614.0" y="126" type="line"/>
      <point x="398.0" y="1577" type="line"/>
    </contour>
    <component base="uc_main_stem" xOffset="1246.0"/>
    <component base="uc_main_stem" xOffset="17.0"/>
  </outline>
</glyph>
<glyph name="O" format="1">
  <advance width="1718"/>
  <unicode hex="004F"/>
  <outline>
    <contour>
      <point x="859" y="-39" type="curve"/>
      <point x="1264" y="-39"/>
      <point x="1515" y="104"/>
      <point x="1515" y="556" type="curve" smooth="yes"/>
      <point x="1515" y="1090" type="line" smooth="yes"/>
      <point x="1515" y="1516"/>
      <point x="1237" y="1653"/>
      <point x="859" y="1653" type="curve"/>
      <point x="481" y="1653"/>
      <point x="203" y="1516"/>
      <point x="203" y="1090" type="curve" smooth="yes"/>
      <point x="203" y="556" type="line" smooth="yes"/>
      <point x="203" y="104"/>
      <point x="454" y="-39"/>
    </contour>
    <contour>
      <point x="859" y="113" type="curve"/>
      <point x="526" y="113"/>
      <point x="394" y="209"/>
      <point x="394" y="566" type="curve" smooth="yes"/>
      <point x="394" y="1093" type="line" smooth="yes"/>
      <point x="394" y="1388"/>
      <point x="515" y="1497"/>
      <point x="859" y="1497" type="curve"/>
      <point x="1203" y="1497"/>
      <point x="1324" y="1388"/>
      <point x="1324" y="1093" type="curve" smooth="yes"/>
      <point x="1324" y="566" type="line" smooth="yes"/>
      <point x="1324" y="209"/>
      <point x="1192" y="113"/>
    </contour>
  </outline>
</glyph>
<glyph name="P" format="1">
  <advance width="1628.14285714"/>
  <unicode hex="0050"/>
  <outline>
    <contour>
      <point x="905.0" y="552" type="line" smooth="yes"/>
      <point x="1370.0" y="552"/>
      <point x="1541.0" y="643"/>
      <point x="1541.0" y="1095" type="curve"/>
      <point x="1541.0" y="1521"/>
      <point x="1343.0" y="1595"/>
      <point x="905.0" y="1595" type="curve" smooth="yes"/>
      <point x="350.0" y="1595" type="line"/>
      <point x="350.0" y="1439" type="line"/>
      <point x="905.0" y="1439" type="line" smooth="yes"/>
      <point x="1279.0" y="1439"/>
      <point x="1350.0" y="1390"/>
      <point x="1350.0" y="1095" type="curve"/>
      <point x="1350.0" y="738"/>
      <point x="1268.0" y="704"/>
      <point x="905.0" y="704" type="curve" smooth="yes"/>
      <point x="351.0" y="704" type="line"/>
      <point x="351.0" y="552" type="line"/>
    </contour>
    <component base="uc_main_stem" xOffset="17.0"/>
  </outline>
</glyph>
<glyph name="Q" format="1">
  <advance width="1888"/>
  <unicode hex="0051"/>
  <outline>
    <contour>
      <point x="1195" y="-491" type="curve" smooth="yes"/>
      <point x="917" y="-491"/>
      <point x="695" y="-455"/>
      <point x="693" y="-222" type="curve" smooth="yes"/>
      <point x="693" y="-188"/>
      <point x="695" y="-134"/>
      <point x="695" y="-114" type="curve" smooth="yes"/>
      <point x="695" y="-68"/>
      <point x="683" y="-42"/>
      <point x="600" y="-24" type="curve"/>
      <point x="597" y="-23"/>
      <point x="595" y="-23"/>
      <point x="592" y="-22" type="curve"/>
      <point x="274" y="25"/>
      <point x="203" y="197"/>
      <point x="203" y="805" type="curve" smooth="yes"/>
      <point x="203" y="1568"/>
      <point x="340" y="1631"/>
      <point x="941" y="1631" type="curve" smooth="yes"/>
      <point x="1513" y="1631"/>
      <point x="1685" y="1573"/>
      <point x="1685" y="808" type="curve" smooth="yes"/>
      <point x="1685" y="117"/>
      <point x="1576" y="-13"/>
      <point x="1142" y="-36" type="curve"/>
      <point x="1143" y="-80"/>
      <point x="1137" y="-153"/>
      <point x="1150" y="-159" type="curve" smooth="yes"/>
      <point x="1179" y="-173"/>
      <point x="1305" y="-179"/>
      <point x="1353" y="-179" type="curve" smooth="yes"/>
      <point x="1392" y="-179"/>
      <point x="1435" y="-175"/>
      <point x="1476" y="-169" type="curve"/>
      <point x="1480" y="-168"/>
      <point x="1484" y="-168"/>
      <point x="1488" y="-168" type="curve" smooth="yes"/>
      <point x="1519" y="-168"/>
      <point x="1538" y="-187"/>
      <point x="1538" y="-217" type="curve" smooth="yes"/>
      <point x="1538" y="-222"/>
      <point x="1538" y="-228"/>
      <point x="1537" y="-233" type="curve" smooth="yes"/>
      <point x="1505" y="-406" type="line" smooth="yes"/>
      <point x="1496" y="-453"/>
      <point x="1494" y="-472"/>
      <point x="1445" y="-475" type="curve" smooth="yes"/>
      <point x="1392" y="-479"/>
      <point x="1242" y="-491"/>
    </contour>
    <contour>
      <point x="927" y="315" type="curve" smooth="yes"/>
      <point x="964" y="315" type="line" smooth="yes"/>
      <point x="1077" y="315"/>
      <point x="1080" y="315"/>
      <point x="1080" y="799" type="curve" smooth="yes"/>
      <point x="1080" y="1281"/>
      <point x="1077" y="1282"/>
      <point x="965" y="1282" type="curve" smooth="yes"/>
      <point x="928" y="1282" type="line" smooth="yes"/>
      <point x="826" y="1282"/>
      <point x="825" y="1280"/>
      <point x="825" y="796" type="curve" smooth="yes"/>
      <point x="825" y="316"/>
      <point x="826" y="315"/>
    </contour>
  </outline>
</glyph>
<glyph name="R" format="1">
  <advance width="1645.52631579"/>
  <unicode hex="0052"/>
  <outline>
    <contour>
      <point x="881.0" y="740" type="line"/>
      <point x="1017.0" y="436" type="line" smooth="yes"/>
      <point x="1109.0" y="236"/>
      <point x="1176.0" y="97"/>
      <point x="1215.0" y="39" type="curve" smooth="yes"/>
      <point x="1241.0" y="0"/>
      <point x="1264.0" y="-20"/>
      <point x="1308.0" y="0" type="curve" smooth="yes"/>
      <point x="1340.0" y="15" type="line" smooth="yes"/>
      <point x="1384.0" y="35"/>
      <point x="1371.0" y="60"/>
      <point x="1359.0" y="104" type="curve" smooth="yes"/>
      <point x="1340.0" y="172"/>
      <point x="1277.0" y="310"/>
      <point x="1180.0" y="509" type="curve" smooth="yes"/>
      <point x="1036.0" y="814" type="line"/>
    </contour>
    <contour>
      <point x="829.0" y="698" type="line" smooth="yes"/>
      <point x="1260.0" y="698"/>
      <point x="1485.0" y="791"/>
      <point x="1485.0" y="1165" type="curve"/>
      <point x="1485.0" y="1517"/>
      <point x="1222.0" y="1595"/>
      <point x="829.0" y="1595" type="curve" smooth="yes"/>
      <point x="350.0" y="1595.0" type="line"/>
      <point x="350.0" y="1441.0" type="line"/>
      <point x="829.0" y="1441" type="line" smooth="yes"/>
      <point x="1165.0" y="1441"/>
      <point x="1294.0" y="1409"/>
      <point x="1294.0" y="1165" type="curve"/>
      <point x="1294.0" y="870"/>
      <point x="1152.0" y="848"/>
      <point x="829.0" y="848" type="curve" smooth="yes"/>
      <point x="351.0" y="848.0" type="line"/>
      <point x="351.0" y="698.0" type="line"/>
    </contour>
    <component base="uc_main_stem" xOffset="17.0"/>
  </outline>
</glyph>
<glyph name="S" format="1">
  <advance width="1598.15289059"/>
  <unicode hex="0053"/>
  <outline>
    <contour>
      <point x="814.065934066" y="-39" type="curve" smooth="yes"/>
      <point x="441.065934066" y="-39"/>
      <point x="179.065934066" y="-10"/>
      <point x="146.065934066" y="345" type="curve" smooth="yes"/>
      <point x="144.065934066" y="368"/>
      <point x="142.065934066" y="443"/>
      <point x="141.065934066" y="467" type="curve" smooth="yes"/>
      <point x="141.065934066" y="469" type="line" smooth="yes"/>
      <point x="141.065934066" y="511"/>
      <point x="157.065934066" y="549"/>
      <point x="199.065934066" y="546" type="curve" smooth="yes"/>
      <point x="647.065934066" y="516" type="line" smooth="yes"/>
      <point x="695.065934066" y="513"/>
      <point x="713.065934066" y="500"/>
      <point x="713.065934066" y="452" type="curve" smooth="yes"/>
      <point x="713.065934066" y="335" type="line" smooth="yes"/>
      <point x="713.065934066" y="297"/>
      <point x="735.065934066" y="275"/>
      <point x="773.065934066" y="275" type="curve" smooth="yes"/>
      <point x="826.065934066" y="275" type="line" smooth="yes"/>
      <point x="864.065934066" y="275"/>
      <point x="886.065934066" y="297"/>
      <point x="886.065934066" y="335" type="curve" smooth="yes"/>
      <point x="886.065934066" y="525" type="line" smooth="yes"/>
      <point x="886.065934066" y="578"/>
      <point x="818.065934066" y="598"/>
      <point x="768.065934066" y="603" type="curve" smooth="yes"/>
      <point x="265.065934066" y="655"/>
      <point x="134.065934066" y="712"/>
      <point x="134.065934066" y="1111" type="curve" smooth="yes"/>
      <point x="134.065934066" y="1550"/>
      <point x="376.065934066" y="1631"/>
      <point x="784.065934066" y="1631" type="curve" smooth="yes"/>
      <point x="1162.06593407" y="1631"/>
      <point x="1414.06593407" y="1601"/>
      <point x="1436.06593407" y="1206" type="curve"/>
      <point x="1436.06593407" y="1201" type="line" smooth="yes"/>
      <point x="1436.06593407" y="1160"/>
      <point x="1430.06593407" y="1132"/>
      <point x="1388.06593407" y="1130" type="curve" smooth="yes"/>
      <point x="940.065934066" y="1108" type="line" smooth="yes"/>
      <point x="892.065934066" y="1106"/>
      <point x="884.065934066" y="1128"/>
      <point x="884.065934066" y="1196" type="curve" smooth="yes"/>
      <point x="884.065934066" y="1260" type="line" smooth="yes"/>
      <point x="884.065934066" y="1298"/>
      <point x="862.065934066" y="1320"/>
      <point x="824.065934066" y="1320" type="curve" smooth="yes"/>
      <point x="771.065934066" y="1320" type="line" smooth="yes"/>
      <point x="733.065934066" y="1320"/>
      <point x="711.065934066" y="1298"/>
      <point x="711.065934066" y="1260" type="curve" smooth="yes"/>
      <point x="711.065934066" y="1094" type="line" smooth="yes"/>
      <point x="711.065934066" y="1093"/>
      <point x="711.065934066" y="1093"/>
      <point x="712.065934066" y="1093" type="curve"/>
      <point x="713.065934066" y="1091" type="line"/>
      <point x="714.065934066" y="1091"/>
      <point x="714.065934066" y="1091"/>
      <point x="714.065934066" y="1090" type="curve" smooth="yes"/>
      <point x="715.065934066" y="1051"/>
      <point x="791.065934066" y="1039"/>
      <point x="836.065934066" y="1034" type="curve" smooth="yes"/>
      <point x="1353.06593407" y="982"/>
      <point x="1492.06593407" y="910"/>
      <point x="1492.06593407" y="489" type="curve" smooth="yes"/>
      <point x="1492.06593407" y="25"/>
      <point x="1282.06593407" y="-39"/>
    </contour>
  </outline>
</glyph>
<glyph name="T" format="1">
  <advance width="1354.84931506"/>
  <unicode hex="0054"/>
  <outline>
    <contour>
      <point x="109.424657534" y="1431" type="curve" smooth="yes"/>
      <point x="677.424657534" y="1431" type="line" smooth="yes"/>
      <point x="677.424657534" y="1595" type="line"/>
      <point x="109.424657534" y="1595" type="line" smooth="yes"/>
      <point x="61.4246575344" y="1595"/>
      <point x="33.4246575344" y="1581"/>
      <point x="33.4246575344" y="1533" type="curve" smooth="yes"/>
      <point x="33.4246575344" y="1493" type="line" smooth="yes"/>
      <point x="33.4246575344" y="1445"/>
      <point x="61.4246575344" y="1431"/>
    </contour>
    <contour>
      <point x="1245.42465753" y="1431" type="line" smooth="yes"/>
      <point x="1293.42465753" y="1431"/>
      <point x="1321.42465753" y="1445"/>
      <point x="1321.42465753" y="1493" type="curve" smooth="yes"/>
      <point x="1321.42465753" y="1533" type="line" smooth="yes"/>
      <point x="1321.42465753" y="1581"/>
      <point x="1293.42465753" y="1595"/>
      <point x="1245.42465753" y="1595" type="curve" smooth="yes"/>
      <point x="677.424657534" y="1595" type="line"/>
      <point x="677.424657534" y="1431" type="line" smooth="yes"/>
    </contour>
    <component base="uc_main_stem" xOffset="359.424657534"/>
  </outline>
</glyph>
<glyph name="U" format="1">
  <advance width="1803.63963964"/>
  <unicode hex="0055"/>
  <outline>
    <contour>
      <point x="901.81981982" y="109" type="curve"/>
      <point x="901.81981982" y="-39" type="line"/>
      <point x="1488.81981982" y="-39"/>
      <point x="1583.81981982" y="93"/>
      <point x="1583.81981982" y="471" type="curve" smooth="yes"/>
      <point x="1583.81981982" y="1050" type="line"/>
      <point x="1583.81981982" y="1251"/>
      <point x="1581.81981982" y="1429"/>
      <point x="1572.81981982" y="1523" type="curve" smooth="yes"/>
      <point x="1568.81981982" y="1569"/>
      <point x="1558.81981982" y="1595"/>
      <point x="1510.81981982" y="1595" type="curve" smooth="yes"/>
      <point x="1476.81981982" y="1595" type="line" smooth="yes"/>
      <point x="1428.81981982" y="1595"/>
      <point x="1418.81981982" y="1569"/>
      <point x="1414.81981982" y="1523" type="curve" smooth="yes"/>
      <point x="1405.81981982" y="1429"/>
      <point x="1404.81981982" y="1251"/>
      <point x="1404.81981982" y="1050" type="curve" smooth="yes"/>
      <point x="1404.81981982" y="464" type="line" smooth="yes"/>
      <point x="1404.81981982" y="148"/>
      <point x="1351.81981982" y="109"/>
    </contour>
    <contour>
      <point x="901.81981982" y="109" type="line"/>
      <point x="451.81981982" y="109"/>
      <point x="398.81981982" y="148"/>
      <point x="398.81981982" y="464" type="curve" smooth="yes"/>
      <point x="398.81981982" y="1050" type="line" smooth="yes"/>
      <point x="398.81981982" y="1251"/>
      <point x="397.81981982" y="1429"/>
      <point x="388.81981982" y="1523" type="curve" smooth="yes"/>
      <point x="384.81981982" y="1569"/>
      <point x="374.81981982" y="1595"/>
      <point x="326.81981982" y="1595" type="curve" smooth="yes"/>
      <point x="292.81981982" y="1595" type="line" smooth="yes"/>
      <point x="244.81981982" y="1595"/>
      <point x="234.81981982" y="1569"/>
      <point x="230.81981982" y="1523" type="curve" smooth="yes"/>
      <point x="221.81981982" y="1429"/>
      <point x="219.81981982" y="1251"/>
      <point x="219.81981982" y="1050" type="curve"/>
      <point x="219.81981982" y="471" type="line" smooth="yes"/>
      <point x="219.81981982" y="93"/>
      <point x="314.81981982" y="-39"/>
      <point x="901.81981982" y="-39" type="curve"/>
    </contour>
  </outline>
</glyph>
<glyph name="V" format="1">
  <advance width="1589.42857143"/>
  <unicode hex="0056"/>
  <outline>
    <contour>
      <point x="656.714285714" y="1520" type="curve" smooth="yes"/>
      <point x="794.714285714" y="600" type="line" smooth="yes"/>
      <point x="795.714285714" y="594"/>
      <point x="800.714285714" y="591"/>
      <point x="804.714285714" y="591" type="curve" smooth="yes"/>
      <point x="808.714285714" y="591"/>
      <point x="812.714285714" y="593"/>
      <point x="812.714285714" y="598" type="curve"/>
      <point x="932.714285714" y="1520" type="line" smooth="yes"/>
      <point x="937.714285714" y="1568"/>
      <point x="968.714285714" y="1595"/>
      <point x="1017.71428571" y="1595" type="curve" smooth="yes"/>
      <point x="1457.71428571" y="1595" type="line" smooth="yes"/>
      <point x="1497.71428571" y="1595"/>
      <point x="1519.71428571" y="1571"/>
      <point x="1519.71428571" y="1535" type="curve" smooth="yes"/>
      <point x="1519.71428571" y="1530"/>
      <point x="1519.71428571" y="1526"/>
      <point x="1518.71428571" y="1521" type="curve"/>
      <point x="1443.71428571" y="1012"/>
      <point x="1324.71428571" y="454"/>
      <point x="1230.71428571" y="74" type="curve" smooth="yes"/>
      <point x="1218.71428571" y="26"/>
      <point x="1188.71428571" y="0"/>
      <point x="1139.71428571" y="0" type="curve" smooth="yes"/>
      <point x="449.714285714" y="0" type="line" smooth="yes"/>
      <point x="400.714285714" y="0"/>
      <point x="371.714285714" y="29"/>
      <point x="358.714285714" y="74" type="curve" smooth="yes"/>
      <point x="249.714285714" y="459"/>
      <point x="146.714285714" y="1019"/>
      <point x="70.7142857143" y="1521" type="curve" smooth="yes"/>
      <point x="69.7142857143" y="1526"/>
      <point x="69.7142857143" y="1531"/>
      <point x="69.7142857143" y="1536" type="curve" smooth="yes"/>
      <point x="69.7142857143" y="1572"/>
      <point x="91.7142857143" y="1595"/>
      <point x="131.714285714" y="1595" type="curve" smooth="yes"/>
      <point x="570.714285714" y="1595" type="line" smooth="yes"/>
      <point x="619.714285714" y="1595"/>
      <point x="649.714285714" y="1568"/>
    </contour>
  </outline>
</glyph>
<glyph name="W" format="1">
  <advance width="2185.33783931"/>
  <unicode hex="0057"/>
  <outline>
    <contour>
      <point x="1363.70028458" y="1519.57000732" type="line"/>
      <point x="1437.36028824" y="853.0" type="line"/>
      <point x="1453.41029129" y="599.00100708" type="line" smooth="yes"/>
      <point x="1454.00030289" y="589.690002441"/>
      <point x="1460.05030594" y="584.356002808"/>
      <point x="1469.3603035" y="584.93800354" type="curve" smooth="yes"/>
      <point x="1471.3603035" y="585.06199646" type="line" smooth="yes"/>
      <point x="1480.97030411" y="585.662979126"/>
      <point x="1486.8603035" y="591.379989624"/>
      <point x="1487.75030289" y="600.965988159" type="curve" smooth="yes"/>
      <point x="1573.32031021" y="1519.43998718" type="line" smooth="yes"/>
      <point x="1577.8003212" y="1567.5599823"/>
      <point x="1607.91032181" y="1594.99998474"/>
      <point x="1656.25031815" y="1594.99998474" type="curve" smooth="yes"/>
      <point x="2035.47031937" y="1594.99998474" type="line" smooth="yes"/>
      <point x="2081.38033829" y="1594.99998474"/>
      <point x="2106.92033157" y="1565.34999084"/>
      <point x="2100.11033402" y="1519.94998169" type="curve" smooth="yes"/>
      <point x="1883.61033402" y="75.0493774414" type="line" smooth="yes"/>
      <point x="1876.38033829" y="26.8032684326"/>
      <point x="1845.26032791" y="-3.0517578125e-05"/>
      <point x="1796.47033463" y="-3.0517578125e-05" type="curve" smooth="yes"/>
      <point x="1286.25033341" y="-3.0517578125e-05" type="line" smooth="yes"/>
      <point x="1237.42031632" y="-3.0517578125e-05"/>
      <point x="1206.19032059" y="26.7324676514"/>
      <point x="1198.66032181" y="74.9798736572" type="curve" smooth="yes"/>
      <point x="1124.06031571" y="553.019973755" type="line" smooth="yes"/>
      <point x="1117.72030411" y="593.665985107"/>
      <point x="1110.62029801" y="662.705978394"/>
      <point x="1108.56030045" y="703.791992188" type="curve" smooth="yes"/>
      <point x="1098.29029617" y="908.516998291" type="line" smooth="yes"/>
      <point x="1097.70029984" y="920.149002075"/>
      <point x="1090.5102974" y="927.0"/>
      <point x="1078.8603035" y="927.0" type="curve" smooth="yes"/>
      <point x="1076.8603035" y="927.0" type="line" smooth="yes"/>
      <point x="1065.23029862" y="927.0"/>
      <point x="1058.06030045" y="920.139007568"/>
      <point x="1057.56030045" y="908.516998291" type="curve" smooth="yes"/>
      <point x="1048.66030655" y="703.791992188" type="line" smooth="yes"/>
      <point x="1046.86031876" y="662.423995972"/>
      <point x="1039.94032059" y="593.947998047"/>
      <point x="1033.42631302" y="553.057006836" type="curve" smooth="yes"/>
      <point x="957.294309235" y="74.9430999756" type="line" smooth="yes"/>
      <point x="949.611325837" y="26.6959838867"/>
      <point x="918.328321076" y="-1.52587890625e-05"/>
      <point x="869.473325348" y="-1.52587890625e-05" type="curve" smooth="yes"/>
      <point x="379.247327424" y="-1.52587890625e-05" type="line" smooth="yes"/>
      <point x="330.510327912" y="-1.52587890625e-05"/>
      <point x="299.502332306" y="26.8744812012"/>
      <point x="292.575330353" y="75.1170806885" type="curve" smooth="yes"/>
      <point x="85.1451240548" y="1519.87997437" type="line" smooth="yes"/>
      <point x="78.6115394601" y="1565.38996887"/>
      <point x="104.273526765" y="1594.99996948"/>
      <point x="150.247327424" y="1594.99996948" type="curve" smooth="yes"/>
      <point x="581.473325348" y="1594.99996948" type="line" smooth="yes"/>
      <point x="629.38131485" y="1594.99996948"/>
      <point x="658.604322052" y="1567.04997253"/>
      <point x="660.734311677" y="1519.18997192" type="curve" smooth="yes"/>
      <point x="701.537305451" y="602.466964722" type="line" smooth="yes"/>
      <point x="702.055310822" y="590.843948364"/>
      <point x="709.225308991" y="583.999954224"/>
      <point x="720.860303498" y="583.999954224" type="curve" smooth="yes"/>
      <point x="722.860303498" y="583.999954224" type="line" smooth="yes"/>
      <point x="734.526303864" y="583.999954224"/>
      <point x="741.766309357" y="590.821960449"/>
      <point x="742.4583107" y="602.466949463" type="curve" smooth="yes"/>
      <point x="757.360303498" y="852.999954224" type="line"/>
      <point x="832.824308014" y="1519.56996155" type="line" smooth="yes"/>
      <point x="838.279325104" y="1567.7699585"/>
      <point x="868.749326325" y="1594.99995422"/>
      <point x="917.247312165" y="1594.99995422" type="curve" smooth="yes"/>
      <point x="1279.47031937" y="1594.99995422" type="line" smooth="yes"/>
      <point x="1327.95033035" y="1594.99995422"/>
      <point x="1358.37032852" y="1567.75994873"/>
      <point x="1363.70033035" y="1519.56996155" type="curve"/>
    </contour>
  </outline>
</glyph>
<glyph name="X" format="1">
  <advance width="1650.5"/>
  <unicode hex="0058"/>
  <outline>
    <contour>
      <point x="816.25" y="514" type="line"/>
      <point x="663.25" y="72" type="line" smooth="yes"/>
      <point x="647.25" y="25"/>
      <point x="613.25" y="0"/>
      <point x="563.25" y="0" type="curve" smooth="yes"/>
      <point x="129.25" y="0" type="line" smooth="yes"/>
      <point x="96.2500000003" y="0"/>
      <point x="77.2500000003" y="18"/>
      <point x="77.2500000003" y="44" type="curve" smooth="yes"/>
      <point x="77.2500000003" y="52"/>
      <point x="78.2500000003" y="61"/>
      <point x="82.2500000003" y="70" type="curve" smooth="yes"/>
      <point x="357.25" y="727" type="line" smooth="yes"/>
      <point x="365.25" y="746"/>
      <point x="369.25" y="765"/>
      <point x="369.25" y="784" type="curve" smooth="yes"/>
      <point x="369.25" y="801"/>
      <point x="365.25" y="819"/>
      <point x="358.25" y="837" type="curve" smooth="yes"/>
      <point x="81.2500000003" y="1525" type="line" smooth="yes"/>
      <point x="77.2500000003" y="1534"/>
      <point x="76.2500000003" y="1542"/>
      <point x="76.2500000003" y="1550" type="curve" smooth="yes"/>
      <point x="76.2500000003" y="1576"/>
      <point x="96.2500000003" y="1595"/>
      <point x="129.25" y="1595" type="curve" smooth="yes"/>
      <point x="567.25" y="1595" type="line" smooth="yes"/>
      <point x="617.25" y="1595"/>
      <point x="651.25" y="1570"/>
      <point x="667.25" y="1523" type="curve" smooth="yes"/>
      <point x="821.25" y="1071" type="line"/>
      <point x="823.25" y="1071" type="line"/>
      <point x="978.25" y="1523" type="line" smooth="yes"/>
      <point x="995.25" y="1570"/>
      <point x="1029.25" y="1595"/>
      <point x="1079.25" y="1595" type="curve" smooth="yes"/>
      <point x="1521.25" y="1595" type="line" smooth="yes"/>
      <point x="1554.25" y="1595"/>
      <point x="1574.25" y="1576"/>
      <point x="1574.25" y="1550" type="curve" smooth="yes"/>
      <point x="1574.25" y="1542"/>
      <point x="1573.25" y="1534"/>
      <point x="1569.25" y="1525" type="curve" smooth="yes"/>
      <point x="1289.25" y="837" type="line" smooth="yes"/>
      <point x="1282.25" y="819"/>
      <point x="1279.25" y="801"/>
      <point x="1279.25" y="783" type="curve" smooth="yes"/>
      <point x="1279.25" y="764"/>
      <point x="1282.25" y="746"/>
      <point x="1290.25" y="727" type="curve" smooth="yes"/>
      <point x="1568.25" y="70" type="line" smooth="yes"/>
      <point x="1572.25" y="61"/>
      <point x="1573.25" y="52"/>
      <point x="1573.25" y="44" type="curve" smooth="yes"/>
      <point x="1573.25" y="18"/>
      <point x="1554.25" y="0"/>
      <point x="1521.25" y="0" type="curve" smooth="yes"/>
      <point x="1075.25" y="0" type="line" smooth="yes"/>
      <point x="1025.25" y="0"/>
      <point x="991.25" y="25"/>
      <point x="974.25" y="72" type="curve" smooth="yes"/>
      <point x="818.25" y="514" type="line"/>
    </contour>
  </outline>
</glyph>
<glyph name="Y" format="1">
  <advance width="1511.78418549"/>
  <unicode hex="0059"/>
  <outline>
    <contour>
      <point x="983.457197533" y="0" type="line"/>
      <point x="531.457197533" y="0" type="line" smooth="yes"/>
      <point x="483.457212792" y="0"/>
      <point x="459.457212792" y="30"/>
      <point x="455.457212792" y="76" type="curve" smooth="yes"/>
      <point x="446.457212792" y="169"/>
      <point x="440.457212792" y="338"/>
      <point x="437.457212792" y="532" type="curve"/>
      <point x="37.4570144277" y="1524" type="line" smooth="yes"/>
      <point x="21.4570144277" y="1564"/>
      <point x="42.4570144277" y="1595"/>
      <point x="85.4570144277" y="1595" type="curve" smooth="yes"/>
      <point x="493.457212792" y="1595" type="line" smooth="yes"/>
      <point x="543.45722805" y="1595"/>
      <point x="576.45722805" y="1570"/>
      <point x="589.45722805" y="1522" type="curve" smooth="yes"/>
      <point x="739.45722805" y="988" type="line"/>
      <point x="740.457243309" y="980"/>
      <point x="745.457243309" y="975"/>
      <point x="754.457243309" y="975" type="curve" smooth="yes"/>
      <point x="756.457243309" y="975" type="line" smooth="yes"/>
      <point x="764.457258568" y="975"/>
      <point x="769.457258568" y="980"/>
      <point x="770.457258568" y="988" type="curve"/>
      <point x="925.457258568" y="1522" type="line" smooth="yes"/>
      <point x="938.457273827" y="1570"/>
      <point x="971.457273827" y="1595"/>
      <point x="1021.45527493" y="1595" type="curve" smooth="yes"/>
      <point x="1425.45527493" y="1595" type="line" smooth="yes"/>
      <point x="1468.45527493" y="1595"/>
      <point x="1490.45527493" y="1564"/>
      <point x="1474.45527493" y="1524" type="curve" smooth="yes"/>
      <point x="1077.45527493" y="528" type="line"/>
      <point x="1074.45527493" y="355"/>
      <point x="1068.45527493" y="194"/>
      <point x="1059.45527493" y="76" type="curve" smooth="yes"/>
      <point x="1056.45527493" y="29"/>
      <point x="1031.45527493" y="0"/>
      <point x="983.457273827" y="0" type="curve" smooth="yes"/>
    </contour>
  </outline>
</glyph>
<glyph name="Z" format="1">
  <advance width="1204.12987013"/>
  <unicode hex="005A"/>
  <outline>
    <contour>
      <point x="192.077439081" y="1595" type="line"/>
      <point x="1064.30044628" y="1595" type="line" smooth="yes"/>
      <point x="1108.82046581" y="1595"/>
      <point x="1132.10046459" y="1564.69000244"/>
      <point x="1120.63046337" y="1521.67999268" type="curve" smooth="yes"/>
      <point x="808.548462641" y="351.582992554" type="line" smooth="yes"/>
      <point x="799.540467035" y="317.806991577"/>
      <point x="817.8294685" y="293.999984741"/>
      <point x="852.786453974" y="293.999984741" type="curve" smooth="yes"/>
      <point x="1054.30046154" y="293.999984741" type="line" smooth="yes"/>
      <point x="1101.79048229" y="293.999984741"/>
      <point x="1130.19047619" y="265.602981567"/>
      <point x="1130.19047619" y="218.112991333" type="curve" smooth="yes"/>
      <point x="1130.19047619" y="75.887298584" type="line" smooth="yes"/>
      <point x="1130.19047619" y="28.3970031738"/>
      <point x="1101.79048229" y="0.0"/>
      <point x="1054.3004768" y="0.0" type="curve" smooth="yes"/>
      <point x="180.077469599" y="0.0" type="line" smooth="yes"/>
      <point x="135.908570062" y="0.0"/>
      <point x="113.150376093" y="30.4263000488"/>
      <point x="125.62747265" y="72.7966003418" type="curve" smooth="yes"/>
      <point x="471.355469477" y="1246.83000183" type="line" smooth="yes"/>
      <point x="481.154465448" y="1280.11001587"/>
      <point x="463.28146435" y="1304.00001526"/>
      <point x="428.59446789" y="1304.00001526" type="curve" smooth="yes"/>
      <point x="192.077469599" y="1304.00001526" type="line" smooth="yes"/>
      <point x="144.587479364" y="1304.00001526"/>
      <point x="116.19047619" y="1332.40000916"/>
      <point x="116.19047619" y="1379.89001465" type="curve" smooth="yes"/>
      <point x="116.19047619" y="1519.11001587" type="line" smooth="yes"/>
      <point x="116.19047619" y="1566.60003662"/>
      <point x="144.587479364" y="1595.00003052"/>
      <point x="192.077469599" y="1595.00003052" type="curve"/>
    </contour>
  </outline>
</glyph>
<glyph name="asciicircum" format="1">
  <advance width="1222"/>
  <unicode hex="005E"/>
  <outline>
    <contour>
      <point x="393.886993408" y="676" type="line"/>
      <point x="820.112991333" y="676" type="line" smooth="yes"/>
      <point x="870.510986328" y="676"/>
      <point x="906.654983521" y="652.845001221"/>
      <point x="927.722991943" y="607.061004639" type="curve" smooth="yes"/>
      <point x="1147.27999878" y="129.93901062" type="line" smooth="yes"/>
      <point x="1164.83999634" y="91.7724151611"/>
      <point x="1145.13000488" y="61.0000152588"/>
      <point x="1103.11000061" y="61.0000152588" type="curve" smooth="yes"/>
      <point x="773.886993408" y="61.0000152588" type="line" smooth="yes"/>
      <point x="724.279006958" y="61.0000152588"/>
      <point x="691.031997681" y="86.3382110596"/>
      <point x="677.878005981" y="134.171020508" type="curve" smooth="yes"/>
      <point x="625.802001953" y="323.538024902" type="line" smooth="yes"/>
      <point x="619.723999023" y="345.640029907"/>
      <point x="600.688995361" y="345.529037476"/>
      <point x="594.869003296" y="323.357025146" type="curve" smooth="yes"/>
      <point x="545.268005371" y="134.401031494" type="line" smooth="yes"/>
      <point x="532.690002441" y="86.4869232178"/>
      <point x="499.649993896" y="61.0000305176"/>
      <point x="450.113006592" y="61.0000305176" type="curve" smooth="yes"/>
      <point x="121.887008667" y="61.0000305176" type="line" smooth="yes"/>
      <point x="79.6465148926" y="61.0000305176"/>
      <point x="59.6094207764" y="91.7713317871"/>
      <point x="76.6951141357" y="130.402023315" type="curve" smooth="yes"/>
      <point x="287.305007935" y="606.598022461" type="line" smooth="yes"/>
      <point x="307.668014526" y="652.638031006"/>
      <point x="343.545013428" y="676.000030518"/>
      <point x="393.887008667" y="676.000030518" type="curve"/>
    </contour>
  </outline>
</glyph>
<glyph name="underscore" format="1">
  <advance width="1042"/>
  <unicode hex="005F"/>
  <outline>
    <contour>
      <point x="153.886993408" y="1.0" type="curve" smooth="yes"/>
      <point x="891.112991333" y="1" type="line" smooth="yes"/>
      <point x="938.602981567" y="1"/>
      <point x="966.999984741" y="-27.3970031738"/>
      <point x="966.999984741" y="-74.887298584" type="curve" smooth="yes"/>
      <point x="966.999984741" y="-359.112991333" type="line" smooth="yes"/>
      <point x="966.999984741" y="-406.602981567"/>
      <point x="938.602981567" y="-434.999984741"/>
      <point x="891.112991333" y="-434.999984741" type="curve" smooth="yes"/>
      <point x="153.886993408" y="-434.999984741" type="line" smooth="yes"/>
      <point x="106.397003174" y="-434.999984741"/>
      <point x="78.0" y="-406.602981567"/>
      <point x="78.0" y="-359.112991333" type="curve" smooth="yes"/>
      <point x="78.0" y="-74.887298584" type="line" smooth="yes"/>
      <point x="78.0" y="-27.3970031738"/>
      <point x="106.397003174" y="1.0"/>
    </contour>
  </outline>
</glyph>
<glyph name="a" format="1">
  <advance width="1410.1076179"/>
  <unicode hex="0061"/>
  <outline>
    <contour>
      <point x="596.234179119" y="-27" type="curve" smooth="yes"/>
      <point x="872.026569228" y="-39.7093267331"/>
      <point x="988.234179119" y="58"/>
      <point x="1055.23417912" y="146" type="curve"/>
      <point x="1080.23417912" y="49" type="line" smooth="yes"/>
      <point x="1092.23417912" y="1"/>
      <point x="1109.23417912" y="-9"/>
      <point x="1170.23417912" y="0" type="curve" smooth="yes"/>
      <point x="1229.23417912" y="9"/>
      <point x="1241.23417912" y="20"/>
      <point x="1234.23417912" y="73" type="curve" smooth="yes"/>
      <point x="1227.23417912" y="128"/>
      <point x="1219.23417912" y="192"/>
      <point x="1219.23417912" y="257" type="curve" smooth="yes"/>
      <point x="1219.23417912" y="843" type="line" smooth="yes"/>
      <point x="1219.23417912" y="1194"/>
      <point x="1075.23417912" y="1327"/>
      <point x="698.234179119" y="1327" type="curve" smooth="yes"/>
      <point x="474.234179119" y="1327"/>
      <point x="336.234179119" y="1263"/>
      <point x="291.234179119" y="1238" type="curve" smooth="yes"/>
      <point x="268.234179119" y="1225"/>
      <point x="258.234179119" y="1204"/>
      <point x="258.234179119" y="1182" type="curve" smooth="yes"/>
      <point x="258.234179119" y="1140"/>
      <point x="292.234179119" y="1096"/>
      <point x="334.234179119" y="1096" type="curve" smooth="yes"/>
      <point x="343.234179119" y="1096"/>
      <point x="352.234179119" y="1098"/>
      <point x="361.234179119" y="1102" type="curve" smooth="yes"/>
      <point x="426.234179119" y="1132"/>
      <point x="523.234179119" y="1181"/>
      <point x="703.234179119" y="1181" type="curve"/>
      <point x="997.234179119" y="1181"/>
      <point x="1034.23417912" y="1088"/>
      <point x="1034.23417912" y="826" type="curve"/>
      <point x="1034.23417912" y="764" type="line" smooth="yes"/>
      <point x="823.234179119" y="764" type="line" smooth="yes"/>
      <point x="386.234179119" y="764"/>
      <point x="165.234179119" y="777"/>
      <point x="165.234179119" y="388" type="curve" smooth="yes"/>
      <point x="165.234179119" y="95"/>
      <point x="311.234179119" y="-14"/>
    </contour>
    <contour>
      <point x="681.234179119" y="106" type="curve"/>
      <point x="393.234179119" y="106"/>
      <point x="347.234179119" y="186"/>
      <point x="347.234179119" y="409" type="curve" smooth="yes"/>
      <point x="347.234179119" y="639"/>
      <point x="510.234179119" y="635"/>
      <point x="753.234179119" y="635" type="curve" smooth="yes"/>
      <point x="994.234179119" y="635" type="line" smooth="yes"/>
      <point x="1032.23417912" y="635"/>
      <point x="1034.23417912" y="633"/>
      <point x="1034.23417912" y="595" type="curve" smooth="yes"/>
      <point x="1034.23417912" y="258" type="line"/>
      <point x="979.234179119" y="194"/>
      <point x="876.234179119" y="106"/>
    </contour>
  </outline>
</glyph>
<glyph name="c" format="1">
  <advance width="1358.66666667"/>
  <unicode hex="0063"/>
  <outline>
    <contour>
      <point x="739.009070295" y="1326" type="curve" smooth="yes"/>
      <point x="396.009070295" y="1326"/>
      <point x="244.009070295" y="1181"/>
      <point x="188.009070295" y="955" type="curve" smooth="yes"/>
      <point x="169.009070295" y="877"/>
      <point x="170.009070295" y="754"/>
      <point x="170.009070295" y="641" type="curve"/>
      <point x="350.009070295" y="641" type="line" smooth="yes"/>
      <point x="350.009070295" y="785" type="line" smooth="yes"/>
      <point x="350.009070295" y="1079"/>
      <point x="458.009070295" y="1182"/>
      <point x="777.009070295" y="1182" type="curve"/>
      <point x="943.009070295" y="1182"/>
      <point x="1035.0" y="1130"/>
      <point x="1130.0" y="1074" type="curve"/>
      <point x="1134.0" y="1071"/>
      <point x="1139.0" y="1070"/>
      <point x="1143.0" y="1070" type="curve" smooth="yes"/>
      <point x="1174.0" y="1070"/>
      <point x="1209.0" y="1124"/>
      <point x="1209.0" y="1161" type="curve" smooth="yes"/>
      <point x="1209.0" y="1174"/>
      <point x="1205.0" y="1185"/>
      <point x="1195.0" y="1191" type="curve"/>
      <point x="1121.0" y="1245"/>
      <point x="1014.00907029" y="1326"/>
    </contour>
    <contour>
      <point x="739.009070295" y="-26" type="curve" smooth="yes"/>
      <point x="1014.00907029" y="-26"/>
      <point x="1129.0" y="55"/>
      <point x="1203.0" y="109" type="curve"/>
      <point x="1213.0" y="115"/>
      <point x="1217.0" y="126"/>
      <point x="1217.0" y="139" type="curve" smooth="yes"/>
      <point x="1217.0" y="176"/>
      <point x="1182.0" y="230"/>
      <point x="1151.0" y="230" type="curve" smooth="yes"/>
      <point x="1147.0" y="230"/>
      <point x="1142.0" y="229"/>
      <point x="1138.0" y="226" type="curve"/>
      <point x="1043.0" y="170"/>
      <point x="943.009070295" y="118"/>
      <point x="777.009070295" y="118" type="curve"/>
      <point x="458.009070295" y="118"/>
      <point x="350.009070295" y="221"/>
      <point x="350.009070295" y="515" type="curve" smooth="yes"/>
      <point x="350.009070295" y="659" type="line" smooth="yes"/>
      <point x="170.009070295" y="659" type="line"/>
      <point x="170.009070295" y="546"/>
      <point x="169.009070295" y="423"/>
      <point x="188.009070295" y="345" type="curve" smooth="yes"/>
      <point x="244.009070295" y="119"/>
      <point x="396.009070295" y="-26"/>
    </contour>
  </outline>
</glyph>
<glyph name="d" format="1">
  <advance width="1456.02366864"/>
  <unicode hex="0064"/>
  <outline>
    <contour>
      <point x="1171" y="974" type="curve"/>
      <point x="1171" y="1138" type="line"/>
      <point x="1052" y="1229"/>
      <point x="900" y="1326"/>
      <point x="696" y="1326" type="curve"/>
      <point x="422" y="1326"/>
      <point x="170" y="1248"/>
      <point x="170" y="798" type="curve" smooth="yes"/>
      <point x="170" y="488" type="line" smooth="yes"/>
      <point x="170" y="119"/>
      <point x="378" y="-26"/>
      <point x="665" y="-26" type="curve" smooth="yes"/>
      <point x="976" y="-26"/>
      <point x="1079" y="92"/>
      <point x="1171" y="191" type="curve"/>
      <point x="1171" y="329" type="line"/>
      <point x="1106" y="245"/>
      <point x="971" y="118"/>
      <point x="704" y="118" type="curve" smooth="yes"/>
      <point x="435" y="118"/>
      <point x="355" y="233"/>
      <point x="355" y="489" type="curve" smooth="yes"/>
      <point x="355" y="798" type="line" smooth="yes"/>
      <point x="355" y="1085"/>
      <point x="461" y="1182"/>
      <point x="691" y="1182" type="curve" smooth="yes"/>
      <point x="955" y="1182"/>
      <point x="1055" y="1079"/>
    </contour>
    <component base="lc_ascender_stem" xOffset="877"/>
  </outline>
</glyph>
<glyph name="e" format="1">
  <advance width="1421.91156463"/>
  <unicode hex="0065"/>
  <outline>
    <contour>
      <point x="739.0" y="-26" type="curve" smooth="yes"/>
      <point x="1014.0" y="-26"/>
      <point x="1144.0" y="55"/>
      <point x="1218.0" y="109" type="curve"/>
      <point x="1228.0" y="115"/>
      <point x="1232.0" y="126"/>
      <point x="1232.0" y="139" type="curve" smooth="yes"/>
      <point x="1232.0" y="176"/>
      <point x="1197.0" y="230"/>
      <point x="1166.0" y="230" type="curve" smooth="yes"/>
      <point x="1162.0" y="230"/>
      <point x="1157.0" y="229"/>
      <point x="1153.0" y="226" type="curve"/>
      <point x="1058.0" y="170"/>
      <point x="943.0" y="118"/>
      <point x="777.0" y="118" type="curve"/>
      <point x="458.0" y="118"/>
      <point x="350.244897959" y="220"/>
      <point x="350.244897959" y="514" type="curve" smooth="yes"/>
      <point x="350.244897959" y="575" type="line" smooth="yes"/>
      <point x="350.244897959" y="613"/>
      <point x="352.244897959" y="615"/>
      <point x="390.244897959" y="615" type="curve" smooth="yes"/>
      <point x="1202.24489796" y="615" type="line" smooth="yes"/>
      <point x="1266.24489796" y="615"/>
      <point x="1280.24489796" y="678"/>
      <point x="1280.24489796" y="758" type="curve" smooth="yes"/>
      <point x="1280.24489796" y="782"/>
      <point x="1278.24489796" y="809"/>
      <point x="1277.24489796" y="835" type="curve" smooth="yes"/>
      <point x="1262.24489796" y="1122"/>
      <point x="1145.0" y="1326"/>
      <point x="755.0" y="1326" type="curve" smooth="yes"/>
      <point x="374.0" y="1326"/>
      <point x="230.244897959" y="1187"/>
      <point x="182.244897959" y="962" type="curve" smooth="yes"/>
      <point x="167.244897959" y="890"/>
      <point x="170.244897959" y="773"/>
      <point x="170.244897959" y="658" type="curve" smooth="yes"/>
      <point x="170.244897959" y="545"/>
      <point x="169.244897959" y="422"/>
      <point x="188.244897959" y="344" type="curve" smooth="yes"/>
      <point x="244.244897959" y="118"/>
      <point x="396.0" y="-26"/>
    </contour>
    <contour>
      <point x="390.244897959" y="748" type="line" smooth="yes"/>
      <point x="352.244897959" y="748"/>
      <point x="350.244897959" y="750"/>
      <point x="350.244897959" y="788" type="curve" smooth="yes"/>
      <point x="350.244897959" y="825" type="line" smooth="yes"/>
      <point x="350.244897959" y="1036"/>
      <point x="393.0" y="1182"/>
      <point x="756.0" y="1182" type="curve"/>
      <point x="1034.0" y="1182"/>
      <point x="1107.24489796" y="1068"/>
      <point x="1107.24489796" y="813" type="curve" smooth="yes"/>
      <point x="1107.24489796" y="788" type="line" smooth="yes"/>
      <point x="1107.24489796" y="750"/>
      <point x="1105.24489796" y="748"/>
      <point x="1067.24489796" y="748" type="curve" smooth="yes"/>
    </contour>
  </outline>
</glyph>
<glyph name="f" format="1">
  <advance width="875.48816568"/>
  <unicode hex="0066"/>
  <outline>
    <contour>
      <point x="277.0" y="920.0" type="line"/>
      <point x="452.0" y="920.0" type="line"/>
      <point x="452.0" y="1323.0" type="line" smooth="yes"/>
      <point x="452.0" y="1535.0"/>
      <point x="515.0" y="1577.0"/>
      <point x="681.0" y="1577.0" type="curve" smooth="yes"/>
      <point x="742.0" y="1577.0" type="line" smooth="yes"/>
      <point x="756.0" y="1577.0"/>
      <point x="778.0" y="1575.0"/>
      <point x="778.0" y="1623.0" type="curve" smooth="yes"/>
      <point x="778.0" y="1656.0" type="line" smooth="yes"/>
      <point x="778.0" y="1693.0"/>
      <point x="773.0" y="1703.0"/>
      <point x="756.0" y="1706.0" type="curve" smooth="yes"/>
      <point x="466.0" y="1749.0"/>
      <point x="277.0" y="1675.0"/>
      <point x="277.0" y="1330.0" type="curve" smooth="yes"/>
    </contour>
    <contour>
      <point x="663.0" y="1168" type="line" smooth="yes"/>
      <point x="678.0" y="1168"/>
      <point x="692.0" y="1176"/>
      <point x="692.0" y="1224" type="curve" smooth="yes"/>
      <point x="692.0" y="1244" type="line" smooth="yes"/>
      <point x="692.0" y="1292"/>
      <point x="678.0" y="1300"/>
      <point x="663.0" y="1300" type="curve" smooth="yes"/>
      <point x="127.0" y="1300" type="line" smooth="yes"/>
      <point x="113.0" y="1300"/>
      <point x="101.0" y="1292"/>
      <point x="101.0" y="1244" type="curve" smooth="yes"/>
      <point x="101.0" y="1224" type="line" smooth="yes"/>
      <point x="101.0" y="1176"/>
      <point x="113.0" y="1168"/>
      <point x="127.0" y="1168" type="curve" smooth="yes"/>
    </contour>
    <component base="lc_main_stem" xOffset="75.0"/>
  </outline>
</glyph>
<glyph name="g" format="1">
  <advance width="1485.02366864"/>
  <unicode hex="0067"/>
  <outline>
    <contour>
      <point x="788" y="-408" type="curve" smooth="yes"/>
      <point x="1134" y="-399"/>
      <point x="1289" y="-257"/>
      <point x="1289" y="49" type="curve" smooth="yes"/>
      <point x="1289" y="384" type="line"/>
      <point x="1114" y="384" type="line"/>
      <point x="1114" y="28" type="line" smooth="yes"/>
      <point x="1114" y="-198"/>
      <point x="991" y="-271"/>
      <point x="750" y="-271" type="curve" smooth="yes"/>
      <point x="670" y="-271"/>
      <point x="525" y="-253"/>
      <point x="457" y="-241" type="curve" smooth="yes"/>
      <point x="406" y="-234"/>
      <point x="376" y="-237"/>
      <point x="368" y="-286" type="curve" smooth="yes"/>
      <point x="363" y="-315" type="line" smooth="yes"/>
      <point x="357" y="-351"/>
      <point x="386" y="-367"/>
      <point x="425" y="-376" type="curve" smooth="yes"/>
      <point x="534" y="-400"/>
      <point x="706" y="-410"/>
    </contour>
    <component base="lc_bowl_left" yScale="0.958233227086" yOffset="55"/>
    <component base="lc_main_stem" xOffset="912"/>
  </outline>
</glyph>
<glyph name="i" format="1">
  <advance width="611.833333333"/>
  <unicode hex="0069"/>
  <outline>
    <contour>
      <point x="286.0" y="1619" type="line" smooth="yes"/>
      <point x="238.0" y="1619"/>
      <point x="210.0" y="1591"/>
      <point x="210.0" y="1543" type="curve" smooth="yes"/>
      <point x="210.0" y="1501" type="line" smooth="yes"/>
      <point x="210.0" y="1453"/>
      <point x="238.0" y="1425"/>
      <point x="286.0" y="1425" type="curve" smooth="yes"/>
      <point x="325.0" y="1425" type="line" smooth="yes"/>
      <point x="373.0" y="1425"/>
      <point x="401.0" y="1453"/>
      <point x="401.0" y="1501" type="curve" smooth="yes"/>
      <point x="401.0" y="1543" type="line" smooth="yes"/>
      <point x="401.0" y="1591"/>
      <point x="373.0" y="1619"/>
      <point x="325.0" y="1619" type="curve" smooth="yes"/>
    </contour>
    <component base="lc_main_stem" xOffset="15.0"/>
  </outline>
</glyph>
<glyph name="j" format="1">
  <advance width="612.738306919"/>
  <unicode hex="006A"/>
  <outline>
    <contour>
      <point x="303.507537688" y="1619.0" type="line" smooth="yes"/>
      <point x="255.507537688" y="1619.0"/>
      <point x="227.507537688" y="1591.0"/>
      <point x="227.507537688" y="1543.0" type="curve" smooth="yes"/>
      <point x="227.507537688" y="1501.0" type="line" smooth="yes"/>
      <point x="227.507537688" y="1453.0"/>
      <point x="255.507537688" y="1425.0"/>
      <point x="303.507537688" y="1425.0" type="curve" smooth="yes"/>
      <point x="342.507537688" y="1425.0" type="line" smooth="yes"/>
      <point x="390.507537688" y="1425.0"/>
      <point x="418.507537688" y="1453.0"/>
      <point x="418.507537688" y="1501.0" type="curve" smooth="yes"/>
      <point x="418.507537688" y="1543.0" type="line" smooth="yes"/>
      <point x="418.507537688" y="1591.0"/>
      <point x="390.507537688" y="1619.0"/>
      <point x="342.507537688" y="1619.0" type="curve" smooth="yes"/>
    </contour>
    <contour>
      <point x="220.507537688" y="-242" type="curve" smooth="yes"/>
      <point x="342.507537688" y="-242"/>
      <point x="409.507537688" y="-176"/>
      <point x="409.507537688" y="-56" type="curve" smooth="yes"/>
      <point x="409.507537688" y="430" type="line" smooth="yes"/>
      <point x="234.507537688" y="430" type="line"/>
      <point x="234.507537688" y="-27" type="line" smooth="yes"/>
      <point x="234.507537688" y="-121"/>
      <point x="192.507537688" y="-117"/>
      <point x="124.507537688" y="-117" type="curve" smooth="yes"/>
      <point x="106.507537688" y="-117"/>
      <point x="101.507537688" y="-134"/>
      <point x="101.507537688" y="-152" type="curve" smooth="yes"/>
      <point x="101.507537688" y="-193" type="line" smooth="yes"/>
      <point x="101.507537688" y="-222"/>
      <point x="113.507537688" y="-232"/>
      <point x="131.507537688" y="-236" type="curve" smooth="yes"/>
      <point x="147.507537688" y="-240"/>
      <point x="189.507537688" y="-242"/>
    </contour>
    <component base="lc_main_stem" xOffset="32.5075376884"/>
  </outline>
</glyph>
<glyph name="k" format="1">
  <advance width="1177.11047566"/>
  <unicode hex="006B"/>
  <outline>
    <contour>
      <point x="374" y="767" type="line"/>
      <point x="374" y="663" type="line"/>
      <point x="530" y="663" type="line" smooth="yes"/>
      <point x="927" y="70" type="line" smooth="yes"/>
      <point x="961" y="19"/>
      <point x="969" y="0"/>
      <point x="1019" y="0" type="curve" smooth="yes"/>
      <point x="1090" y="0" type="line" smooth="yes"/>
      <point x="1131" y="0"/>
      <point x="1135" y="29"/>
      <point x="1109" y="68" type="curve" smooth="yes"/>
      <point x="683" y="701" type="line" smooth="yes"/>
      <point x="675" y="713"/>
      <point x="676" y="714"/>
      <point x="683" y="724" type="curve" smooth="yes"/>
      <point x="1112" y="1233" type="line" smooth="yes"/>
      <point x="1149" y="1277"/>
      <point x="1135" y="1300"/>
      <point x="1095" y="1300" type="curve" smooth="yes"/>
      <point x="1021" y="1300" type="line" smooth="yes"/>
      <point x="983" y="1300"/>
      <point x="978" y="1290"/>
      <point x="929" y="1233" type="curve" smooth="yes"/>
      <point x="528" y="767" type="line" smooth="yes"/>
    </contour>
    <component base="lc_ascender_stem"/>
  </outline>
</glyph>
<glyph name="o" format="1">
  <advance width="1456"/>
  <unicode hex="006F"/>
  <outline>
    <contour>
      <point x="728" y="118" type="curve" smooth="yes"/>
      <point x="481" y="118"/>
      <point x="350" y="208"/>
      <point x="350" y="483" type="curve" smooth="yes"/>
      <point x="350" y="855" type="line" smooth="yes"/>
      <point x="350" y="1083"/>
      <point x="472" y="1182"/>
      <point x="728" y="1182" type="curve" smooth="yes"/>
      <point x="987" y="1182"/>
      <point x="1106" y="1083"/>
      <point x="1106" y="855" type="curve" smooth="yes"/>
      <point x="1106" y="483" type="line" smooth="yes"/>
      <point x="1106" y="208"/>
      <point x="978" y="118"/>
    </contour>
    <contour>
      <point x="1046" y="-26"/>
      <point x="1243" y="83"/>
      <point x="1283" y="443" type="curve" smooth="yes"/>
      <point x="1285" y="465"/>
      <point x="1286" y="553"/>
      <point x="1286" y="645" type="curve" smooth="yes"/>
      <point x="1286" y="747"/>
      <point x="1285" y="856"/>
      <point x="1283" y="883" type="curve" smooth="yes"/>
      <point x="1255" y="1223"/>
      <point x="1025" y="1326"/>
      <point x="728" y="1326" type="curve" smooth="yes"/>
      <point x="434" y="1326"/>
      <point x="201" y="1223"/>
      <point x="173" y="883" type="curve" smooth="yes"/>
      <point x="171" y="856"/>
      <point x="170" y="747"/>
      <point x="170" y="645" type="curve" smooth="yes"/>
      <point x="170" y="553"/>
      <point x="171" y="465"/>
      <point x="173" y="443" type="curve" smooth="yes"/>
      <point x="213" y="83"/>
      <point x="413" y="-26"/>
      <point x="728" y="-26" type="curve" smooth="yes"/>
    </contour>
  </outline>
</glyph>
<glyph name="q" format="1">
  <advance width="1476.11111111"/>
  <unicode hex="0071"/>
  <outline>
    <contour>
      <point x="709" y="1327" type="curve" smooth="yes"/>
      <point x="451" y="1327"/>
      <point x="223" y="1267"/>
      <point x="183" y="907" type="curve" smooth="yes"/>
      <point x="178" y="861"/>
      <point x="170" y="765"/>
      <point x="170" y="650" type="curve" smooth="yes"/>
      <point x="170" y="534"/>
      <point x="178" y="439"/>
      <point x="185" y="387" type="curve" smooth="yes"/>
      <point x="225" y="90"/>
      <point x="403" y="-27"/>
      <point x="670" y="-27" type="curve" smooth="yes"/>
      <point x="849" y="-27"/>
      <point x="973" y="17"/>
      <point x="1056" y="83" type="curve" smooth="yes"/>
      <point x="1070" y="94"/>
      <point x="1082" y="100"/>
      <point x="1091" y="117" type="curve"/>
      <point x="1091" y="98"/>
      <point x="1092" y="78"/>
      <point x="1092" y="57" type="curve" smooth="yes"/>
      <point x="1095" y="-77"/>
      <point x="1100" y="-270"/>
      <point x="1105" y="-384" type="curve"/>
      <point x="1112" y="-432"/>
      <point x="1124" y="-450"/>
      <point x="1172" y="-450" type="curve"/>
      <point x="1201" y="-450" type="line" smooth="yes"/>
      <point x="1249" y="-450"/>
      <point x="1270" y="-435"/>
      <point x="1271" y="-384" type="curve" smooth="yes"/>
      <point x="1275" y="-217"/>
      <point x="1274" y="221"/>
      <point x="1274" y="461" type="curve" smooth="yes"/>
      <point x="1274" y="738"/>
      <point x="1268" y="989"/>
      <point x="1256" y="1234" type="curve"/>
      <point x="1249" y="1282"/>
      <point x="1245" y="1300"/>
      <point x="1197" y="1300" type="curve"/>
      <point x="1170" y="1300" type="line" smooth="yes"/>
      <point x="1122" y="1300"/>
      <point x="1104" y="1293"/>
      <point x="1100" y="1234" type="curve" smooth="yes"/>
      <point x="1099" y="1219"/>
      <point x="1098" y="1200"/>
      <point x="1097" y="1180" type="curve"/>
      <point x="1088" y="1195"/>
      <point x="1051" y="1226"/>
      <point x="1039" y="1235" type="curve" smooth="yes"/>
      <point x="981" y="1279"/>
      <point x="842" y="1327"/>
    </contour>
    <contour>
      <point x="697" y="1187" type="curve" smooth="yes"/>
      <point x="884" y="1198"/>
      <point x="1017" y="1142"/>
      <point x="1087" y="1057" type="curve"/>
      <point x="1087" y="275" type="line"/>
      <point x="1042" y="187"/>
      <point x="885" y="117"/>
      <point x="710" y="117" type="curve" smooth="yes"/>
      <point x="471" y="117"/>
      <point x="401" y="197"/>
      <point x="375" y="385" type="curve" smooth="yes"/>
      <point x="367" y="442"/>
      <point x="355" y="546"/>
      <point x="355" y="634" type="curve"/>
      <point x="355" y="749"/>
      <point x="363" y="867"/>
      <point x="374" y="927" type="curve" smooth="yes"/>
      <point x="410" y="1121"/>
      <point x="497" y="1175"/>
    </contour>
  </outline>
</glyph>
<glyph name="r" format="1">
  <advance width="868.992110454"/>
  <unicode hex="0072"/>
  <outline>
    <contour>
      <point x="294.0" y="1132" type="line"/>
      <point x="294.0" y="1003" type="line"/>
      <point x="440.0" y="1091"/>
      <point x="573.0" y="1167"/>
      <point x="731.0" y="1167" type="curve"/>
      <point x="781.0" y="1171"/>
      <point x="804.0" y="1175"/>
      <point x="804.0" y="1236" type="curve" smooth="yes"/>
      <point x="804.0" y="1266" type="line" smooth="yes"/>
      <point x="804.0" y="1318"/>
      <point x="774.0" y="1327"/>
      <point x="730.0" y="1324" type="curve" smooth="yes"/>
      <point x="634.0" y="1317"/>
      <point x="545.0" y="1288"/>
      <point x="442.0" y="1224" type="curve" smooth="yes"/>
    </contour>
    <component base="lc_main_stem"/>
  </outline>
</glyph>
<glyph name="s" format="1">
  <advance width="1529.45430175"/>
  <unicode hex="0073"/>
  <outline>
    <contour>
      <point x="763.188405797" y="-27.0" type="curve" smooth="yes"/>
      <point x="411.188405797" y="-27"/>
      <point x="153.188405797" y="8"/>
      <point x="153.188405797" y="397" type="curve" smooth="yes"/>
      <point x="153.188405797" y="416" type="line" smooth="yes"/>
      <point x="153.188405797" y="425"/>
      <point x="160.188405797" y="432"/>
      <point x="170.188405797" y="431" type="curve" smooth="yes"/>
      <point x="617.188405797" y="404" type="line" smooth="yes"/>
      <point x="665.188405797" y="402"/>
      <point x="693.188405797" y="372"/>
      <point x="693.188405797" y="324" type="curve" smooth="yes"/>
      <point x="693.188405797" y="293" type="line" smooth="yes"/>
      <point x="693.188405797" y="255"/>
      <point x="715.188405797" y="233"/>
      <point x="753.188405797" y="233" type="curve" smooth="yes"/>
      <point x="800.188405797" y="233" type="line" smooth="yes"/>
      <point x="838.188405797" y="233"/>
      <point x="860.188405797" y="255"/>
      <point x="860.188405797" y="293" type="curve" smooth="yes"/>
      <point x="860.188405797" y="395" type="line" smooth="yes"/>
      <point x="860.188405797" y="409"/>
      <point x="856.631398961" y="455.492004395"/>
      <point x="817.188405797" y="460.0" type="curve" smooth="yes"/>
      <point x="706.188405797" y="475.0"/>
      <point x="580.188405797" y="492.0"/>
      <point x="475.188405797" y="507.0" type="curve" smooth="yes"/>
      <point x="178.188405797" y="549.0"/>
      <point x="123.188405797" y="685.0"/>
      <point x="123.188405797" y="900.0" type="curve" smooth="yes"/>
      <point x="123.188405797" y="1266.0"/>
      <point x="420.188405797" y="1327.0"/>
      <point x="792.188405797" y="1327.0" type="curve" smooth="yes"/>
      <point x="1065.1884058" y="1327.0"/>
      <point x="1400.1884058" y="1309.0"/>
      <point x="1400.1884058" y="956.0" type="curve" smooth="yes"/>
      <point x="1400.1884058" y="913.0" type="line" smooth="yes"/>
      <point x="1400.1884058" y="888.0"/>
      <point x="1383.1884058" y="873.0"/>
      <point x="1359.1884058" y="874.0" type="curve" smooth="yes"/>
      <point x="936.188405797" y="898.0" type="line" smooth="yes"/>
      <point x="888.188405797" y="900.0"/>
      <point x="860.188405797" y="930.0"/>
      <point x="860.188405797" y="978.0" type="curve" smooth="yes"/>
      <point x="860.188405797" y="1003.0" type="line" smooth="yes"/>
      <point x="860.188405797" y="1041.0"/>
      <point x="838.188405797" y="1063.0"/>
      <point x="800.188405797" y="1063.0" type="curve" smooth="yes"/>
      <point x="753.188405797" y="1063.0" type="line" smooth="yes"/>
      <point x="715.188405797" y="1063.0"/>
      <point x="693.188405797" y="1041.0"/>
      <point x="693.188405797" y="1003.0" type="curve" smooth="yes"/>
      <point x="693.188405797" y="878.0" type="line" smooth="yes"/>
      <point x="693.188405797" y="863.54800415"/>
      <point x="711.680410192" y="851.302001953"/>
      <point x="738.188405797" y="846.0" type="curve" smooth="yes"/>
      <point x="849.188405797" y="828.0"/>
      <point x="975.188405797" y="812.0"/>
      <point x="1080.1884058" y="796.0" type="curve" smooth="yes"/>
      <point x="1360.1884058" y="753.0"/>
      <point x="1431.1884058" y="629.0"/>
      <point x="1431.1884058" y="420.0" type="curve" smooth="yes"/>
      <point x="1431.1884058" y="6.0"/>
      <point x="1100.1884058" y="-27.0"/>
    </contour>
  </outline>
</glyph>
<glyph name="t" format="1">
  <advance width="830.957446809"/>
  <unicode hex="0074"/>
  <outline>
    <contour>
      <point x="244.0" y="770" type="line"/>
      <point x="244.0" y="360" type="line" smooth="yes"/>
      <point x="244.0" y="15"/>
      <point x="433.0" y="-59"/>
      <point x="723.0" y="-16" type="curve" smooth="yes"/>
      <point x="740.0" y="-13"/>
      <point x="745.0" y="-3"/>
      <point x="745.0" y="34" type="curve" smooth="yes"/>
      <point x="745.0" y="67" type="line" smooth="yes"/>
      <point x="745.0" y="115"/>
      <point x="723.0" y="113"/>
      <point x="709.0" y="113" type="curve" smooth="yes"/>
      <point x="648.0" y="113" type="line" smooth="yes"/>
      <point x="482.0" y="113"/>
      <point x="419.0" y="155"/>
      <point x="419.0" y="367" type="curve" smooth="yes"/>
      <point x="419.0" y="770" type="line"/>
    </contour>
    <contour>
      <point x="671.0" y="1168" type="line"/>
      <point x="686.0" y="1168"/>
      <point x="700.0" y="1176"/>
      <point x="700.0" y="1224" type="curve" smooth="yes"/>
      <point x="700.0" y="1244" type="line" smooth="yes"/>
      <point x="700.0" y="1292"/>
      <point x="686.0" y="1300"/>
      <point x="671.0" y="1300" type="curve"/>
      <point x="93.5585284281" y="1300.0" type="line"/>
      <point x="79.5585284281" y="1300.0"/>
      <point x="67.5585284281" y="1292.0"/>
      <point x="67.5585284281" y="1244.0" type="curve" smooth="yes"/>
      <point x="67.5585284281" y="1224.0" type="line" smooth="yes"/>
      <point x="67.5585284281" y="1176.0"/>
      <point x="79.5585284281" y="1168.0"/>
      <point x="93.5585284281" y="1168.0" type="curve"/>
    </contour>
    <component base="lc_main_stem" xOffset="41.5585284281" yOffset="294"/>
  </outline>
</glyph>
<glyph name="v" format="1">
  <advance width="1282.17636428"/>
  <unicode hex="0076"/>
  <outline>
    <contour>
      <point x="1135.08818214" y="1301" type="line" smooth="yes"/>
      <point x="1087.08818214" y="1301"/>
      <point x="1067.08818214" y="1275"/>
      <point x="1045.08818214" y="1229" type="curve" smooth="yes"/>
      <point x="999.08818214" y="1134"/>
      <point x="928.08818214" y="956"/>
      <point x="850.08818214" y="754" type="curve" smooth="yes"/>
      <point x="767.08818214" y="543" type="line" smooth="yes"/>
      <point x="681.08818214" y="323"/>
      <point x="608.08818214" y="137"/>
      <point x="592.08818214" y="68" type="curve" smooth="yes"/>
      <point x="581.08818214" y="22"/>
      <point x="577.08818214" y="0"/>
      <point x="625.08818214" y="0" type="curve" smooth="yes"/>
      <point x="657.08818214" y="0" type="line" smooth="yes"/>
      <point x="705.08818214" y="0"/>
      <point x="720.08818214" y="22"/>
      <point x="745.08818214" y="68" type="curve" smooth="yes"/>
      <point x="783.08818214" y="138"/>
      <point x="856.08818214" y="324"/>
      <point x="942.08818214" y="545" type="curve" smooth="yes"/>
      <point x="1025.08818214" y="755" type="line" smooth="yes"/>
      <point x="1103.08818214" y="957"/>
      <point x="1171.08818214" y="1135"/>
      <point x="1199.08818214" y="1229" type="curve" smooth="yes"/>
      <point x="1213.08818214" y="1275"/>
      <point x="1213.08818214" y="1301"/>
      <point x="1165.08818214" y="1301" type="curve" smooth="yes"/>
    </contour>
    <contour>
      <point x="147.08818214" y="1301" type="curve" smooth="yes"/>
      <point x="117.08818214" y="1301" type="line" smooth="yes"/>
      <point x="69.0881821398" y="1301"/>
      <point x="69.0881821398" y="1275"/>
      <point x="83.0881821398" y="1229" type="curve" smooth="yes"/>
      <point x="111.08818214" y="1135"/>
      <point x="179.08818214" y="957"/>
      <point x="257.08818214" y="755" type="curve" smooth="yes"/>
      <point x="340.08818214" y="545" type="line" smooth="yes"/>
      <point x="426.08818214" y="324"/>
      <point x="499.08818214" y="138"/>
      <point x="537.08818214" y="68" type="curve" smooth="yes"/>
      <point x="562.08818214" y="22"/>
      <point x="577.08818214" y="0"/>
      <point x="625.08818214" y="0" type="curve" smooth="yes"/>
      <point x="657.08818214" y="0" type="line" smooth="yes"/>
      <point x="705.08818214" y="0"/>
      <point x="701.08818214" y="22"/>
      <point x="690.08818214" y="68" type="curve" smooth="yes"/>
      <point x="674.08818214" y="137"/>
      <point x="601.08818214" y="323"/>
      <point x="515.08818214" y="543" type="curve" smooth="yes"/>
      <point x="432.08818214" y="754" type="line" smooth="yes"/>
      <point x="354.08818214" y="956"/>
      <point x="283.08818214" y="1134"/>
      <point x="237.08818214" y="1229" type="curve" smooth="yes"/>
      <point x="215.08818214" y="1275"/>
      <point x="195.08818214" y="1301"/>
    </contour>
  </outline>
</glyph>
<glyph name="w" format="1">
  <advance width="2132.98106508"/>
  <unicode hex="0077"/>
  <outline>
    <contour>
      <point x="1056.99053254" y="787" type="curve"/>
      <point x="1026.99053254" y="475" type="line"/>
      <point x="983.990532544" y="75" type="line" smooth="yes"/>
      <point x="977.990532544" y="27"/>
      <point x="947.990532544" y="0"/>
      <point x="898.990532544" y="0" type="curve" smooth="yes"/>
      <point x="360.990532544" y="0" type="line" smooth="yes"/>
      <point x="311.990532544" y="0"/>
      <point x="280.990532544" y="27"/>
      <point x="271.990532544" y="75" type="curve" smooth="yes"/>
      <point x="79.9905325444" y="1225" type="line"/>
      <point x="77.9905325444" y="1232"/>
      <point x="77.9905325444" y="1239"/>
      <point x="77.9905325444" y="1246" type="curve" smooth="yes"/>
      <point x="77.9905325444" y="1279"/>
      <point x="93.9905325444" y="1300"/>
      <point x="132.990532544" y="1300" type="curve" smooth="yes"/>
      <point x="540.990532544" y="1300" type="line" smooth="yes"/>
      <point x="589.990532544" y="1300"/>
      <point x="599.990532544" y="1273"/>
      <point x="604.990532544" y="1225" type="curve" smooth="yes"/>
      <point x="651.990532544" y="761" type="line"/>
      <point x="690.990532544" y="446" type="line" smooth="yes"/>
      <point x="691.990532544" y="440"/>
      <point x="695.990532544" y="436"/>
      <point x="699.990532544" y="436" type="curve" smooth="yes"/>
      <point x="703.990532544" y="436"/>
      <point x="707.990532544" y="440"/>
      <point x="707.990532544" y="446" type="curve"/>
      <point x="745.990532544" y="761" type="line"/>
      <point x="790.990532544" y="1224" type="line" smooth="yes"/>
      <point x="794.990532544" y="1273"/>
      <point x="805.990532544" y="1300"/>
      <point x="853.990532544" y="1300" type="curve" smooth="yes"/>
      <point x="1286.99053254" y="1300" type="line" smooth="yes"/>
      <point x="1334.99053254" y="1300"/>
      <point x="1345.99053254" y="1273"/>
      <point x="1349.99053254" y="1224" type="curve" smooth="yes"/>
      <point x="1393.99053254" y="761" type="line"/>
      <point x="1428.99053254" y="446" type="line"/>
      <point x="1429.99053254" y="440"/>
      <point x="1432.99053254" y="436"/>
      <point x="1436.99053254" y="436" type="curve" smooth="yes"/>
      <point x="1440.99053254" y="436"/>
      <point x="1444.99053254" y="440"/>
      <point x="1444.99053254" y="446" type="curve"/>
      <point x="1483.99053254" y="761" type="line"/>
      <point x="1529.99053254" y="1224" type="line" smooth="yes"/>
      <point x="1533.99053254" y="1273"/>
      <point x="1544.99053254" y="1300"/>
      <point x="1592.99053254" y="1300" type="curve" smooth="yes"/>
      <point x="1999.99053254" y="1300" type="line" smooth="yes"/>
      <point x="2038.99053254" y="1300"/>
      <point x="2054.99053254" y="1279"/>
      <point x="2054.99053254" y="1246" type="curve" smooth="yes"/>
      <point x="2054.99053254" y="1239"/>
      <point x="2054.99053254" y="1232"/>
      <point x="2052.99053254" y="1225" type="curve"/>
      <point x="1860.99053254" y="75" type="line" smooth="yes"/>
      <point x="1851.99053254" y="27"/>
      <point x="1820.99053254" y="0"/>
      <point x="1771.99053254" y="0" type="curve" smooth="yes"/>
      <point x="1229.99053254" y="0" type="line" smooth="yes"/>
      <point x="1180.99053254" y="0"/>
      <point x="1150.99053254" y="27"/>
      <point x="1144.99053254" y="75" type="curve" smooth="yes"/>
      <point x="1099.99053254" y="475" type="line"/>
      <point x="1068.99053254" y="787" type="line"/>
      <point x="1068.99053254" y="792"/>
      <point x="1065.99053254" y="794"/>
      <point x="1062.99053254" y="794" type="curve" smooth="yes"/>
      <point x="1059.99053254" y="794"/>
      <point x="1057.99053254" y="792"/>
    </contour>
  </outline>
</glyph>
<glyph name="x" format="1">
  <advance width="1051.79244474"/>
  <unicode hex="0078"/>
  <outline>
    <contour>
      <point x="70.8962223705" y="1288" type="line" smooth="yes"/>
      <point x="32.8962223705" y="1267"/>
      <point x="37.8962223705" y="1243"/>
      <point x="56.8962223705" y="1207" type="curve" smooth="yes"/>
      <point x="94.8962223705" y="1133"/>
      <point x="179.89622237" y="1003"/>
      <point x="284.89622237" y="852" type="curve" smooth="yes"/>
      <point x="624.89622237" y="363" type="line" smooth="yes"/>
      <point x="735.89622237" y="203"/>
      <point x="833.89622237" y="62"/>
      <point x="874.89622237" y="16" type="curve" smooth="yes"/>
      <point x="902.89622237" y="-15"/>
      <point x="918.89622237" y="-30"/>
      <point x="956.89622237" y="-8" type="curve" smooth="yes"/>
      <point x="981.89622237" y="6" type="line" smooth="yes"/>
      <point x="1018.89622237" y="28"/>
      <point x="1011.89622237" y="49"/>
      <point x="995.89622237" y="86" type="curve" smooth="yes"/>
      <point x="970.89622237" y="142"/>
      <point x="871.89622237" y="282"/>
      <point x="760.89622237" y="443" type="curve" smooth="yes"/>
      <point x="421.89622237" y="932" type="line" smooth="yes"/>
      <point x="316.89622237" y="1084"/>
      <point x="228.89622237" y="1211"/>
      <point x="176.89622237" y="1277" type="curve" smooth="yes"/>
      <point x="151.89622237" y="1309"/>
      <point x="131.89622237" y="1324"/>
      <point x="93.8962223705" y="1302" type="curve" smooth="yes"/>
    </contour>
    <contour>
      <point x="980.89622237" y="1288" type="curve" smooth="yes"/>
      <point x="957.89622237" y="1302" type="line" smooth="yes"/>
      <point x="919.89622237" y="1324"/>
      <point x="899.89622237" y="1309"/>
      <point x="874.89622237" y="1277" type="curve" smooth="yes"/>
      <point x="822.89622237" y="1211"/>
      <point x="734.89622237" y="1084"/>
      <point x="629.89622237" y="932" type="curve" smooth="yes"/>
      <point x="290.89622237" y="443" type="line" smooth="yes"/>
      <point x="179.89622237" y="282"/>
      <point x="80.8962223705" y="142"/>
      <point x="55.8962223705" y="86" type="curve" smooth="yes"/>
      <point x="39.8962223705" y="49"/>
      <point x="32.8962223705" y="28"/>
      <point x="69.8962223705" y="6" type="curve" smooth="yes"/>
      <point x="94.8962223705" y="-8" type="line" smooth="yes"/>
      <point x="132.89622237" y="-30"/>
      <point x="148.89622237" y="-15"/>
      <point x="176.89622237" y="16" type="curve" smooth="yes"/>
      <point x="217.89622237" y="62"/>
      <point x="315.89622237" y="203"/>
      <point x="426.89622237" y="363" type="curve" smooth="yes"/>
      <point x="766.89622237" y="852" type="line" smooth="yes"/>
      <point x="871.89622237" y="1003"/>
      <point x="956.89622237" y="1133"/>
      <point x="994.89622237" y="1207" type="curve" smooth="yes"/>
      <point x="1013.89622237" y="1243"/>
      <point x="1018.89622237" y="1267"/>
    </contour>
  </outline>
</glyph>
<glyph name="y" format="1">
  <advance width="1402.25331079"/>
  <unicode hex="0079"/>
  <outline>
    <contour>
      <point x="594.681417202" y="1225" type="curve" smooth="yes"/>
      <point x="651.681417202" y="878" type="line"/>
      <point x="710.681417202" y="451" type="line"/>
      <point x="711.681417202" y="430"/>
      <point x="720.681417202" y="430"/>
      <point x="722.681417202" y="451" type="curve" smooth="yes"/>
      <point x="760.681417202" y="878" type="line"/>
      <point x="806.681417202" y="1224" type="line"/>
      <point x="810.681417202" y="1273"/>
      <point x="841.681417202" y="1300"/>
      <point x="889.681417202" y="1300" type="curve" smooth="yes"/>
      <point x="1289.6814172" y="1300" type="line" smooth="yes"/>
      <point x="1335.6814172" y="1300"/>
      <point x="1360.6814172" y="1270"/>
      <point x="1352.6814172" y="1225" type="curve" smooth="yes"/>
      <point x="1145.6814172" y="14" type="line" smooth="yes"/>
      <point x="1092.6814172" y="-299"/>
      <point x="904.681417202" y="-371"/>
      <point x="650.681417202" y="-371" type="curve" smooth="yes"/>
      <point x="553.681417202" y="-371"/>
      <point x="403.681417202" y="-354"/>
      <point x="288.681417202" y="-332" type="curve" smooth="yes"/>
      <point x="242.681417202" y="-324"/>
      <point x="228.681417202" y="-290"/>
      <point x="235.681417202" y="-243" type="curve" smooth="yes"/>
      <point x="256.681417202" y="-90" type="line" smooth="yes"/>
      <point x="263.681417202" y="-42"/>
      <point x="284.681417202" y="-20"/>
      <point x="331.681417202" y="-30" type="curve" smooth="yes"/>
      <point x="400.681417202" y="-43"/>
      <point x="483.681417202" y="-53"/>
      <point x="554.681417202" y="-53" type="curve" smooth="yes"/>
      <point x="597.681417202" y="-53"/>
      <point x="640.681417202" y="-49"/>
      <point x="680.681417202" y="-41" type="curve" smooth="yes"/>
      <point x="714.681417202" y="-33"/>
      <point x="737.681417202" y="-4"/>
      <point x="737.681417202" y="30" type="curve" smooth="yes"/>
      <point x="737.681417202" y="74" type="line"/>
      <point x="421.681417202" y="99" type="line" smooth="yes"/>
      <point x="323.681417202" y="109"/>
      <point x="281.681417202" y="116"/>
      <point x="253.681417202" y="267" type="curve" smooth="yes"/>
      <point x="66.6814172016" y="1225" type="line" smooth="yes"/>
      <point x="58.6814172016" y="1270"/>
      <point x="82.6814172016" y="1300"/>
      <point x="128.681417202" y="1300" type="curve" smooth="yes"/>
      <point x="509.681417202" y="1300" type="line" smooth="yes"/>
      <point x="558.681417202" y="1300"/>
      <point x="588.681417202" y="1273"/>
    </contour>
  </outline>
</glyph>
<glyph name="z" format="1">
  <advance width="1103.45966514"/>
  <unicode hex="007A"/>
  <outline>
    <contour>
      <point x="947.222222222" y="1122" type="line" smooth="yes"/>
      <point x="983.222222222" y="1168"/>
      <point x="990.222222222" y="1172"/>
      <point x="990.222222222" y="1212" type="curve" smooth="yes"/>
      <point x="990.222222222" y="1250" type="line" smooth="yes"/>
      <point x="990.222222222" y="1298"/>
      <point x="960.222222222" y="1300"/>
      <point x="945.222222222" y="1300" type="curve" smooth="yes"/>
      <point x="157.444444444" y="1300" type="line" smooth="yes"/>
      <point x="143.444444444" y="1300"/>
      <point x="131.444444444" y="1298"/>
      <point x="131.444444444" y="1250" type="curve" smooth="yes"/>
      <point x="131.444444444" y="1218" type="line" smooth="yes"/>
      <point x="131.444444444" y="1170"/>
      <point x="143.444444444" y="1168"/>
      <point x="157.444444444" y="1168" type="curve" smooth="yes"/>
      <point x="774.222222222" y="1168" type="line" smooth="yes"/>
      <point x="784.222222222" y="1168"/>
      <point x="784.222222222" y="1163"/>
      <point x="778.222222222" y="1154" type="curve" smooth="yes"/>
      <point x="319.222222222" y="151" type="line"/>
    </contour>
    <contour>
      <point x="982.222222222" y="0" type="line" smooth="yes"/>
      <point x="997.222222222" y="0"/>
      <point x="1011.22222222" y="2"/>
      <point x="1011.22222222" y="50" type="curve" smooth="yes"/>
      <point x="1011.22222222" y="82" type="line" smooth="yes"/>
      <point x="1011.22222222" y="130"/>
      <point x="997.222222222" y="132"/>
      <point x="982.222222222" y="132" type="curve" smooth="yes"/>
      <point x="329.222222222" y="132" type="line" smooth="yes"/>
      <point x="315.222222222" y="132"/>
      <point x="314.222222222" y="143"/>
      <point x="319.222222222" y="151" type="curve" smooth="yes"/>
      <point x="778.222222222" y="1154" type="line"/>
      <point x="152.222222222" y="198" type="line" smooth="yes"/>
      <point x="123.222222222" y="161"/>
      <point x="112.222222222" y="150"/>
      <point x="112.222222222" y="102" type="curve" smooth="yes"/>
      <point x="112.222222222" y="50" type="line" smooth="yes"/>
      <point x="112.222222222" y="2"/>
      <point x="144.222222222" y="0"/>
      <point x="158.222222222" y="0" type="curve" smooth="yes"/>
    </contour>
  </outline>
</glyph>
<glyph name="bar" format="1">
  <advance width="831"/>
  <unicode hex="007C"/>
  <outline>
    <contour>
      <point x="204.886993408" y="1795" type="line"/>
      <point x="624.112991333" y="1795" type="line" smooth="yes"/>
      <point x="671.602981567" y="1795"/>
      <point x="699.999984741" y="1766.6000061"/>
      <point x="699.999984741" y="1719.11000061" type="curve" smooth="yes"/>
      <point x="699.999984741" y="-24.112701416" type="line" smooth="yes"/>
      <point x="699.999984741" y="-71.6029968262"/>
      <point x="671.602981567" y="-100.0"/>
      <point x="624.112991333" y="-100.0" type="curve" smooth="yes"/>
      <point x="204.886993408" y="-100.0" type="line" smooth="yes"/>
      <point x="157.397003174" y="-100.0"/>
      <point x="129.0" y="-71.6029968262"/>
      <point x="129.0" y="-24.112701416" type="curve" smooth="yes"/>
      <point x="129.0" y="1719.11000061" type="line" smooth="yes"/>
      <point x="129.0" y="1766.60002136"/>
      <point x="157.397003174" y="1795.00001526"/>
      <point x="204.886993408" y="1795.00001526" type="curve"/>
    </contour>
  </outline>
</glyph>
<glyph name="braceright" format="1">
  <advance width="1131"/>
  <unicode hex="007D"/>
  <outline>
    <contour>
      <point x="506.988998413" y="837.25" type="line"/>
      <point x="317.478988647" y="1067.75999451"/>
      <point x="562.224990845" y="1588.57000732"/>
      <point x="134.771987915" y="1641.61999512" type="curve" smooth="yes"/>
      <point x="82.9052886963" y="1648.05000305"/>
      <point x="58.9999847412" y="1675.11000061"/>
      <point x="58.9999847412" y="1727.36999512" type="curve" smooth="yes"/>
      <point x="58.9999847412" y="1850.44999695" type="line" smooth="yes"/>
      <point x="58.9999847412" y="1896.75997925"/>
      <point x="88.5491790771" y="1925.32998657"/>
      <point x="134.834991455" y="1923.76998901" type="curve" smooth="yes"/>
      <point x="618.609985352" y="1907.47998047"/>
      <point x="818.379989624" y="1726.69998169"/>
      <point x="884.999984741" y="1227.99998474" type="curve" smooth="yes"/>
      <point x="900.13899231" y="1111.92997742"/>
      <point x="890.515991211" y="985.254989624"/>
      <point x="998.927978516" y="947.91998291" type="curve" smooth="yes"/>
      <point x="1058.4099884" y="927.437988281"/>
      <point x="1073.99998474" y="905.576980591"/>
      <point x="1073.99998474" y="842.672988892" type="curve" smooth="yes"/>
      <point x="1073.99998474" y="753.079986572" type="line" smooth="yes"/>
      <point x="1073.99998474" y="689.496994019"/>
      <point x="1058.82998657" y="667.996002197"/>
      <point x="998.927978516" y="646.677001953" type="curve" smooth="yes"/>
      <point x="889.084991455" y="607.585006714"/>
      <point x="900.326980591" y="474.718002319"/>
      <point x="885.999984741" y="366.0" type="curve"/>
      <point x="850.779983521" y="-140.412994385"/>
      <point x="621.648986816" y="-313.373001099"/>
      <point x="133.917984009" y="-328.839004517" type="curve" smooth="yes"/>
      <point x="87.5134887695" y="-330.311004639"/>
      <point x="57.9999847412" y="-301.718002319"/>
      <point x="57.9999847412" y="-255.291000366" type="curve" smooth="yes"/>
      <point x="57.9999847412" y="-132.550003052" type="line" smooth="yes"/>
      <point x="57.9999847412" y="-80.1241149902"/>
      <point x="81.7476806641" y="-53.1376190186"/>
      <point x="133.74798584" y="-46.4711151123" type="curve" smooth="yes"/>
      <point x="561.179977417" y="8.32604980469"/>
      <point x="318.651977539" y="545.653991699"/>
      <point x="505.597991943" y="757.563980103" type="curve" smooth="yes"/>
      <point x="533.845977783" y="789.584991455"/>
      <point x="534.101989746" y="804.270980835"/>
      <point x="506.988983154" y="837.249984741" type="curve"/>
    </contour>
  </outline>
</glyph>
<glyph name="asciitilde" format="1">
  <advance width="1424"/>
  <unicode hex="007E"/>
  <outline>
    <contour>
      <point x="1278.99000549" y="642" type="line"/>
      <point x="1146.23001099" y="642" type="line" smooth="yes"/>
      <point x="1087.38999939" y="642"/>
      <point x="1063.25999451" y="660.533996582"/>
      <point x="1048.1000061" y="717.382995605" type="curve" smooth="yes"/>
      <point x="1034.38999939" y="768.76499939"/>
      <point x="1003.88999939" y="806.0"/>
      <point x="950.0" y="806.0" type="curve" smooth="yes"/>
      <point x="784.0" y="806.0"/>
      <point x="715.0" y="616.0"/>
      <point x="480.0" y="616.0" type="curve" smooth="yes"/>
      <point x="165.238006592" y="616.0"/>
      <point x="86.042098999" y="839.912994385"/>
      <point x="74.5776062012" y="1100.16000366" type="curve" smooth="yes"/>
      <point x="72.5541992188" y="1146.08999634"/>
      <point x="101.175003052" y="1176.0"/>
      <point x="147.151992798" y="1176.0" type="curve" smooth="yes"/>
      <point x="280.871994019" y="1176.0" type="line" smooth="yes"/>
      <point x="338.581985474" y="1176.0"/>
      <point x="363.31098938" y="1156.57000732"/>
      <point x="376.954986572" y="1100.49000549" type="curve" smooth="yes"/>
      <point x="389.903991699" y="1047.27000427"/>
      <point x="420.422988892" y="1008.0"/>
      <point x="480.999984741" y="1008.0" type="curve" smooth="yes"/>
      <point x="669.999984741" y="1008.0"/>
      <point x="753.999984741" y="1201.0"/>
      <point x="1007.99998474" y="1201.0" type="curve" smooth="yes"/>
      <point x="1289.32998657" y="1201.0"/>
      <point x="1346.27998352" y="1022.00999451"/>
      <point x="1353.20999146" y="717.932998657" type="curve" smooth="yes"/>
      <point x="1354.26998901" y="671.210006714"/>
      <point x="1325.71998596" y="642.0"/>
      <point x="1278.98999023" y="642.0" type="curve"/>
    </contour>
  </outline>
</glyph>
<glyph name="yen" format="1">
  <advance width="1571"/>
  <unicode hex="00A5"/>
  <outline>
    <contour>
      <point x="611.664993286" y="1521.69999695" type="line"/>
      <point x="726.334991455" y="1094.30000305" type="line" smooth="yes"/>
      <point x="737.498001099" y="1052.6900177"/>
      <point x="748.697998047" y="988.303009033"/>
      <point x="752.240997314" y="945.370010376" type="curve" smooth="yes"/>
      <point x="761.88999939" y="828.45401001" type="line" smooth="yes"/>
      <point x="762.588989258" y="819.983001709"/>
      <point x="767.999984741" y="815.0"/>
      <point x="776.499984741" y="815.0" type="curve" smooth="yes"/>
      <point x="778.499984741" y="815.0" type="line" smooth="yes"/>
      <point x="786.999984741" y="815.0"/>
      <point x="792.410980225" y="819.983001709"/>
      <point x="793.109985352" y="828.453994751" type="curve" smooth="yes"/>
      <point x="802.758987427" y="945.369995117" type="line" smooth="yes"/>
      <point x="806.317977905" y="988.494995117"/>
      <point x="817.706985474" y="1052.42999268"/>
      <point x="829.257980347" y="1094.13000488" type="curve" smooth="yes"/>
      <point x="947.741973877" y="1521.87001038" type="line" smooth="yes"/>
      <point x="960.987976074" y="1569.6900177"/>
      <point x="994.267974854" y="1595.00001526"/>
      <point x="1043.88996887" y="1595.00001526" type="curve" smooth="yes"/>
      <point x="1448.10997009" y="1595.00001526" type="line" smooth="yes"/>
      <point x="1491.12998962" y="1595.00001526"/>
      <point x="1512.16998291" y="1564.33001709"/>
      <point x="1496.68998718" y="1524.20001221" type="curve" smooth="yes"/>
      <point x="1189.60998535" y="728.000015259" type="line"/>
      <point x="1354.49998474" y="728.000015259" type="line" smooth="yes"/>
      <point x="1398.61997986" y="728.000015259"/>
      <point x="1424.99998474" y="701.619018555"/>
      <point x="1424.99998474" y="657.500015259" type="curve" smooth="yes"/>
      <point x="1424.99998474" y="655.500015259" type="line" smooth="yes"/>
      <point x="1424.99998474" y="611.381011963"/>
      <point x="1398.61997986" y="585.000015259"/>
      <point x="1354.49998474" y="585.000015259" type="curve" smooth="yes"/>
      <point x="1134.45999146" y="585.000015259" type="line"/>
      <point x="1103.44999695" y="504.603012085" type="line" smooth="yes"/>
      <point x="1096.17997742" y="485.757019043"/>
      <point x="1090.41998291" y="463.936019897"/>
      <point x="1086.70999146" y="442.000015259" type="curve"/>
      <point x="1354.49998474" y="442.000015259" type="line" smooth="yes"/>
      <point x="1398.61997986" y="442.000015259"/>
      <point x="1424.99998474" y="415.619018555"/>
      <point x="1424.99998474" y="371.500015259" type="curve" smooth="yes"/>
      <point x="1424.99998474" y="369.500015259" type="line" smooth="yes"/>
      <point x="1424.99998474" y="325.381011963"/>
      <point x="1398.61997986" y="299.000015259"/>
      <point x="1354.49998474" y="299.000015259" type="curve" smooth="yes"/>
      <point x="1081.99998474" y="299.000015259" type="line"/>
      <point x="1081.99998474" y="75.8873138428" type="line" smooth="yes"/>
      <point x="1081.99998474" y="28.3970184326"/>
      <point x="1053.59999084" y="1.52587890625e-05"/>
      <point x="1006.10998535" y="1.52587890625e-05" type="curve" smooth="yes"/>
      <point x="552.886978149" y="1.52587890625e-05" type="line" smooth="yes"/>
      <point x="505.396987915" y="1.52587890625e-05"/>
      <point x="476.999984741" y="28.3970184326"/>
      <point x="476.999984741" y="75.8873138428" type="curve" smooth="yes"/>
      <point x="476.999984741" y="299.000015259" type="line"/>
      <point x="197.499984741" y="299.000015259" type="line" smooth="yes"/>
      <point x="153.380981445" y="299.000015259"/>
      <point x="126.999984741" y="325.381011963"/>
      <point x="126.999984741" y="369.500015259" type="curve" smooth="yes"/>
      <point x="126.999984741" y="371.500015259" type="line" smooth="yes"/>
      <point x="126.999984741" y="415.619018555"/>
      <point x="153.380981445" y="442.000015259"/>
      <point x="197.499984741" y="442.000015259" type="curve" smooth="yes"/>
      <point x="473.800979614" y="442.000015259" type="line"/>
      <point x="470.212982178" y="467.198013306"/>
      <point x="463.764984131" y="492.786010742"/>
      <point x="455.262985229" y="514.490020752" type="curve" smooth="yes"/>
      <point x="427.641983032" y="585.000015259" type="line"/>
      <point x="197.499984741" y="585.000015259" type="line" smooth="yes"/>
      <point x="153.380981445" y="585.000015259"/>
      <point x="126.999984741" y="611.381011963"/>
      <point x="126.999984741" y="655.500015259" type="curve" smooth="yes"/>
      <point x="126.999984741" y="657.500015259" type="line" smooth="yes"/>
      <point x="126.999984741" y="701.619018555"/>
      <point x="153.380981445" y="728.000015259"/>
      <point x="197.499984741" y="728.000015259" type="curve" smooth="yes"/>
      <point x="371.625991821" y="728.000015259" type="line"/>
      <point x="59.6790924072" y="1524.3400116" type="line" smooth="yes"/>
      <point x="44.0179901123" y="1564.32002258"/>
      <point x="64.9494781494" y="1595.00001526"/>
      <point x="107.886978149" y="1595.00001526" type="curve" smooth="yes"/>
      <point x="516.112976074" y="1595.00001526" type="line" smooth="yes"/>
      <point x="565.68296814" y="1595.00001526"/>
      <point x="598.818969727" y="1569.58001709"/>
      <point x="611.664962769" y="1521.70001221" type="curve"/>
    </contour>
  </outline>
</glyph>
<glyph name="section" format="1">
  <advance width="1362"/>
  <unicode hex="00A7"/>
  <outline>
    <contour>
      <point x="1150.32000732" y="651.585006714" type="line"/>
      <point x="1223.67999268" y="602.83001709"/>
      <point x="1278.0" y="524.624008179"/>
      <point x="1278.0" y="401.000015259" type="curve" smooth="yes"/>
      <point x="1278.0" y="3.00001525879"/>
      <point x="1002.0" y="-39.9999847412"/>
      <point x="664.0" y="-39.9999847412" type="curve" smooth="yes"/>
      <point x="401.0" y="-39.9999847412"/>
      <point x="85.0" y="-17.9999847412"/>
      <point x="85.0" y="321.000015259" type="curve" smooth="yes"/>
      <point x="85.0" y="338.961013794"/>
      <point x="85.2633972168" y="356.659011841"/>
      <point x="85.5198059082" y="374.500015259" type="curve" smooth="yes"/>
      <point x="85.9878997803" y="407.072021484"/>
      <point x="105.190002441" y="426.000015259"/>
      <point x="137.76600647" y="426.000015259" type="curve" smooth="yes"/>
      <point x="561.113006592" y="426.000015259" type="line" smooth="yes"/>
      <point x="608.602996826" y="426.000015259"/>
      <point x="637.0" y="397.603012085"/>
      <point x="637.0" y="350.113021851" type="curve" smooth="yes"/>
      <point x="637.0" y="270.500015259" type="line" smooth="yes"/>
      <point x="637.0" y="248.284011841"/>
      <point x="650.283996582" y="235.000015259"/>
      <point x="672.5" y="235.000015259" type="curve" smooth="yes"/>
      <point x="674.5" y="235.000015259" type="line" smooth="yes"/>
      <point x="696.716003418" y="235.000015259"/>
      <point x="710.0" y="248.284011841"/>
      <point x="710.0" y="270.500015259" type="curve" smooth="yes"/>
      <point x="710.0" y="427.404022217" type="line" smooth="yes"/>
      <point x="710.0" y="464.699035645"/>
      <point x="687.699005127" y="487.000030518"/>
      <point x="650.404006958" y="487.000030518" type="curve" smooth="yes"/>
      <point x="455.0" y="487.000030518" type="line" smooth="yes"/>
      <point x="231.0" y="487.000030518"/>
      <point x="73.0" y="555.000030518"/>
      <point x="73.0" y="783.000030518" type="curve" smooth="yes"/>
      <point x="73.0" y="911.349029541"/>
      <point x="141.580001831" y="993.384033203"/>
      <point x="231.669006348" y="1032.47003174" type="curve"/>
      <point x="155.152008057" y="1001.86003113" type="line"/>
      <point x="240.37600708" y="1035.95004272"/>
      <point x="242.546005249" y="1055.33004761"/>
      <point x="213.240005493" y="1075.53004456" type="curve" smooth="yes"/>
      <point x="139.628997803" y="1126.26004028"/>
      <point x="88.0" y="1206.17004395"/>
      <point x="88.0" y="1329.00004578" type="curve" smooth="yes"/>
      <point x="88.0" y="1727.00004578"/>
      <point x="364.0" y="1770.00004578"/>
      <point x="702.0" y="1770.00004578" type="curve" smooth="yes"/>
      <point x="964.0" y="1770.00004578"/>
      <point x="1283.0" y="1749.00004578"/>
      <point x="1283.0" y="1411.00004578" type="curve" smooth="yes"/>
      <point x="1283.0" y="1393.04003906"/>
      <point x="1282.74000549" y="1375.34004211"/>
      <point x="1282.47999573" y="1357.50004578" type="curve" smooth="yes"/>
      <point x="1282.00999451" y="1324.93003845"/>
      <point x="1262.80999756" y="1306.00004578"/>
      <point x="1230.22999573" y="1306.00004578" type="curve" smooth="yes"/>
      <point x="805.886993408" y="1306.00004578" type="line" smooth="yes"/>
      <point x="758.397003174" y="1306.00004578"/>
      <point x="730.0" y="1334.40003967"/>
      <point x="730.0" y="1381.89004517" type="curve" smooth="yes"/>
      <point x="730.0" y="1461.50004578" type="line" smooth="yes"/>
      <point x="730.0" y="1483.720047"/>
      <point x="716.716003418" y="1497.00004578"/>
      <point x="694.5" y="1497.00004578" type="curve" smooth="yes"/>
      <point x="692.5" y="1497.00004578" type="line" smooth="yes"/>
      <point x="670.283996582" y="1497.00004578"/>
      <point x="657.0" y="1483.720047"/>
      <point x="657.0" y="1461.50004578" type="curve" smooth="yes"/>
      <point x="657.0" y="1293.99005127" type="line" smooth="yes"/>
      <point x="657.0" y="1272.46006775"/>
      <point x="692.757995605" y="1234.4200592"/>
      <point x="714.240997314" y="1233.08006287" type="curve" smooth="yes"/>
      <point x="735.147994995" y="1231.78005981"/>
      <point x="757.757995605" y="1231.9100647"/>
      <point x="776.0" y="1231.00006104" type="curve" smooth="yes"/>
      <point x="965.0" y="1223.00006104"/>
      <point x="1294.0" y="1212.00006104"/>
      <point x="1294.0" y="949.000061035" type="curve" smooth="yes"/>
      <point x="1294.0" y="833.731063843"/>
      <point x="1241.30000305" y="761.579055786"/>
      <point x="1168.72999573" y="718.986053467" type="curve" smooth="yes"/>
      <point x="1166.44000244" y="717.646057129"/>
      <point x="1166.8999939" y="716.793060303"/>
      <point x="1169.28999329" y="717.926055908" type="curve" smooth="yes"/>
      <point x="1232.36999512" y="747.809051514" type="line"/>
      <point x="1148.41999817" y="708.043060303"/>
      <point x="1145.19999695" y="654.820068359"/>
      <point x="1221.55000305" y="606.60105896" type="curve"/>
    </contour>
    <contour>
      <point x="681.5" y="748.000061035" type="curve" smooth="yes"/>
      <point x="683.5" y="748.000061035" type="line" smooth="yes"/>
      <point x="704.464004517" y="748.000061035"/>
      <point x="717.0" y="760.536056519"/>
      <point x="717.0" y="781.500061035" type="curve" smooth="yes"/>
      <point x="717.0" y="937.500061035" type="line" smooth="yes"/>
      <point x="717.0" y="958.464065552"/>
      <point x="704.464004517" y="971.000061035"/>
      <point x="683.5" y="971.000061035" type="curve" smooth="yes"/>
      <point x="681.5" y="971.000061035" type="line" smooth="yes"/>
      <point x="660.535995483" y="971.000061035"/>
      <point x="648.0" y="958.464065552"/>
      <point x="648.0" y="937.500061035" type="curve" smooth="yes"/>
      <point x="648.0" y="781.500061035" type="line" smooth="yes"/>
      <point x="648.0" y="760.536056519"/>
      <point x="660.535995483" y="748.000061035"/>
    </contour>
  </outline>
</glyph>
<glyph name="ordfeminine" format="1">
  <advance width="1471"/>
  <unicode hex="00AA"/>
  <outline>
    <contour>
      <point x="1380" y="1241" type="line"/>
      <point x="1380" y="545.996994019" type="line"/>
      <point x="1369.1000061" y="535.104995728" type="line"/>
      <point x="1379.32000732" y="545.315979004"/>
      <point x="1366.6499939" y="549.458984375"/>
      <point x="1368.8500061" y="535.186981201" type="curve" smooth="yes"/>
      <point x="1395.17001343" y="364.618988037" type="line" smooth="yes"/>
      <point x="1402.33999634" y="318.208999634"/>
      <point x="1378.1499939" y="290.0"/>
      <point x="1331.19000244" y="290.0" type="curve" smooth="yes"/>
      <point x="962.464996338" y="290.0" type="line" smooth="yes"/>
      <point x="913.850997925" y="290.0"/>
      <point x="879.656005859" y="313.026992798"/>
      <point x="861.37600708" y="358.072998047" type="curve" smooth="yes"/>
      <point x="856.659011841" y="369.697998047" type="line" smooth="yes"/>
      <point x="844.039016724" y="400.796005249"/>
      <point x="819.958007812" y="405.033004761"/>
      <point x="797.483016968" y="380.108001709" type="curve" smooth="yes"/>
      <point x="731.744018555" y="307.20199585"/>
      <point x="629.293014526" y="263.0"/>
      <point x="493.000015259" y="263.0" type="curve" smooth="yes"/>
      <point x="208.000015259" y="263.0"/>
      <point x="72.0000152588" y="396.0"/>
      <point x="72.0000152588" y="677.0" type="curve" smooth="yes"/>
      <point x="72.0000152588" y="982.0"/>
      <point x="234.000015259" y="1113.0"/>
      <point x="544.000015259" y="1113.0" type="curve" smooth="yes"/>
      <point x="624.276016235" y="1113.0"/>
      <point x="692.732009888" y="1103.42999268"/>
      <point x="752.746017456" y="1088.52000427" type="curve" smooth="yes"/>
      <point x="787.670013428" y="1079.83999634"/>
      <point x="810.000015259" y="1097.30000305"/>
      <point x="810.000015259" y="1133.27999878" type="curve" smooth="yes"/>
      <point x="810.000015259" y="1335.3999939" type="line" smooth="yes"/>
      <point x="810.000015259" y="1372.69999695"/>
      <point x="787.699020386" y="1395.0"/>
      <point x="750.404022217" y="1395.0" type="curve" smooth="yes"/>
      <point x="730.59602356" y="1395.0" type="line" smooth="yes"/>
      <point x="693.301010132" y="1395.0"/>
      <point x="671.000015259" y="1372.69999695"/>
      <point x="671.000015259" y="1335.3999939" type="curve" smooth="yes"/>
      <point x="671.000015259" y="1279.88999939" type="line" smooth="yes"/>
      <point x="671.000015259" y="1232.03997803"/>
      <point x="642.983016968" y="1202.92997742"/>
      <point x="595.168014526" y="1201.10998535" type="curve" smooth="yes"/>
      <point x="197.974014282" y="1185.97998047" type="line" smooth="yes"/>
      <point x="164.965011597" y="1184.7199707"/>
      <point x="141.849014282" y="1204.65997314"/>
      <point x="138.250015259" y="1237.49996948" type="curve" smooth="yes"/>
      <point x="136.250015259" y="1255.74996948"/>
      <point x="135.000015259" y="1274.49996948"/>
      <point x="135.000015259" y="1293.99996948" type="curve" smooth="yes"/>
      <point x="135.000015259" y="1513.99996948"/>
      <point x="315.000015259" y="1575.99996948"/>
      <point x="515.000015259" y="1602.99996948" type="curve" smooth="yes"/>
      <point x="578.000015259" y="1611.99996948"/>
      <point x="653.000015259" y="1615.99996948"/>
      <point x="739.000015259" y="1615.99996948" type="curve" smooth="yes"/>
      <point x="921.000015259" y="1615.99996948"/>
      <point x="1068.00001526" y="1600.99996948"/>
      <point x="1186.00001526" y="1552.99996948" type="curve" smooth="yes"/>
      <point x="1289.00001526" y="1510.99996948"/>
      <point x="1367.00001526" y="1443.99996948"/>
      <point x="1377.00001526" y="1320.99996948" type="curve" smooth="yes"/>
      <point x="1379.00001526" y="1292.99996948"/>
      <point x="1380.00001526" y="1265.99996948"/>
      <point x="1380.00001526" y="1240.99996948" type="curve"/>
    </contour>
    <contour>
      <point x="750.404022217" y="941.999969482" type="curve" smooth="yes"/>
      <point x="703.59602356" y="941.999969482" type="line" smooth="yes"/>
      <point x="666.301010132" y="941.999969482"/>
      <point x="644.000015259" y="919.698974609"/>
      <point x="644.000015259" y="882.40397644" type="curve" smooth="yes"/>
      <point x="644.000015259" y="548.595977783" type="line" smooth="yes"/>
      <point x="644.000015259" y="511.300964355"/>
      <point x="666.301010132" y="488.999969482"/>
      <point x="703.596008301" y="488.999969482" type="curve" smooth="yes"/>
      <point x="750.404006958" y="488.999969482" type="line" smooth="yes"/>
      <point x="787.699020386" y="488.999969482"/>
      <point x="810.000015259" y="511.300964355"/>
      <point x="810.000015259" y="548.595962524" type="curve" smooth="yes"/>
      <point x="810.000015259" y="882.403961182" type="line" smooth="yes"/>
      <point x="810.000015259" y="919.698974609"/>
      <point x="787.699020386" y="941.999969482"/>
    </contour>
    <contour>
      <point x="1380.00001526" y="545.996963501" type="line"/>
      <point x="1380.00001526" y="545.706970215" type="line" smooth="yes"/>
      <point x="1380.00001526" y="532.157974243"/>
      <point x="1389.79000854" y="555.787963867"/>
      <point x="1380.21002197" y="546.206970215" type="curve" smooth="yes"/>
    </contour>
  </outline>
</glyph>
<glyph name="guillemotleft" format="1">
  <advance width="1806"/>
  <unicode hex="00AB"/>
  <outline>
    <contour>
      <point x="774" y="190" type="line"/>
      <point x="755" y="190"/>
      <point x="732" y="197"/>
      <point x="711" y="213" type="curve" smooth="yes"/>
      <point x="184" y="593" type="line" smooth="yes"/>
      <point x="124" y="636"/>
      <point x="94" y="706"/>
      <point x="94" y="775" type="curve" smooth="yes"/>
      <point x="95" y="846"/>
      <point x="126" y="919"/>
      <point x="184" y="961" type="curve" smooth="yes"/>
      <point x="711" y="1341" type="line" smooth="yes"/>
      <point x="735" y="1358"/>
      <point x="757" y="1364"/>
      <point x="776" y="1364" type="curve" smooth="yes"/>
      <point x="822" y="1364"/>
      <point x="857" y="1326"/>
      <point x="857" y="1278" type="curve" smooth="yes"/>
      <point x="857" y="1256"/>
      <point x="850" y="1233"/>
      <point x="832" y="1209" type="curve" smooth="yes"/>
      <point x="534.45199585" y="824.147994995" type="line" smooth="yes"/>
      <point x="510.664001465" y="793.379989624"/>
      <point x="510.664001465" y="760.619979858"/>
      <point x="534.45199585" y="729.851989746" type="curve" smooth="yes"/>
      <point x="832.0" y="344.999984741" type="line" smooth="yes"/>
      <point x="849.0" y="322.999984741"/>
      <point x="855.0" y="299.999984741"/>
      <point x="855.0" y="276.999984741" type="curve" smooth="yes"/>
      <point x="855.0" y="229.999984741"/>
      <point x="820.0" y="189.999984741"/>
      <point x="774.0" y="189.999984741" type="curve"/>
    </contour>
    <contour>
      <point x="1510.0" y="189.999984741" type="line"/>
      <point x="1491.0" y="189.999984741"/>
      <point x="1469.0" y="195.999984741"/>
      <point x="1446.0" y="212.999984741" type="curve" smooth="yes"/>
      <point x="920.0" y="592.999984741" type="line" smooth="yes"/>
      <point x="860.0" y="635.999984741"/>
      <point x="830.0" y="705.999984741"/>
      <point x="830.0" y="774.999984741" type="curve" smooth="yes"/>
      <point x="831.0" y="845.999984741"/>
      <point x="862.0" y="918.999984741"/>
      <point x="920.0" y="960.999984741" type="curve" smooth="yes"/>
      <point x="1446.0" y="1340.99998474" type="line" smooth="yes"/>
      <point x="1470.0" y="1357.99998474"/>
      <point x="1494.0" y="1363.99998474"/>
      <point x="1512.0" y="1363.99998474" type="curve" smooth="yes"/>
      <point x="1558.0" y="1363.99998474"/>
      <point x="1592.0" y="1325.99998474"/>
      <point x="1592.0" y="1277.99998474" type="curve" smooth="yes"/>
      <point x="1592.0" y="1255.99998474"/>
      <point x="1586.0" y="1232.99998474"/>
      <point x="1568.0" y="1208.99998474" type="curve" smooth="yes"/>
      <point x="1270.44999695" y="824.147979736" type="line" smooth="yes"/>
      <point x="1246.6599884" y="793.379974365"/>
      <point x="1246.6599884" y="760.6199646"/>
      <point x="1270.44998169" y="729.851974487" type="curve" smooth="yes"/>
      <point x="1567.99998474" y="344.999969482" type="line" smooth="yes"/>
      <point x="1584.99998474" y="322.999969482"/>
      <point x="1589.99998474" y="299.999969482"/>
      <point x="1589.99998474" y="276.999969482" type="curve" smooth="yes"/>
      <point x="1589.99998474" y="229.999969482"/>
      <point x="1555.99998474" y="189.999969482"/>
      <point x="1509.99998474" y="189.999969482" type="curve"/>
    </contour>
  </outline>
</glyph>
<glyph name="logicalnot" format="1">
  <advance width="1269"/>
  <unicode hex="00AC"/>
  <outline>
    <contour>
      <point x="1179" y="1029.11000061" type="line"/>
      <point x="1179" y="375.886993408" type="line" smooth="yes"/>
      <point x="1179" y="328.397003174"/>
      <point x="1150.6000061" y="300.0"/>
      <point x="1103.11000061" y="300.0" type="curve" smooth="yes"/>
      <point x="1025.88999939" y="300.0" type="line" smooth="yes"/>
      <point x="978.396987915" y="300.0"/>
      <point x="949.999984741" y="328.397003174"/>
      <point x="949.999984741" y="375.886993408" type="curve" smooth="yes"/>
      <point x="949.999984741" y="731.403991699" type="line" smooth="yes"/>
      <point x="949.999984741" y="768.699005127"/>
      <point x="927.698989868" y="791.0"/>
      <point x="890.403991699" y="791.0" type="curve" smooth="yes"/>
      <point x="158.886993408" y="791.0" type="line" smooth="yes"/>
      <point x="111.397003174" y="791.0"/>
      <point x="83.0" y="819.397003174"/>
      <point x="83.0" y="866.886993408" type="curve" smooth="yes"/>
      <point x="83.0" y="1029.11000061" type="line" smooth="yes"/>
      <point x="83.0" y="1076.60002136"/>
      <point x="111.397003174" y="1105.00001526"/>
      <point x="158.886993408" y="1105.00001526" type="curve" smooth="yes"/>
      <point x="1103.11000061" y="1105.00001526" type="line" smooth="yes"/>
      <point x="1150.60002136" y="1105.00001526"/>
      <point x="1179.00001526" y="1076.60002136"/>
      <point x="1179.00001526" y="1029.11001587" type="curve"/>
    </contour>
  </outline>
</glyph>
<glyph name="registered" format="1">
  <advance width="1861"/>
  <unicode hex="00AE"/>
  <outline>
    <contour>
      <point x="1780" y="539" type="line" smooth="yes"/>
      <point x="1780" y="14"/>
      <point x="1377" y="-101"/>
      <point x="932" y="-101" type="curve" smooth="yes"/>
      <point x="421" y="-101"/>
      <point x="84" y="42"/>
      <point x="84" y="539" type="curve" smooth="yes"/>
      <point x="84" y="1116" type="line" smooth="yes"/>
      <point x="84" y="1638"/>
      <point x="490" y="1749"/>
      <point x="932" y="1749" type="curve" smooth="yes"/>
      <point x="1441" y="1749"/>
      <point x="1780" y="1610"/>
      <point x="1780" y="1116" type="curve" smooth="yes"/>
    </contour>
    <contour>
      <point x="932" y="1573" type="curve" smooth="yes"/>
      <point x="520" y="1573"/>
      <point x="323" y="1471"/>
      <point x="323" y="1114" type="curve" smooth="yes"/>
      <point x="323" y="535" type="line" smooth="yes"/>
      <point x="323" y="169"/>
      <point x="523" y="68"/>
      <point x="932" y="68" type="curve" smooth="yes"/>
      <point x="1300" y="68"/>
      <point x="1541" y="156"/>
      <point x="1541" y="482" type="curve" smooth="yes"/>
      <point x="1541" y="1165" type="line" smooth="yes"/>
      <point x="1541" y="1500"/>
      <point x="1275" y="1573"/>
    </contour>
    <contour>
      <point x="1116" y="845.5" type="line"/>
      <point x="1116" y="843.5" type="line" smooth="yes"/>
      <point x="1116" y="838.203994751"/>
      <point x="1119.19000244" y="834.79800415"/>
      <point x="1124.47000122" y="834.464996338" type="curve" smooth="yes"/>
      <point x="1227.0" y="828.0" type="line" smooth="yes"/>
      <point x="1311.0" y="822.0"/>
      <point x="1357.0" y="751.0"/>
      <point x="1357.0" y="643.0" type="curve" smooth="yes"/>
      <point x="1357.0" y="354.886993408" type="line" smooth="yes"/>
      <point x="1357.0" y="307.397003174"/>
      <point x="1328.6000061" y="279.0"/>
      <point x="1281.11000061" y="279.0" type="curve" smooth="yes"/>
      <point x="1053.88999939" y="279.0" type="line" smooth="yes"/>
      <point x="1006.39997864" y="279.0"/>
      <point x="977.999984741" y="307.397003174"/>
      <point x="977.999984741" y="354.886993408" type="curve" smooth="yes"/>
      <point x="977.999984741" y="715.5" type="line" smooth="yes"/>
      <point x="977.999984741" y="740.845001221"/>
      <point x="962.844985962" y="756.0"/>
      <point x="937.499984741" y="756.0" type="curve" smooth="yes"/>
      <point x="935.499984741" y="756.0" type="line" smooth="yes"/>
      <point x="910.154983521" y="756.0"/>
      <point x="894.999984741" y="740.845001221"/>
      <point x="894.999984741" y="715.5" type="curve" smooth="yes"/>
      <point x="894.999984741" y="354.886993408" type="line" smooth="yes"/>
      <point x="894.999984741" y="307.397003174"/>
      <point x="866.602981567" y="279.0"/>
      <point x="819.112991333" y="279.0" type="curve" smooth="yes"/>
      <point x="581.886993408" y="279.0" type="line" smooth="yes"/>
      <point x="534.397003174" y="279.0"/>
      <point x="506.0" y="307.397003174"/>
      <point x="506.0" y="354.886993408" type="curve" smooth="yes"/>
      <point x="506.0" y="1358.11000061" type="line" smooth="yes"/>
      <point x="506.0" y="1405.60002136"/>
      <point x="534.397003174" y="1434.00001526"/>
      <point x="581.886993408" y="1434.00001526" type="curve" smooth="yes"/>
      <point x="1016.0" y="1434.00001526" type="line" smooth="yes"/>
      <point x="1171.0" y="1434.00001526"/>
      <point x="1361.0" y="1423.00001526"/>
      <point x="1361.0" y="1164.00001526" type="curve" smooth="yes"/>
      <point x="1361.0" y="1071.00001526" type="line" smooth="yes"/>
      <point x="1361.0" y="945.000015259"/>
      <point x="1308.0" y="871.000015259"/>
      <point x="1226.0" y="864.000015259" type="curve" smooth="yes"/>
      <point x="1124.47000122" y="854.770019531" type="line" smooth="yes"/>
      <point x="1119.16999817" y="854.288024902"/>
      <point x="1116.0" y="850.819030762"/>
      <point x="1116.0" y="845.500030518" type="curve" smooth="yes"/>
    </contour>
    <contour>
      <point x="895.0" y="1233.50003052" type="curve" smooth="yes"/>
      <point x="895.0" y="955.500030518" type="line" smooth="yes"/>
      <point x="895.0" y="930.155029297"/>
      <point x="910.154998779" y="915.000030518"/>
      <point x="935.5" y="915.000030518" type="curve" smooth="yes"/>
      <point x="937.5" y="915.000030518" type="line" smooth="yes"/>
      <point x="962.845001221" y="915.000030518"/>
      <point x="978.0" y="930.155029297"/>
      <point x="978.0" y="955.500030518" type="curve" smooth="yes"/>
      <point x="978.0" y="1233.50003052" type="line" smooth="yes"/>
      <point x="978.0" y="1258.84002686"/>
      <point x="962.845001221" y="1274.00003052"/>
      <point x="937.5" y="1274.00003052" type="curve" smooth="yes"/>
      <point x="935.5" y="1274.00003052" type="line" smooth="yes"/>
      <point x="910.154998779" y="1274.00003052"/>
      <point x="895.0" y="1258.84002686"/>
    </contour>
  </outline>
</glyph>
<glyph name="macron" format="1">
  <advance width="999"/>
  <unicode hex="00AF"/>
  <outline>
    <contour>
      <point x="162.886993408" y="897.0" type="curve" smooth="yes"/>
      <point x="844.112991333" y="897" type="line" smooth="yes"/>
      <point x="891.602981567" y="897"/>
      <point x="919.999984741" y="868.602996826"/>
      <point x="919.999984741" y="821.113006592" type="curve" smooth="yes"/>
      <point x="919.999984741" y="741.887008667" type="line" smooth="yes"/>
      <point x="919.999984741" y="694.397018433"/>
      <point x="891.602981567" y="666.000015259"/>
      <point x="844.112991333" y="666.000015259" type="curve" smooth="yes"/>
      <point x="162.886993408" y="666.000015259" type="line" smooth="yes"/>
      <point x="115.397003174" y="666.000015259"/>
      <point x="87.0" y="694.397018433"/>
      <point x="87.0" y="741.887008667" type="curve" smooth="yes"/>
      <point x="87.0" y="821.113006592" type="line" smooth="yes"/>
      <point x="87.0" y="868.602996826"/>
      <point x="115.397003174" y="897.0"/>
    </contour>
  </outline>
</glyph>
<glyph name="plusminus" format="1">
  <advance width="1304"/>
  <unicode hex="00B1"/>
  <outline>
    <contour>
      <point x="167.886993408" y="1214" type="line"/>
      <point x="397.403991699" y="1214" type="line" smooth="yes"/>
      <point x="434.699005127" y="1214"/>
      <point x="457.0" y="1236.30000305"/>
      <point x="457.0" y="1273.6000061" type="curve" smooth="yes"/>
      <point x="457.0" y="1519.11000061" type="line" smooth="yes"/>
      <point x="457.0" y="1566.60002136"/>
      <point x="485.397003174" y="1595.00001526"/>
      <point x="532.886993408" y="1595.00001526" type="curve" smooth="yes"/>
      <point x="773.112991333" y="1595.00001526" type="line" smooth="yes"/>
      <point x="820.602981567" y="1595.00001526"/>
      <point x="848.999984741" y="1566.60002136"/>
      <point x="848.999984741" y="1519.11001587" type="curve" smooth="yes"/>
      <point x="848.999984741" y="1273.60002136" type="line" smooth="yes"/>
      <point x="848.999984741" y="1236.30001831"/>
      <point x="871.300979614" y="1214.00001526"/>
      <point x="908.595977783" y="1214.00001526" type="curve" smooth="yes"/>
      <point x="1137.10998535" y="1214.00001526" type="line" smooth="yes"/>
      <point x="1184.6000061" y="1214.00001526"/>
      <point x="1213.0" y="1185.60002136"/>
      <point x="1213.0" y="1138.11001587" type="curve" smooth="yes"/>
      <point x="1213.0" y="956.887008667" type="line" smooth="yes"/>
      <point x="1213.0" y="909.397018433"/>
      <point x="1184.6000061" y="881.000015259"/>
      <point x="1137.11000061" y="881.000015259" type="curve" smooth="yes"/>
      <point x="908.595993042" y="881.000015259" type="line" smooth="yes"/>
      <point x="871.300979614" y="881.000015259"/>
      <point x="848.999984741" y="858.699020386"/>
      <point x="848.999984741" y="821.404022217" type="curve" smooth="yes"/>
      <point x="848.999984741" y="578.887023926" type="line" smooth="yes"/>
      <point x="848.999984741" y="531.397033691"/>
      <point x="820.602981567" y="503.000030518"/>
      <point x="773.112991333" y="503.000030518" type="curve" smooth="yes"/>
      <point x="532.886993408" y="503.000030518" type="line" smooth="yes"/>
      <point x="485.397003174" y="503.000030518"/>
      <point x="457.0" y="531.397033691"/>
      <point x="457.0" y="578.887023926" type="curve" smooth="yes"/>
      <point x="457.0" y="821.404022217" type="line" smooth="yes"/>
      <point x="457.0" y="858.699035645"/>
      <point x="434.699005127" y="881.000030518"/>
      <point x="397.404006958" y="881.000030518" type="curve" smooth="yes"/>
      <point x="167.887008667" y="881.000030518" type="line" smooth="yes"/>
      <point x="120.397018433" y="881.000030518"/>
      <point x="92.0000152588" y="909.397033691"/>
      <point x="92.0000152588" y="956.887023926" type="curve" smooth="yes"/>
      <point x="92.0000152588" y="1138.11003113" type="line" smooth="yes"/>
      <point x="92.0000152588" y="1185.60005188"/>
      <point x="120.397018433" y="1214.00004578"/>
      <point x="167.887008667" y="1214.00004578" type="curve"/>
    </contour>
    <contour>
      <point x="305.887008667" y="300.000045776" type="curve" smooth="yes"/>
      <point x="988.113006592" y="300.000045776" type="line" smooth="yes"/>
      <point x="1035.6000061" y="300.000045776"/>
      <point x="1064.0" y="271.603042603"/>
      <point x="1064.0" y="224.113052368" type="curve" smooth="yes"/>
      <point x="1064.0" y="74.8873596191" type="line" smooth="yes"/>
      <point x="1064.0" y="27.397064209"/>
      <point x="1035.6000061" y="-0.999938964844"/>
      <point x="988.113006592" y="-0.999938964844" type="curve" smooth="yes"/>
      <point x="305.887008667" y="-0.999938964844" type="line" smooth="yes"/>
      <point x="258.397018433" y="-0.999938964844"/>
      <point x="230.000015259" y="27.397064209"/>
      <point x="230.000015259" y="74.8873596191" type="curve" smooth="yes"/>
      <point x="230.000015259" y="224.113052368" type="line" smooth="yes"/>
      <point x="230.000015259" y="271.603042603"/>
      <point x="258.397018433" y="300.000045776"/>
    </contour>
  </outline>
</glyph>
<glyph name="uni00B3" format="1">
  <advance width="1101"/>
  <unicode hex="00B3"/>
  <outline>
    <contour>
      <point x="606" y="1205" type="line"/>
      <point x="876" y="1205"/>
      <point x="1036" y="1128"/>
      <point x="1036" y="881" type="curve" smooth="yes"/>
      <point x="1036" y="797.759002686"/>
      <point x="1003.33000183" y="738.279998779"/>
      <point x="950.343002319" y="698.899993896" type="curve" smooth="yes"/>
      <point x="922.921005249" y="678.520004272"/>
      <point x="922.891998291" y="660.919006348"/>
      <point x="950.283004761" y="640.419006348" type="curve" smooth="yes"/>
      <point x="1009.08999634" y="596.402999878"/>
      <point x="1038.0" y="524.613998413"/>
      <point x="1038.0" y="439.0" type="curve" smooth="yes"/>
      <point x="1038.0" y="193.0"/>
      <point x="903.0" y="100.0"/>
      <point x="607.0" y="100.0" type="curve" smooth="yes"/>
      <point x="311.0" y="100.0"/>
      <point x="180.0" y="221.0"/>
      <point x="180.0" y="471.0" type="curve" smooth="yes"/>
      <point x="180.0" y="481.468994141"/>
      <point x="180.274002075" y="491.93800354"/>
      <point x="180.822006226" y="502.550003052" type="curve" smooth="yes"/>
      <point x="181.759994507" y="520.720993042"/>
      <point x="193.636001587" y="532.0"/>
      <point x="211.832000732" y="532.0" type="curve" smooth="yes"/>
      <point x="473.113006592" y="532.0" type="line" smooth="yes"/>
      <point x="520.602996826" y="532.0"/>
      <point x="549.0" y="503.602996826"/>
      <point x="549.0" y="456.113006592" type="curve" smooth="yes"/>
      <point x="549.0" y="337.5" type="line" smooth="yes"/>
      <point x="549.0" y="302.768005371"/>
      <point x="569.768005371" y="282.0"/>
      <point x="604.5" y="282.0" type="curve" smooth="yes"/>
      <point x="606.5" y="282.0" type="line" smooth="yes"/>
      <point x="641.231994629" y="282.0"/>
      <point x="662.0" y="302.768005371"/>
      <point x="662.0" y="337.5" type="curve" smooth="yes"/>
      <point x="662.0" y="535.404006958" type="line" smooth="yes"/>
      <point x="662.0" y="572.699020386"/>
      <point x="639.699005127" y="595.000015259"/>
      <point x="602.404006958" y="595.000015259" type="curve" smooth="yes"/>
      <point x="564.0" y="595.000015259" type="line" smooth="yes"/>
      <point x="518.317001343" y="595.000015259"/>
      <point x="491.0" y="622.317016602"/>
      <point x="491.0" y="668.000015259" type="curve" smooth="yes"/>
      <point x="491.0" y="670.000015259" type="line" smooth="yes"/>
      <point x="491.0" y="715.683013916"/>
      <point x="518.317001343" y="743.000015259"/>
      <point x="564.0" y="743.000015259" type="curve" smooth="yes"/>
      <point x="602.404006958" y="743.000015259" type="line" smooth="yes"/>
      <point x="639.699020386" y="743.000015259"/>
      <point x="662.000015259" y="765.301010132"/>
      <point x="662.000015259" y="802.596008301" type="curve" smooth="yes"/>
      <point x="662.000015259" y="971.500015259" type="line" smooth="yes"/>
      <point x="662.000015259" y="1006.23001099"/>
      <point x="641.232009888" y="1027.00001526"/>
      <point x="606.500015259" y="1027.00001526" type="curve" smooth="yes"/>
      <point x="604.500015259" y="1027.00001526" type="line" smooth="yes"/>
      <point x="569.76802063" y="1027.00001526"/>
      <point x="549.000015259" y="1006.23001099"/>
      <point x="549.000015259" y="971.500015259" type="curve" smooth="yes"/>
      <point x="549.000015259" y="879.887008667" type="line" smooth="yes"/>
      <point x="549.000015259" y="832.397018433"/>
      <point x="520.603012085" y="804.000015259"/>
      <point x="473.113021851" y="804.000015259" type="curve" smooth="yes"/>
      <point x="208.87802124" y="804.000015259" type="line" smooth="yes"/>
      <point x="192.532028198" y="804.000015259"/>
      <point x="181.760025024" y="814.164016724"/>
      <point x="180.822036743" y="830.484008789" type="curve" smooth="yes"/>
      <point x="180.27003479" y="840.086013794"/>
      <point x="180.000030518" y="849.543014526"/>
      <point x="180.000030518" y="859.000015259" type="curve" smooth="yes"/>
      <point x="180.000030518" y="1122.00001526"/>
      <point x="326.000030518" y="1205.00001526"/>
      <point x="606.000030518" y="1205.00001526" type="curve"/>
    </contour>
  </outline>
</glyph>
<glyph name="paragraph" format="1">
  <advance width="1318"/>
  <unicode hex="00B6"/>
  <outline>
    <contour>
      <point x="591" y="75.887298584" type="line"/>
      <point x="591" y="597.830993652" type="line" smooth="yes"/>
      <point x="591" y="636.529006958"/>
      <point x="570.042007446" y="658.526000977"/>
      <point x="531.38999939" y="660.397994995" type="curve" smooth="yes"/>
      <point x="234.04800415" y="674.800003052"/>
      <point x="56.0" y="801.87600708"/>
      <point x="56.0" y="1107.0" type="curve" smooth="yes"/>
      <point x="56.0" y="1516.0"/>
      <point x="342.0" y="1595.0"/>
      <point x="689.0" y="1595.0" type="curve" smooth="yes"/>
      <point x="1147.11000061" y="1595.0" type="line" smooth="yes"/>
      <point x="1194.60002136" y="1595.0"/>
      <point x="1223.00001526" y="1566.6000061"/>
      <point x="1223.00001526" y="1519.11000061" type="curve" smooth="yes"/>
      <point x="1223.00001526" y="75.887298584" type="line" smooth="yes"/>
      <point x="1223.00001526" y="28.3970031738"/>
      <point x="1194.60002136" y="0.0"/>
      <point x="1147.11001587" y="0.0" type="curve" smooth="yes"/>
      <point x="1037.89001465" y="0.0" type="line" smooth="yes"/>
      <point x="990.397003174" y="0.0"/>
      <point x="962.0" y="28.3970031738"/>
      <point x="962.0" y="75.887298584" type="curve" smooth="yes"/>
      <point x="962.0" y="604.5" type="line" smooth="yes"/>
      <point x="962.0" y="637.979995728"/>
      <point x="941.979995728" y="658.0"/>
      <point x="908.5" y="658.0" type="curve" smooth="yes"/>
      <point x="906.5" y="658.0" type="line" smooth="yes"/>
      <point x="873.020004272" y="658.0"/>
      <point x="853.0" y="637.979995728"/>
      <point x="853.0" y="604.5" type="curve" smooth="yes"/>
      <point x="853.0" y="75.887298584" type="line" smooth="yes"/>
      <point x="853.0" y="28.3970031738"/>
      <point x="824.602996826" y="0.0"/>
      <point x="777.113006592" y="0.0" type="curve" smooth="yes"/>
      <point x="666.887008667" y="0.0" type="line" smooth="yes"/>
      <point x="619.397018433" y="0.0"/>
      <point x="591.000015259" y="28.3970031738"/>
      <point x="591.000015259" y="75.887298584" type="curve"/>
    </contour>
  </outline>
</glyph>
<glyph name="cedilla" format="1">
  <advance width="948"/>
  <unicode hex="00B8"/>
  <outline>
    <contour>
      <point x="384" y="-104.113006592" type="line"/>
      <point x="384" y="-75.8873138428" type="line" smooth="yes"/>
      <point x="384" y="-28.3970184326"/>
      <point x="412.397003174" y="-1.52587890625e-05"/>
      <point x="459.886993408" y="-1.52587890625e-05" type="curve" smooth="yes"/>
      <point x="527.0" y="-1.52587890625e-05" type="line" smooth="yes"/>
      <point x="548.276992798" y="-1.52587890625e-05"/>
      <point x="561.0" y="-12.7228088379"/>
      <point x="561.0" y="-34.0000152588" type="curve" smooth="yes"/>
      <point x="561.0" y="-35.2292175293" type="line" smooth="yes"/>
      <point x="561.0" y="-57.1860351562"/>
      <point x="573.031997681" y="-69.7448272705"/>
      <point x="594.99899292" y="-70.6862335205" type="curve" smooth="yes"/>
      <point x="715.401992798" y="-75.8460235596"/>
      <point x="791.0" y="-111.604034424"/>
      <point x="791.0" y="-228.000030518" type="curve" smooth="yes"/>
      <point x="791.0" y="-323.000030518" type="line" smooth="yes"/>
      <point x="791.0" y="-460.000030518"/>
      <point x="678.0" y="-481.000030518"/>
      <point x="538.0" y="-481.000030518" type="curve" smooth="yes"/>
      <point x="389.0" y="-481.000030518"/>
      <point x="284.0" y="-457.000030518"/>
      <point x="284.0" y="-323.000030518" type="curve" smooth="yes"/>
      <point x="284.0" y="-294.000030518" type="line" smooth="yes"/>
      <point x="284.0" y="-276.716033936"/>
      <point x="293.643005371" y="-265.811035156"/>
      <point x="310.79699707" y="-263.695037842" type="curve" smooth="yes"/>
      <point x="446.488998413" y="-246.95703125" type="line" smooth="yes"/>
      <point x="485.76399231" y="-242.113037109"/>
      <point x="510.999984741" y="-264.427032471"/>
      <point x="510.999984741" y="-304.000030518" type="curve" smooth="yes"/>
      <point x="510.999984741" y="-340.500030518" type="line" smooth="yes"/>
      <point x="510.999984741" y="-359.587036133"/>
      <point x="522.412979126" y="-371.000030518"/>
      <point x="541.499984741" y="-371.000030518" type="curve" smooth="yes"/>
      <point x="543.499984741" y="-371.000030518" type="line" smooth="yes"/>
      <point x="562.586990356" y="-371.000030518"/>
      <point x="573.999984741" y="-359.587036133"/>
      <point x="573.999984741" y="-340.500030518" type="curve" smooth="yes"/>
      <point x="573.999984741" y="-239.59602356" type="line" smooth="yes"/>
      <point x="573.999984741" y="-202.301010132"/>
      <point x="551.698989868" y="-180.000015259"/>
      <point x="514.403991699" y="-180.000015259" type="curve" smooth="yes"/>
      <point x="459.886993408" y="-180.000015259" type="line" smooth="yes"/>
      <point x="412.397003174" y="-180.000015259"/>
      <point x="384.0" y="-151.603012085"/>
      <point x="384.0" y="-104.113021851" type="curve" smooth="yes"/>
    </contour>
  </outline>
</glyph>
